<mxfile host="app.diagrams.net" modified="2021-10-18T03:33:54.906Z" agent="5.0 (Windows NT 10.0; Win64; x64) AppleWebKit/537.36 (KHTML, like Gecko) Chrome/92.0.4515.159 Safari/537.36" etag="ktljP5qALIHIZw_EdI2v" version="15.3.7" type="github">
  <diagram id="Dy0gIPsPhJJXk_wZEGAv" name="Page-1">
    <mxGraphModel dx="1483" dy="781" grid="1" gridSize="10" guides="1" tooltips="1" connect="1" arrows="1" fold="1" page="1" pageScale="1" pageWidth="827" pageHeight="1169" math="0" shadow="0">
      <root>
        <mxCell id="0" />
        <mxCell id="1" parent="0" />
        <mxCell id="2kaiVSncZ8-85bc54Xyd-10" value="" style="rounded=0;whiteSpace=wrap;html=1;strokeWidth=2;" vertex="1" parent="1">
          <mxGeometry x="51" y="369" width="730" height="250" as="geometry" />
        </mxCell>
        <mxCell id="2kaiVSncZ8-85bc54Xyd-11" value="" style="shape=image;verticalLabelPosition=bottom;labelBackgroundColor=#ffffff;verticalAlign=top;aspect=fixed;imageAspect=0;image=data:image/png,iVBORw0KGgoAAAANSUhEUgAAAs4AAAD4CAIAAABzMvfiAAAAAXNSR0IArs4c6QAAAARnQU1BAACxjwv8YQUAAAAJcEhZcwAADsMAAA7DAcdvqGQAAMTeSURBVHhe7Z0JvE1V+8f3/+1tDs2DRpUGRfMgIZVUmig0R9I8iEbSQKZoQJqV5qSkUiFJRWnQRFGpyBhCJZTy/r+/++zW3Xfvfc49d+JifT/3wz77nLPP3mt4nt/zrLX3+r///e9/gcfj8Xg8Hk/Z8J/wf4/H4/F4PJ4ywEsNj8fj8Xg8ZYiXGh6Px+PxeMoQLzU8Ho/H4/GUIV5qeDwej8fjKUO81PB4PB6Px1OGeKnh8Xg8Ho+nDPFSw+PxeDweTxnipYbH4/F4PJ4yxEsNj8fj8Xg8ZYiXGiuOpUuDK68M7rorfOnxeDwez5qAXwNlBUExt2wZfPmltt9+O6hQIW+vx+PxeDyrOz6rsYJ4771QZ8Ann4QbHo/H4/Gs9nipsYJ47rlwAx55REkOj8fj8XjWBLzUWBH8+Wcwbpw2brpJ/37zTfDmm9rweDwejycLP/8c/PFHuL3q4qXGiuD774N//gkqVQpOPjk44ADtadcuuPXWYP78vLc9Ho/H40kwalTQsGHQrNkqrza81FgRTJyof/fYI/i//wvuvDNvVxAMGaIbUvxIiqcYTJsWLF4cbns8ntWVZ57Rv7NnB2+8kfd6lcVLjRXBpEn6d8899e9GGwUvvRTsu6+22X/GGRpbmTxZLz2eXHjxxaBRo+DCC4O//w73eFZFli71eU1PNhYtCr74Itx+7bVwYxXFS40i8Oef4UZRcVkNY/vtNTO0SRNtIzIuuig466xgwoS89zyerLzwQtC1qzbQqZ9/nrfLswry0UfB4YcHxxzj70fzZOSzzzTybowfHzz9dLi9KlKOpMbUqRJxReJ//wtGjAhmzAhfRin1gYkHHghq1Qrq1Aluu03p69z59dfgu++0Ua1a3ut/ufzy4JBDwm3a06BB4fYaAi7zwAP198wzwW+/KUD3MXoudOsWbsDFF/tCW1W59tpwo2fPcMPjiWGZjNNOy3sRBHffHbRpE26vcpQLqYGjPf/84NRTg/btwz3ZWb48mD5dt4/ed19www2aa0mVjBwZnHOOZj80bBj06aOI4ZVXws+XCsOH69/Fi4NXXw0uuyz45Ze8vXkga9j50EMFpBInuWSJ3jrqKF3gbrsFlSuHbxkbbhj07Rtcf334krMtxRQZcpiQN5Pe4iqcWC42U6YEc+eG20Xlr7/yn5rKxpFHBoceqr/jjpPvRDsOHqz5UDG4nLFjg4ULw5drJv8p2GVHjw43PKsQS5fmz/L7/fdgwYLSD408qzr4OJwaIDVatMjbFQTvvhs8+GApWO8VT7l4Wmj37sHAgeF27dpyOT/9pIht1qxg5kxNbnjiCWmRffeV/3799aBLF/mqXLjjDmUOcOolhLAbdxilWjWdldG1q4bPYffd1SaGDtUAG+YjSuvWwdlnh9tJatUKR2fQT7vumrcrN/C748YF9eopDbv55sHOO2vniBFSYFC/vgTceusFe++tl8aQIbr5BW66SWM6yA4Klgvs3FnHOf74vA8VhNLmmHXqqC6MefOk8Djn3r2Dww6T6eRXYnz9dXDjjapBDssFHnGE7sH56itpIA6IzCoUpOcppygttPHGeknHu+46bTz9tIq6UH78UU9O47Rhu+2C//43b++qzKefaorG//2fckLULJxwQlibnlUIFPPll4fbRrduwdFHh9seD9xzT/DUU7Ku2FjsLZYZ92eccUbQtm24vapQJlJj2TLd3onz22svRfO8JNzHESa9EeBIiPtz4corVehFpW7d/Js+ig0R9jXXBFttpaOttVbw7LPaaU0hx6HW998P1lkn3E5y0EFhWLP99kqZ1KihEvv5Z+kkwlYk1377qSQdhP4dOkiQTZ6cq8KlkLfcMjzz7Jx7rooaTYBwWX/9fGlitGmjEnjgAUVjMXbaSR2Dr8+ZE1x9dYHED2yzTXDsscFjj4Uv4YADdFbIwUKh8QwaFHTqlP88ksqVg0cflUKiuGhm7doFm26qMqRkKC4+hrA755zghx/CzwOFTDF+911w6aVBlSrhzlUL6oWGhPxCJlKSJtdatdJ0H88qBIoZ3Uw9ooZt3h8q/K238t7zpIGbwI9gB9YQUBUnnigX0KOHQjXDur8xeLDCpyx8840G+jGwRCblgbjUIEomfj3tNAXltP5YtrZQJkwInnwyY5+5+26F7LgcBwXavLnCX6DjEQF/9FHeG7lB7I67wm289pp67IYb6gjJX69WTWpjiy3Cl7RaqrBq1fQ6mDtXCXwCfVxply4K+vFq+Dk8OnEkYTpQfxwkymabhZ4VN4w+cA0C+PpDDwVbbx2+TOWuu8KbmrLAkYHTRvRccEHerrKHcii7uYf33RccfHC4jWyioM4/P2wMRaVZM8n8669XvLhkifagk6I6I8aDD0pzECi8/nrw7bfKmtCEevYMqldXZhuZxYUjDekcNIOKFcNvISsRNy+9FOywg767++7xTAlCx/ZgFtdeO2/Xv6AdaRVHHql/aS3Io6LCydSvrx76xBNq0hzwiCPCt954Q0169mwfGRcZqowWjga1/rUCmDIlHH1/+mm1BPS38eGHK+4cVi3oj4QHNuSE6UNYY1HpYoQZZsMx/uuumz/vno6w0Ub6w5Jj9qMx3rx5+mLUB60sOA1cbe3a+alimD9fdqNCBa1igTHEow0frkszcEbEeFFPQUBFANmkiQrHUr8oDA4yYEA4tEqASkiWGuTj1PgKhYbpIIqOju+jgDfZRO9ibYgbo1FuDIwSBu3PP+NZ/yQFpMbSpZrogBPFf48bJ1nQu7euJAp2+cwztYFHR4s4qOyWLcPt7NCdEAex2zs5FJEoyobrf+UVBabmuSllbHfs6SUHHqgWQ5tzvTQKR+bdWH4ScOcvvxzsv79qy7wRF0jwjTLgwrt3Vx0fc4wGbsBJhyh8xhIwzz1XYDJX69ZB48aa1kql4vM4PSobaYLwxCc1aBB+LAt8+NNPg0suCV8WD86f5gs0X1zOccfJ7yKEYf31w0t2vPOOLoE+7Pwx5UlTLlTxOIjMaBschI6dhVtvDfr1S59I+8ILSoREoTHS/DgNJCPiDPVZKmBZsDhuDRoHTTGWE6J50Fetvd17r/QHXvyMM9ScEN8nnJD3oX+hMfDWPvuE9g5hSuvdYAOdPzzyiLJTfBH1TLuyuT7WewGNhVZAZ1Nr1BctkD90zKuvamfqkB8NDLFLdxg1KrQd06fHiwiTQdXTIMtJKJMKDYZrsTnRFALXQonxL+dMD6Vk6DVRaBVUUwnHvyhbAhszx0DL79BBlnriRGlHc1oITSRmdn/PCfftq6wtHRb/hz+gYdBzMTu0WBpAluSlQZyKJyAk5Xf5UQypTdii7XXunB8ReQz6RYsW4cx6A/eBL0zSq5cGaumwHTuGltDYZZfg8cfVwGhF9Bfqi2qK+bUyBddGBEUbszaMe8I1cF39++slJgIfcfvtui5bv6JPH9lnzCM2vFMn7YnCtfCBGDRalOtTTykJnWTbbRVcRcNdrNxZZ4XbBofllHDEGC40EGy/vew2TpnYxsk4oD/iTDkCSgB9bJMfaNWHHaZL++wz+eVkb41nNaLTJgycLh0Jr4wFpDPQwXLkoIOCjz8OtwsF6xkVdxiFYcPU7U1+YvHRHzQgTgats+ee6qLZobCoKhoZvTo7mHWOhgXJDvVE+3AlyDYNhTIpLXcInDP1R5xNnWCIkYqcP/ErJfPYY5oQFIO2QvNCjVrOxpnRJC6QMggLWrUKtwEfjBapWlXbaOH77lMhR+EcOAH8wYQJGqegCXKGSXeI/kXh0mcQW2hWyv/QQ0P9xOfRENaU0b9mCLgiHHMWaAb0HAoBmU9zp1m3aSNTzmkgunMZeXn4YWks1AAenc/jIcaPD98qLTAHyAgukLMtFU46SckzWlqskWMsuBwaRnSay4svhve+xuCTdJ9Cu8mKxNpAxYrBeefJwePmOb0nnwzfpWG4TCHWgBaLItlxR1kA3DmVSHej+wNajR6Ri/JAiiH699pLHeT557WH7XvuUX1hGVM58cTgllu0MXKkzBfuwdklWi8GHemMaXJwLdhoBx9GoUanRiU55xxdfrt2ik+Abo5ksWEULpDub1qHWJMwgMunEMpVPa5gKJCbb1YJ0H6KDa0O98G/tCXjqqtUEQ5UCFWA/sP0oVeswPlFi/hzKX9CUyxwTKdSucgCtwAWkoKq/+mn8GWhRPO+DlwVpgCfiHrODicTDaWwFWgOOtfff4dLZOQOrRpjDoSvGNLUS6DxmxslXE/m3eNSg+4dC92KBAoIkW6ZZwu8kDn0WKI6DCLuORUiubLLaFGsVkZRonYtC/hjvJQlSMaMyU9klSk0Doox2bhnzVIYNHdu6KdpK5QzRYeki+a+MoHkpxehA7CY6JJCLTXxJe2JMJqm2aiRtEhpQURC2M0xEWolgeiEvk17Q/qYQkeRHHWUagphgXNq2zYl72V9j0LA0FviavPN5b1atlQHNkzOZwJ5REBsQ2llBOePicEp0o9oCZwzF2UTwQh8o3ky3qKVJhM2DnzhFVeE2ysRvGbTpuF28cBuEgh99JFEw+mnaxjRMWOGGgNqGDOCY6hXT1VZkqcrYkypYvwE4CcQ9DVqqORzJDq+HuPzz0MrjIZ2USYi1XkUFD9de6edlBVHuwNtGFmPBiLeM6MaBQNLY7ZsGW348MMlj2i9GC4HpgNbYUKtUChJzGNRh85LDiWDgaJX4sy4TC4Ks4aqJr4H9iPOcE/ffaeUGOVDS8iUgiU44TNY/uzsvLMmlmEEMOz0Nfd5hGmdOgpszPLzLmdCT6Raq1RROWM8cat//KF0RfXq+jlXrUT2u++uSqEKSjj0TERNfJVF5dDrrUxSQaYccICkPCohE7Qxoi/UTyznDVzyzJnhtkGA6ixkdqgd4swYcakBTz2lcqdZx8Y4HBR0shbxXnROCjoLtBK8C53qwgtlTHESxF6AFslFNhabzz5THEMTwam88ori7FNO0Rg8ihXzbf6Gftivn07JPJDlADAHW26pKSY0plLMXnjKA7TGRx+VC0H0IMZtxhkCFDGHDaLvffCB2iqWl0aLZSFUJdyhX2C1+QAeiHgrNrMEY8Sh8HzvvacEFTEEUoAOTwhC17j+et22Y2CYHnkk3M5E7do6ThS6Hk00dXgFi0MTxdcmRRK2zyLvXDIBWaDXI7AQnbfdJsuLY9htt5x8El8844z0pHexIUTDGv71l1yC3Ze0wjAfgPhDMRuY7FgyeORIeQIXHxuUg4U91CAKPvrWiH/vGssFXCwuhEPRtCwyxJxGhwzggQf0LtEC7bBTJ9UXjpMTwJTZHCNsL7aO5kTj5APDhsmnYhUpWGTK1VcrQ4m+wQuwn0bFOfOLsdQpCnLoUIlvvIubOZQddA8HiYYunBvyKPssvTZtwoH7KPQ+bDhtnu7JH+Yat2rjUJtsorcA41/UCD4LdGEKFmd33HEpoxhFom5dNQ8MAn4Hm0PVEDfWr6/AgMqtWFGNKpdpsKNHqxL33Vf/UrPTp0sAYdOiT44gyCfIjIIF69gxf1iEfkR1v/22fDHByfHHK2xD7dEsU29w4/R691bVo0pr1pQcjM73b9FCiY1YgidFahgIbS6YC8CkcurQrJkGI6hXGjqCDuHpmh1enJdJxZ0d+sb996vpN2wY7lkpUMqYCWQssawDN0BJubuZPWsyNFQaQ6pP7d8/VN4WOrhxQHpV1JFg7unb+IOvvpLHbdBA27/9piEkN65Jzy/0STB4o+hAWCp4F9ptatIOLcJPIJVsVh2mmagu2uwzgSzDQ2ATorkEA+F+/vm63vnzZZ44uF04hh5Fgt0/+2yF2g720NcwLJwAVgxZxr9Yq/HjNe6GDbn5ZrkQDovd5Axxgfw0Jhg7SDkXD4QOUAU4Ifwi0T8mC3P86afyuD17Kuc3ZYpSETHFkAqGFb/LJRMy4cnQW5QnlUjtx7waThqLTOlhKhEo48ZpQg9wycnkMaq0e3dNIyhrOPnY7LciwfWiKqh0dLB7EBlYsQDVhFKnMcRgJz7P3Q9IdHf00dIc+BeaQXYoYVpO8aCmCBhwfggjy47QDWkJsWHisgAF1rWrYldCFK4Rf2yzNXfYIaWiiRaIbEuYTyLUIUaix0XFHD4O5UFrp4JQEnaffI5QmxgNyuqll8KUMKqF64rN3vjkE6kcSjWmchwZpYYDm4XsatpU41jff6/8pBlTj8dj4GPMB+d453MqdEQUyRdfZJxGcMstijJzBK9Wtap8tiWBM0FfJnBJZjsmTtQ4xd57yzRzUTbhJguIGDc8ikxv2zZF6xx8sJK6UXB4kyZJdsQCoCjoG0wYemjmTP3E009LpWXxlPwKMoLCxMdjbbk0+zOwmJUrZ7RgWFXiq/32k6TD6OOTPv9c5WAj0wSyaAs8qAuxCPs4k9jABNf46KPhdioXXBDOPU+FX6SiDztM+Wp+y0bHqMQsaXDgqot0715ZQNB4+ulycsgpy8YRnSIj0KAUJtLkgQdUNdlBnHXrJqdIRXBApPAdd2h+GBIw2UqLBA0JjxuNh6dNU3c76KAw1qXBEKw3b67PENbTLAkDqCmbnpgcVOVUaRtPPZUvT1GKfAwpRjjxxhuqyk6d5DGj0DJRz/hpvPWqBaERHSe7Epo3T2VIvJGkcKnh8XiygxUbMECjttnnA+bI77/r78MPZWSxg23aKKeNbcL8FWOcEfkSm2oe48gj9UOAJSC4f+01hYCZwK26CS6YlSLxXBEfT5eFG28MU63GGWdolh/njwpZ6RD53XRTgdOLQsCGZyrGeSJr3n1XwxlOxyA+8GR48bvvlvohXF62TBrl7LNTxqr4cM+eytwkx3oMGhiKCvf5wguqqR9+kCbjRxFet94qJ52JUlE5OOxolAwUowlQm2lYpvEtGmjGDCk81Ax9mV7mOtrcueodNDC69nffKSUAhxwiCYhWMNFJ4bRurR5x223F6aFrCF5qeDyrOQTrWMmOHfXvnXdKT1iYHoUInnglNqAbA53Rp4+CNvzQ1ltLDxF5T58evpsKltcMzDHHhGMHpcUVVygNft11ki8Y/RKGvKUOxULEjCtiAwXAv4S5f/yhaXDR4aSiwqEef1wZ8nPOyTY3ghqfP1/+D11IyfOLdmuxMWeOAmuibYRFzZqSjF9/rQ0kJnuSd9vi9WfOVMIfVTF0qOZM/Pmn1N7++ytVvl7eTaRImSf/vZkoCxykUiUVxUknaVoAv0VzgvJWfZmYPVtFUeyhnDUZLzU8njUOfAN+hTisc2cNwSZBSbiZ7biBwXm3eVeoIFcUA/vx7LPhijZt2ijAJQxt2FCu67ffND1i+HBNaCCYNqdSWuB0uYqizg9bieD7KZAVmTZHcPC3wopozBjllowGDaRmeHnoobrkyZOVkjnoIO+k11y81PB41lyWL5cU6NMnnK6PmHj11TBZvTTvgX5ojieeyDaXwsCK+NSxp0ULqYrHHtOUhYUL49MUPGsyXmp4PGs6xL5vvCHZccABBRZWiI1bezzZWbxYf7ncoulZ0/BSw+PxeDweTxmywp8J5/F4PB6PZ03CSw2Px+PxeDxliJcaHo/H4/F4yhAvNTwej8ezpvPrr/FVx6ZPjy9CFON//wsfG+MpFC81PB6Px7MKg7+3h4gA/44apZVdi8Qvv+ipYhddpLuujNmz9Zz1q6/OtkDrNdfoGb6FLuZeEtA6F1ygJ5na1a26+DtQPB6Px1PumDxZS+Q0bKjbrXG03bvrcXN16uj5p1ttpad27rKLnhX74Yfho8N22EFLgXburDu3t9lGi4R9950eg1u/vjSEsWyZniO+1lpave+II7Rax5tvarUgfDm/Ba1a6Yt77aW1eY399tOvXHKJVveIgsI48kht3H67Vkspde6/X8894xKMnXfWkis5QnE9+aQeCty2bdk+0z13vNTweDyeFc24cVpmM7bwhwc3/+yzWg11vfXCxW/799dARo4LwbdurUe/G3ffrZyE8cILKu3NN9dqJigYB1Ijy/IuUU48UcLio4+0Atymmwavvy7d8+WXeuvSS7WYXBR+Age/9dbhy59/1iIvxx+vJ5tlcvz4YXuAjW1MnKhnzyepXVt5jtQl9aN06CC9BRTI2Wfn7VrZeKnh8Xg8K5S5c7VOLHz8sfyKczPlhxxPadQouduLLpLPLuElEMFXrKjBgtJihx0KrPXDy06dwvXSSkLlysGsWSqfKCgYVEizZloJefZsiSQKZMwYZVwGDMif8IHcadlSZ2Lr1/yd9+i8rbZSuoKSpEmMH6+lhR5/XOstZ1/L99FH9TzWAw8MNtggGDtWymzffTXW0769qgOZxXGAnY88kveFlY2XGh6Px6M1SghwXSRaKG7p0WLwySfhOvIc4Zhj5G9S49Q//5SznDRJG6edFu4sXV5+WT7JBb5z5iggPuUUDR9MmKBYHLdatWrK2jeweLGGM4z99gseeihfbVCYa6+t59zH+O03uWQcLYH+uHHKYRCmo7dwyYU6okaN5MJ//TVceDa2sPDVV8u/GtEVfArF8gRQv75OjzOB227TIkGUeVHXxsP3z5ihQgPOE2VD3aXSr5/kReoadeefrwWZUSqAOnn6aYkkiiuVGjXC5ApqY+nSvF0F4RKoX04sxtdf6++XX6R4Lrkkf3V4zn/QIK1iU7qLFnmp4fF41nRwtyeeqJVXMf2FDmrgxp55RkvQHXuspgIYy5blujQ8nhXLnqRnz6Bu3QK5geuuy58xQMiLe77rrvQM/Isv6qwee0zbRx2lPxSMA6+MH0LfAG5+4kQdBy+I+zFX+uqrmtyAeIouABvj9tslifbaK7jwwnDPAw8UiJg7dtQYweTJWvT1xx81WIDHmjJFV8TpNWwo34m2wJNlcopZeOcdOV0HXmv0aGkgHPAtt8iVXnmlNqZO1b8Io2bN5OO5WLaHDQu/5bj2WhURzn6XXZSHuOoqTYm47z6lIqjQc88Njj46/CQXyGVSLBSOFaBj//1VKZ07hy+Lys47SzBlp39/TROhuGytojffVDnkznbbaezJOOccXSYtgatDUFL7jz8evmUcdFBw/fVqBiefrI/tvbd+PdmqeWv8eAm+I48MJ69Mm6YVjJOyMoaXGisIqpyaa9XKL0Hk8ZQX0BbmZojh8Iuw004a18/CokVh9tvAie64o/zrWWeFNywUCr9oAWsqKBg8BL+CHEETxMCAXHSRfu7114PmzWXrEUlt2mjt3Bj40X320QZhK94Uv2u3MHB8jmxh97PPKvMP99yjq8Z554JJIlwv7orgOwpq44MPwlkCkIs3jVGlihzewIHBnnvKpeFZOcidd0q4pIL7Qs1QBS4oN9A6wNG+/VYK7NRTg759dUA47bTghhu04eAgXE7qQva8RWXVqKGi/usvCZHNN1eBI0qAIkV48RMUI791881530mw9dbBZpsFX32l7YMPVo18/33eGxFw1VQlV+FugUFkoGij18XJUJ402tjUkCioIkvM0EopFqcn1loreO01HfCJJ8I9OYKWondwpRyBM2zdOkyiwIgRqu4OHTQkREdAU1LCNN2aNcMPRPFSYwVRv74ycoceWsgInMdTKNgaog0iiVUUTNWnnyrMyj4AgXUz64+Jx4oRvxJHmokvKsTQRGNuJbnZs+Wf+HVO4+GHw50ODChlS2BgXRVLSpznuPRSDQE4NthAiQf6tXHHHRpK2GST8GUSzO0xx8gUZGHAAN0fQTCdBKeFJqhXTw2gSRN5ZcRNpmc/EOg3bSo//dJL4Z4YRPZvvRVuFxuEBX6dYikJaJTddtPVUeME8QZlNX++5mBGMz0lYexYld5NN5Vm30EZ0D7tnIcO1Qmz59131bSgenVNcd1yS30GP43a2HdfXaNTq+i2xYvVMvfeW6eHoqLhvfyylMdDDyltkwrCiKNVqqTW+/77wa23KlXWvbveevXVYP31JSIbNdJlchB0YY8eGoajlfITxYCG1KePqiMGog01bBIKBYwAsqzYkCEpA5FeaqwgbKgMaewyoms4tDsMLnbEUyQWLlR2d8MNZY9WObVhJ29gH+0WA7zm558rcERCffKJrDB6grgT60lERYjmxrOJIF32vki4CflsnHSScr9Y6iwQpA4alD/KzllZJjmW0jCuuUYOw0E4njoAbxBbE2Svu67ExHff6eruuy98y7HTTlJCxWPbbaV+3B2SlCROrnigtCgu/Bn+EgeWCRtWoKaigqZaNc0DSIV6h112UY3MmSNhB7GxidUA1O306UrJxNItRu/eyi7suqs0QVJIUfuoVUo+d2jPd92lA551VrgnyiuvSMxFqV1b7QS5P2GCpA8tFg2ESTFQY1265OdXcoR2YnkjG6yJ4aXGiuDXXxVAGKNGlZcbnVcANFY6UmpQgh5/8EHZ3LPPVrIX6F2bbaaIDXdSWnEMrdsOhcHFVZTWYVcieEFzJPhps9qrBLQE7N3Uqflu+PTT5aR/+knpfaAlbL65BvIJ1rFZqbloavC11zRFjq9gK5PYfAWCLcJEXB2RJb8ybZrGp0sCUR2+IXdiEwsctPP779fGYYflH5CS+egjnTCx75lnpouMHXdU1p2qT+ZgDA5IdHv44ZoauWRJ/mxNBxEtpVqzZph75/QQdlEoT6T/VlsFLVpINOAtbBwHscJf06ZK3eM4584toNLceBOyjHMjIjeQidSgG0kxbr9dYzrbbBO+BL6FoME24ufWKP75R2NeyOviZemKSnQCrxtZS4I8Qm00aKAYhlbEJ12FxkCsZ4mZ11orHMSJ4qXGimDcuPxnyKBVUbKYFUxMquDNkUce0cBb69aK0oxvvlHzxVJT099/r9nj2Fys3t9/KwO8ww6ho8Wat2unCU1Y4TKCNvXiizqHgQOVT8YGWVCIJ8DG2QQimj4dIBXa99ChmgP10EMysjEot0cfVS89+GC9xExzgZhaIDaiiaNUbCoTMTSGtWpV3UHXvLnGa9u00f6VBeeJicGnloToTHJL9a8SPP+8BheiUGX33KOmaHGtg1aai02KxsGYSGqWXoZY+fnncGcxOPHEAuF7o0aaixdzyQZdb731ZJdtLHz99Qs805rj3HJLuA00+169JCP69Anz6rTwvffOe68gnHzDhuE2Fh9rTnemF2+6qbwyYWirVuGTphx0dk5ml13Cl0bydoMPPgg7BT2RgqpWLXz8lJtOkXoLjINgaeJEzRzk5+jaHOGYY3RnRPv2UhsGSqV+fW1QbuynUjBBXOaddyrXQu9LVYeeFQPyccwY1UuW0b0kmNPLLlPDO+88fRH/MmGCWq+N3RArwiGHBLvvXmAKCG2YKCgW160OUoMriKbi3RBv+YHOhrxwYInoeFddpencxFtJu1AodGObOo7bfvttRTzTp+uObbj44qBWLQUlMWxkF1wTodmhP4gnMB/FgHOgnK2oMabYXNy5TXq1GMhx6aUSyJwVumfPPdVSscu52B2O1qGDGjoOiZgMuYbZdbz7rv41tY40IWI2PXfJJYp66RhEUYMHa48D7bL//uH2imHAAA2Hc/5c9ZAh2lOxos4hmnLPEdp5t24y9FEoBMrH4APJtA0NY6ONSkeRcHzkAj6PSsmeH5ozR15//nz9NC45x+rOwm67afJdlCOOUGMgwkZ6UizZB0QAbR0LsnG9N94YunxaLC0TCYsUICKnsqBTJyVRksPbWNLbbtMGP216F7n/+ecFnuLQo4cUAEfYeuv49A5kB30hFUoYd26gpTKZsr/+0t/MmZqAYiI7RtKkJEcoKDHaBlf9wAOabMEVuUkSxaZLF3mjjh11WM/qDW0VFzBrllLR2LRp03RzL8Fz27bpxmF1kBqDBqmJ4zhR008+qRTlffcpTYeZS01jFptFixSVZhpCyyJxTj9dk8YxiES0qXPU8QSceTS1GIOf5vgcBNdFREJM79IkOU7zpihQAxwhNvv6mmvC9AbGaNdd033SwoVqRieckD+xbvFi3XxPCV95pUKWrl3DackcDTOXPV+Cpa5ZM//xfxznwgtVdASCxF5Z4IdmzAi3Y3AE1EbU1nNYjpaMcd3j8/AT/CH2+Wk+nN135o7z95jy888PZ8KngtBs0UIFnmP2GP99/PHaoBz4M+9l1UpkiVO0SJqiwM3TKb77TtE2LadyZQ1elBy8qT1hiR8lyqGX4Wj79g2vF7uDu8JzIwtQe5bSBz6AX3TN3sqfknHz2KPg8u3pyxyERkUIgTx99VWl2a3WikRUXphisPmb6HvabRYoPYJ4pDka0RLFbhwaRo/O98rm1FH2HHDuXN0YEp33XaWKCio2zvXCC/mZgCS4f75CX8vlZpZMIEBpD8g7LAMb9erFe73Hs4IpQ6mBV+bYmbxvycH14v8I7l2kG52fRciCP7bwvVQgqCI6waoSVuLwdt9dCg47/sUX8ruER3DddTqZ2LAI3h3Xy058IX4FFzt8ePhWDEwDwRAlRvhrk+ZwV++9J48YI8usK0erVuHILsadcC3LmkAjRoST9Yi2ifsNdmL0CcsstYDJ3mEHmWDqFL+1bJmUUwmxAzo4MvrJMsxU3y67xHPFpQW+mZYzbJg8pXmgo45S5M3FoiNnz1Y97rNPONoSlSA0ubXWKrAnytSpSlYBnhiZj9N98828N3Jj4EAlqEaN0kzyVNFJvEidbrqp2s/LL+tsjfr1NSnv5JPDOxhTQVEhO5AguYO+pCmiJk3jbrllgUc1RLn5ZuWW6Hq08Oy4ER+OSW+yugY8NKWH5KLekVAff6zZbTHVaxFFJg44QFl948gjJRHs6xyNroRoqFtXL//8UxKHD+c4dukEHPoAeXfttRqPu+yyvPfyeOop9VbkFLEdROe9ZoJTyvHXSwWnfT2elUhpSg2O1K+fohDMxB57KOgZM0ZRuAuFSw5Od+ZMGREsIE7R+cVMlLBX83O//CIDTV8larEozSAORjTgxWM3oyNBCGuIw4jqsDu4LpwHigdbfNdd4WcI8rCtt98evoyCf8WLR6PzHCGW5YuNGuVP3cACEntRXOgS3ADO1VGhggw3ji1puxs3lpfFGVumhKtAzLlRdoJOfiU61Tw7HA2l8sADahtJXEIlCqc9bZo0B+ab08gE5Ry7pz87Z56phHah3HOP1J7lTqiL77/XHrtNHO9Iw153XXmXmO3GgeEjEWTJhwVFobRxgbmAAIppGoT7FVeoPSOP6FmmX4sNaoZGyAkjqqjTJAhTtAuK5+mn9bFCNUQutGhRwEkDvaBPH81kzHEpEMQER7j4YtVF7F5QSp5egyxAICZvEik2tFv04n77BVtsEe4pFLu5IBP3358/ROLxrDmkSA38KxYNiUBU7e6byIXBg1PcJ36LUA//geAg9E/V15zCBx/II8bimCh8hlOypAWfxA/hXN09XZnYddcCLhY4DjETR0CspMLlE9daEsJyoXiXt97SkwEXLcr7xL+8+27+tN4sWOoVXYI6iWIzNy+4QEkRe5BOKljh6dPjP20QN0+YoI1oSnbOnNDaRlcTePFFpaONHXZQftsmcFGM9oTB4kGdcm7GOefoQtxMAn6COJhfQe4sWCDXyJ7jj1cSHvVjvPFGNguO/+7VS0quVi3Na+GiaJZAW0K+0JA4zq+/qnwI8a3hJUf0jY4ddSavvJJfCEWCaJuYm4jWhMLDD+us6Bq0IqAeuXZ+2uoiCSqERnXuuXKTxx2nNDvt/Oabw6xJJjg+goDiohFefrkUvN27gaO1mkWO9O9fYAyeouYkXbYjR/D31FQUmuvAgdoPNf597LEjR9GWhPKvXDncLja0CptXO3Kkxjg23FDFsu22UqWptmXFk5yYQo+jDT/7rEwWfx7PGkhcakRvj8YZY9ZjLvmzzxT2nX22+s9//5sfjuBLmjfXeG0WbrihwLQ+B1aD6MrAIjdrpiwx57VwoYKqP/5QZjh580yUli01Hpk6moti4KwQJfR/giGcBKeBk4hFHpYlRpp06xafSwhNmsj4YsrvukvWP5lNIQrPPlhDSSafauJAhMWS7VwLtp7Cv+MOnRVeHJfz/PNymfbJww7TbFPKB1WRZejXwCjbRFFCrug8MgqZ4BhniSKkQrPcPZ8KzhIdOWOG5osYX3+tZEmrVik3ceFucQbvv59/yzWaL3f3wKl+9ZU8eurtYZQPR+bScMk0YOqLIj34YGmL+fM1ZA6cANs0KmJflxHZfHPlaZAsxeDWW6Vy6BEOfpFypiTxqVQcJ0ztNG6sNBLilYv95RcJLyoUkEoUOLKJ2jGJRgtB5jo4gusXjqg+46rRLu4WCToXbZuWjDBdf31JH1r+P/8Uomk220wpLnw2H0Z30qmzt2R60LRpOtUvvlBWLxP33KNmyTEt+3Lbbfn3VpQuXG+WUa2VApqYTkpJYjRQfsccU8yZ1x7PakNcaljUFYXeYpbawEy/9lq4DaYePvhA2V1AIhD5XXNN3ntp8HmCezoh6oFD4aLolsUYL4hh9ve33zQLL9MaNhtsoIDDXS4mgIt18BK34Z7qmgqezO6Gv+8+zX5wXH+9CmHcOAk1rHASov+kfIkyb56CVGz3Dz8oALJEfQzOHKtK0eGBEAdE/LiT3EGmUObExzGrh6Oi9PCI/CK+c7/9VOOoB67luefCqXD4HmSBW++AT6KE9txTSZ1ijE/hbjnyscfG79BbwRCscxoXX6x5Fbh8Lvzdd8NqRQr07au/os6mRInmkuhKQvOgctFt2bPrrgU6pk9Xk0CgoFfoWckm8ddfBcRlKqhwNNkLL0gfZMfueHJ07y5rcPfdKiu71cKl7ly6BfWJOj/jjPKlBlYAiDx63LbbrnEX7vEkiUsNxDjh4PbbywS3bx/uRD0QmRnNm8cTxfjdq69WYhMwOocfrkSx5bpxXc88o2F1XCMWx4Fpy/Qw3exUr660B0rCkro33aS4/9BD46kXAq8dd5TncGv9JeEaTRYQhnIymR7Ph/V3gwJu4joxsXsoGzG0ez4/cfPtt8vI1q1b4O5W3HaDBuH2KsTPP6sMTzxR6RzCUwQHcepJJ63OpnPIEPlyxJzdFdL/36dT50iR8jSpxO6LjlKpUvEfI43P23xzDeVMnqxpDY89Jo143nnK7eERDfbQgI1LLtHcSTcGt88+kum0/5o143dgmfx1DB0q/UEUUYoTJjwez6pOylyNuXNlkjAoCAWXwGBj1CjdEPH44zI6STBkBPf16mkb64PnJmaNmt3YtMooKA+sWLVqMvRoiGjWBCvG0dAuSBxwByQWJzrHBWZh8WLZO2c9i8HLLyu/TVBoB+nZMzSgnJJb9QBRlRrZcy3IHVQIQXMxQn9POWHECCUMnn5alU5j6NZNOapNNtFkC5vNAPvvr7ES9GWWWyRyJDUJccMNGmSkB+U4fTJ3kk/WAvqjafQXXlBHO/tsn//3eDwlIkVqODLduIUKefNNef37788fR8g+xQ+w1ETJKIkOHcI9Do7mHmG2aJHmna2/voa9jzxSae2SsGyZzpPYFE+Av//0U6ml6H1xUTbdVGP5rVvrgQcIhVatwtkVTz2lKz3qKGkvJxoI+whhjz02/UYSz+rHggWS4C5/ZhOJdt9dEyc320xZPYRvqWjKvn3VPtvlLWZdoYIGcZKjaaWFu0HX0bKlWn40UeHxeDwlJJvUADwurhSVEKVZM010h1mzlF2Hhx8ugiZwN4OdcUaYK46lnfk5THZZZAJQHkSiRJ+jR0s34CQw6Jh1m+SPBJk3T9M1oieTidmzNbWC+M89q9HjKV1mzlQvyDKbuFSYMkV5Sps1DHTJTOtJejweT/EoRGrAP/9o3kZ0mr09JbDYLF0qkfHHH5oKN3y47t23lWc9Hs/Kgs5YqZLGB3PR2R6Px1MkCpca8Pffmiu61lqSHb/8otGEEmZ07SkRsbmcHo/H4/F4Vj9ykhoej8fj8Xg8xcPfGuHxeDwej6cM8VLD4/F4PB5PGeKlhsfj8Xg8njLESw2Px+PxeDxliJcaHs+qxAsvaHn3Qtc09ng8nvKDvwPF41ll+PprPULUGJJ5reDZs/WQuqlTtSCRf2iNx+NZ6Xip4VmdsdbdsaOeDXPllXpwXKEL7hebadP0dLvzziuwUsk//+ipstWqaePzz4MDDyz+M2m4lti6r2711BgdOmihAEcWUbJSePvtYMwYPXE4x6LgMqm1zTcPX3o8nlUOLzU8qy233iovS1j/4YfhHnjtNa2ahuP//fdg443lv7M8H/Onn/TQ/SZN9Ax7A8kyb56WO1l//dBT/vyzlgM84QStR2iLHg8bprVL1llHH37ySa1pYo+/M/jWJZfocfiHH671fqMPsmPn449rRWXOMMmPP+pMotx2W9CwoTb43e2207Isp52W90aCpCjh3ObPD7bcMnzp+PNPrcu6ww56q3bt9DPJnd9+03KDjuXLg0GDtGQdtG2rpwYbv/6qB6JThlyFgw//5z/BO+/ok9C6tZZT9g8z9XhWRbzU8KxMZs/W36JFWnIPh530fIVC++UvdcWcAw8MN2Lg7I88UnF/nz5KdSAa7r9fgmC33YLGjbXySIcOQdOm+ljv3uFXWrTQ8uvvvRe+NO66K6hTR19BkRQb3C0nj0y5887g9NO1J9Ni8SgAW/S4Zs3ggw/yduUppxEjtBBr1arZJnC0a6fropBnzNAaih076pKRQcDvInps7VaUGfosyscfa+Ugvrj55kUei0E9cHB+6/jjVcsoiSi77qrFGidO1Bq5yDWDGtlxR/3cSy9JpvCBqHjq2VPrTn/9dXD11QUUjMfjKed4qeFZcSxdKpe29traJmYdMECuKMpxx8kp4vunTJHvJ0yfPl2e9aabCogJguD11pMUwAs2aqQV7556SlkEnNPIkfKmjz2mUDh28FKHX+zVSymKsqBu3aB793AZ95YtpUWuuUb7r7pKS6Ohk5IrJMfA07/4oo5QKFttFVx3XbDPPukrOTu42Guv1QLOqIRatXTkb7/VAvqIrW23lURw7h9hgVzg80a3blKTyTWQGzQIfvihOFNcDz5YY1Uej2dVwUsNT3Gg1dxxh1zLxRfrJT7+nXe0ui97CMrxjg88ICdUu3b+cuTz5ilCPeAAKQC+js4gSE2CdJg2LZ7wr1EjeOghHYr9uE/cWIwmTZQUOeKI8GUSgnVCfzTKSgRp8tdf4XYu4KFvuEEbjzwSXHBB3q5ASxNvuaXyKDj4LKAb+vXTRp06weLFebsKA8c/bFi4XTyqVQvmzJFYbNMm3FNaREegjK5dg112CXbeWetLjx4tkfTppxpj4gQuvLA4EzuoGpqxnxHi8ZQFXmqs/ixYoH832STvRR7Llima/PPPoHLlnGwrbSQ2Rk4kagPt99yjLPeXX+btDZSxeOwxORs3ptC6dbDhhkHnzuFL2HtvTWVwQwArgJo1lZnnej/7TBH5sceG+4HrytID8NOXXhq8/LIyBI7NNtPEzzFjwpdRuLTmzcP0g7Hxxor+x42T8EKE4Rcp86lTlZLhfJBN0SPnwscfh3Xx4IOaRxLjkks01rN0qTI9xuef58uU3Ln88uD77wvMLS0taIfI0732Cs4+O9xTKM2aKZvy1VeachsDgXvOOSkDWMOHa/Dr66/V+Bs2VNILXnop2H57bXzzjWa3oNWirfq224JXX1WrtqkhkGz2Ho+neHipsRry998amN9hB20vXKhpB/PnSwTgnGrU0Lh4kyZhpLv77sHTT2sjCy6Axl7jt3Db+EtcUSlSq5ay6wMGKBcS5cYbFbyWBLwUjj/mMJYs0SXMmxf07x9cf71KYNAg7X/rreCoo7SBb+aSoxNHpkwJxo/XDA8C32220R4EhE1vhP32k4iB7t11hBkzQi9F4eNTs8NnKNhNN9XMD8qWokhN9hgUEaG8Y9GiMJHDiVGzCJ199817oyBcizljrnf99dUYuBYK4aKL5H055xgDBwZVqmgDgcgHSsJhhwXvvx9uA/LissvCEbSrr86f+zJ2rHJOqJAzz1ROYvZsSdi//tIH8P0UjuXG2C7hA0U6dFABIgcN2gYq8O23w5cG8uXHH4MnntCtQ1QxlVvqIM3pSpRG6hwjj2f1w0uNFQexLHEtYW5Zg8N+5BEF3xhufAxBubHVVvJV+Mh77w33wA03ZLxtwcg0ubLknHiifp343kAhHXpouA2tW8sWz50rYYRPzQQHoWBdWgVOOUXO49dfFe9edVW4MzuTJikNgDijN+CJ8W2FhrN8EnFA6I+bP/xw3U3K+bvRomLA19daS7979NHSH0kaNdLNKTE424kTNVwSvZMlBvIIxXbqqelV2apVqJOMFi2kBqJMmybf7MaeaD+IAH63QgW9RQl89JFSDjGoWWpz220l4J59Vl+vWFGzN/iWgbgcPFgbdk+Qg4LlL9UHsx+R9Mor4RfLCDQQuscRk3eOpUtVbvvvn9+Ac8cq4uabg5NOynvt8azueKmxgnjuOUWrBMpDhpROKEPoSdSFWUS+jBqldPGyZcpSEIT16RN+JkeI6fHWhLwEeXvuGe589FHtuekmjYYUCpf2xx+KgInVHBwNTYNFNtAEZ50l6XDFFXr52GM623XWyXvvX7givoKXQifhmayg8ME4YDzTq6/qJf9ypZQkP3fMMfokP123rt469ljNycDf49g+/FA7i+EGVjroKgTieefJs1atqmKcM0fbRxyRPyxSilC8uExEAHoL0Xn55SmqZeZM3bEybJh8ZOp8TJNZY8dq9OHPP1UvXbqEb2XCcmPoSLvvJncoCuQLmiOakGvTRnNFW7ZUYyh10FLJPnvHHcHzz6tJ0we/+076DJVmo4rZWbAgqF9fG4hUDuLxrAl4qVHmUMDXXis1YFjUiAN+/HGNu5tvvvJKheCFRtKO6dMVuwPOFV9b6CBIdnbeWVM3jAcekDvhnGNPiyL2jc4MOOwwWclvv5UJ3mKL/KiUQJ8oEINLDL399joOASKiITpd4Pff5cxyv1gDjdKxo/IcmW65xMOtisJiFcLlXbKwfLlm4WTPspQWfftKsMItt0jIApoMVbT11mEabJNNNI+4fXs16VhO6Kij0u8oTgU9QY+rXl36DxU7caLGH6+/Pnx35EiJBsONPaUyerRydUlQaWh6ugnnWRZq0uNZ6aw+UmPhQpkeXOCMGQqq8EwE6KWSPzAoJywFBjQ2dottJbgZPFhpakJqQqsYhF/IiyiEcZzt0KHhSwOHTdiKKLFzxmLycwS1O+6onx4+XH59ww0VEmHK+a3srLOOMg3jxqkQ9t5b30LKOBABnDMGbsQIzYeIgaqYMqXAXR777qsRGVi2TP5m/fXz9qbBu6ioFeBmPJ6i8swzksJgU2rGjNH4GhoF0YDFoOkii93gkc3bjbHLLhLKCJosXHqpJsckx0n/+afwB5PUq6fZIfaME0DQIJWwA++8E+ZLMC/06Exqb9YsKaHow2o9nnJC6UsNe8bfigFVcfnlGtuuWVOT+WO36hH3Y0R++UUxN50TU/LRR4obYkl7g9PG/W+6afjypZf0gCMM06RJGofGAOGSbRbbCSfIGW+7bd7nAn3MPT8AiPVdiGNcc41SGkRat99e+L0AvXtr9LdpU0mNInHvvRoa52L/+iuc3mizFw2u3aZBEG6eeqoeqWRQ+bHsRRQUSYUK0hlXX13kJITHU95YskTTQmnwzZqFe6ZO1UicSWf6COL7wQf1MSQIygCXf/PNxbwNB2Xw7LNasAaJT69MDhK1bBnejRxj551lTzBZr74adOoU7oyCDeGYRB1RvvlGxorQAgh7og9dBU4Ao+dmyXg8K57CpQYqfv58xdaF8vPP8qY0dxx83bqaPoYIKN0lJ/CjTzyhyfaWPEBnjB2b90ZW8P0dO2rmAaE5QQxWYLfdwreA0IEg/v33NXbQpYs0B8ccMiR816hTJ3j33XDbuP9+2SxMFUaEWD8KWmSvveTROSYHv+UWfeC553SbZeyE7cQIXFxaFeu2+eb5D0/MAlEXZ2W5h549sz1SwvjySx3WBomjfP+9xBAyC5HERnSoG71lNwd6PGsmDz8s8ZEJelPyES+FctxxmqGCEVu6VEmIadPCh9MUCTomhgVbUbmysjX33BPuN3h5+OHhNl3bnsyG9Zs8WfYTIYVpQgZh1ZE1WPj27X0sUe4YMUKDcalTklcu8+YpJreEAr3j66+DHj3SA/go6VKD1tm5s+YBsGF3G6LQ8ZRZmuOECeowbg6g46yzpNPHjFFugA5QtWq4v0jgqukPeHd36x1Ocfbs8Hb5KDhg5EjymqpVU4lE6d1bSQ5CdqwJMUGOuMc/I1aeflr9+c8/pXv69tXvIi84qyQ0lwEDtIHyGDlSDYgz3GMPRVHG9OmSOE2bKrTKRPXqOltOAB1D4EXggkJq0ULKBqNTWtg9nBQj2sjrDM8azqJFMoOYNdQ8Nsdx6KGyZvRfux+Yt+ibuTwpBGP4/PPhtmPUKE2+xoCUIthGLAx2ho1o2jWKm7AycKAegEY0Qiy0/vr6c4M4qxwLFsgyN24sEbbqQkRKXUDsYYalyMyZmhiUekck8hefS1s1rGWamEAA3XCDdMbJJ+sRwzVraqctPpCduNRAZeNjUAYxx3zOOZrASMhLwx0/XlMR11tPPQ1ZPWOG9ITNw6pYsZBpBM2b62+jjeRT58xRkt/kyw8/6Hpio4x8Bs/HKdE5+TcLiKz588PgfupUyYgKFXRidB5LhMYeNVg8KAQCAo55/vl62b17ODXMBi/APYIiCm77jjv0vIRC4TLdjPQNN1T6lLpAT1BQjRrJGCWlHqVNYZbulJTBgzU8lJx04vGsySAp7El0N96ooCLJ5MmKW7LPNj3oIIVMSSzGwErELFXr1nqLcIKoDwvgpm+ncu21ii8duSddYhaySRPd+E10x+9i7tjArKWKj9GjddcYdq9evQJPxisVhgzRxPn27QuPmA1s1yOPhFkoHFNsMlxRMcdY6smeV1+Vr4zeqUSgi+8jkoR581TF2F58Sv/+2vPiiyrkww4LpxvjDh5/XOkoPA7ukgif4NayVqkQwSIiaZm0WHueDSBtaSpcIHvwaMThu+8uPwU//xyu4IjcfO01OXRi6WbN9C8fe+cdvZXkggvCzBwng9siGL700rw3IsSlBk6UtpUFAvTvvw+3ERwvv5yfqUNFPvqoYmJ3t0UmKFbcJ1dld5a75wBywQTrW26pwUV+KLVPRjnySM3noiegsFLd7dy5Kk0U4k036eWuu0qpDR+e915BiOCRclGaNtVEDcwK6pLzQQDSb60+rrgi/2GX++1X4NYMxCCt8/TT1SYQQMgRmoWbAlIonDB1v9tuSlSUeiv3eDxlzbhx0geYCBx29NazGjXkVPr1yzZtc9YsRS8W5t1+e4rzfugh/VWqFA+9sOwW/+DGCh1LLR547tiThQcNKnBL8623yv/hT/ACdetqG2WG70T9uPQt5pHtXCwbMbc9dASpQaDFYe1bSK5kIM67CMHY/dU4P7wDfgF3a88zTMIXlyyRbWcDX0aAhxa86y49/h+w9kgonBROhDA7OdudmiIqozqygHtGMOHsLrxQU3BsJh8h9E47KW5/5pn8WcbUuPmprbdOyY5ffbWaB8GngfJD1Fpdn3aaGgCygKtAyqAJ8HQPPKCDU2g2Jk6Ef9llcmQ4I1x2LIXGlVK/S5fqY5yqo0MHxe3Z43yD0qZ8iPYhNXVXQGosXqzhfwNhknwsT3ZGjFAjoG3hkvfcU5Mo0V/ZoTmiyCjiHLnySt1pZlJ9n33U61K1dgwukTOZMUNfr1BBL3HkNCZaMIKGKj/gADUm1BylbDfKE0m47oH2euMNKTs37wSx4p42ER0WdSxYoD7vByA8njUQy6Qa8+frsSW1aikNXIqMH68HnGBs995btsgFrGBPWI/x4YfyLlOnyijhovDBGDE0wSmnKIDOhW22iR8WVRRL4eDRcX5PPBG+NPB5OHuic/vwOusosCQOxg5//rk8BQ6ebYw5bps4Ezf52GMFHtiPv+QD2GriOpw04GvYiZIjNG3TRjIrS76HXxwwILTGmGXCP3w5fpHYGB+Hv2/VSuNf7uajGLhPAkvOH5CPeMbatSUvvv1Wz0hEfg0eHK9c1APOm89MnpzxsTHoGxxuaUE5oBJQdXbbFI41NouRqqlZMxzHL2u22CJlMnU8q4HEoxyRcnfcocQLETm+Ge9LjO6oXl0NPUbqU25oYVwb1dCgQb6IKRL4+4MP1nc5TboK1Ybyeu01jQyVZECRo6HvYiKdpoPUQDcUKrq5LhtfqFJF8q3Qz3s8Hs+KAcvWtWuYTSGMJhbC9Gd6SDGW8LjjJFncIgB43L59tbHZZjK2hx2WPwqD0dtjDwVsgKfAGhO/AVHfF19oIxX0QfRxtDGI9+rXT8m3Fw/8NxqFaD7mUzntE05Qtphr/PHHcGcW8HHYdjzg9Onhnii47f33z39kLQE9/ui33/QrKEtUlK0D0KJF+NyXUge/jGosO269VX9RaAbUO3rOYuzWrXUvZ6bJSalTN+JSI5XvvpNQRc1ZeqRzZ+nQfv1CwUG5d+mSLStooA/QsDjy77+XHmdj9OjwLbjwQslzPH2NGtKtL78sYYGMRRFH1wkrPzz5pIQbgix2X5nH4/GsdLDrSASMaqGzI7G6f/yhpPe4cYr18cdDhyoJjz8zsNvRu/RbtdIDQtq2DfPqQ4YoJ4/sMP9aihBJ1q2refQ50r+/rhf+/lsexJRTkejeXUPYyAi7RdHmyOfOllvmj4YUG5TZN99IGl5yiUQYwfY1eY9LcKCZ0AHvvafsexbw0aeeKr9cs6ZyBzHwv9Sa3bSBq8XPvvqqBqcAAYGS6NVLPg5iz77jTGhRlA8NzB6UcOaZ0nYOSuyoo1LC75ykhkEozxnTKHGxyGQE76BBEjvFvp0VHe30cmye7axZyvght21uhMfj8XhWCs6ppGKm+59/FMHjsUoLPNx55ymQW7ZMYxx4HBwhAuL66yWJbHoc+uall8IhgyZNwkn6junTNY3v/ffjc/7w4uZToWJFTXR49FFt7/vvgwod8+bJryNcUF0LFhT+4MRUBg/WGSIOJk6Udz//fM0ZsFk4J52kdM7YsdrD8Tt1Un7ooovyvhZh2jRN/TnjDD2pYfhwDRHYk2CQNTNnaiwJPbFoUZgI4BI6dFBeAKXl/H27duEMRfzpE09ITiEWk2qAip4xQ8NY9haXz8E51UwpMc6cGrn8cp0hhY82qF07uPPO9HmTRZAagP5dsqQ0H5Xx7bcqXwo3Od3B4/F4POWBzz5TMiNJw4aaGmLgkpEaOAh8D14Qj0VEzsu77pLnw0GutZb2fPSRvB3/xsBT4ueImJMheBJi0c031wwVjt+2rY729NO6qyAVpMnVV+dPjLjppnBVBwQHPhvvi0/l3e23T/G+s2drAgC+FsWDt7LbF/jpc8/VQUaODAca9t9fqQh8LUfr0kXSZOutlScgFKccANEzdapyReaGmzfXPQePP57xnIsKaqZbNxUIAXzyKmDyZH3gggs0jaMsQEek/q6jaFLD4/F4PGssDz6Yf8Md/rVXrzDCLiq4+fvvV1g/bJhcOA7SjdcUFVTC/PmFD2QvXaobFW2CasWK4c6iwqkiO7bcMnz5zz+aCrPHHuENornD5f/2W8b7YlZLvNTweDweT07gXN/Mu+cfhVFG8XHZ8csv+nezzfJeeFYsXmp4PB6Px+MpQ0rvMZMej8fj8Xg8CbzU8Hg8Ho/HU4Z4qeHxeDwej6cM8VLD4/F4PJ7Viuj6edmZOjVcrtz45BPdHlzqeKnh8Xg8Hs8qw9956wBn4YUX9DSt6DoymfjxRz1U9IwztEgsjBih56zzl2nVVXvs/cknZ3sUfSr+DhSPx+PxeMo1f/yhx3PvvrsebTJ5sp4Fbg8HS+WQQ8Ksxtix+euGJlm6NP/hmRtvrOegDxwYvkSptGqlZ6hUr64Hl7nlxti/ZEm4PWaMbntevFi6ZLvtCnm0iZcaHo/H4/GsNJAFP/6oh5hFV+idMkWPAKlQQWvQX3JJuNPhnnlqTJqk7+6yixamueqqMEUBN96opEWUBQuCd9/VM8dQD7feqrXJCuXyy/V4059+0mNe3SJzcOWVkhfXXaftrbbSyqPTpmlPcrV98FLD4/F4PJ7ig1YYMEBPHz/vvAILyuPX339fy4/FVpl34H7HjdPCZmPG6KHsOPWjj9aDRJEObMN//qMnnKZy7716itrQoZIdxquvyt/bMmnGzjtrhRfz/Rxnzhyt6mJsvbUeuw61a2vxNge/y5GjcA77719gnbJtttGz4WNsu2240i865oYb4o+R9VLD4/F4PJ5cWbQoOOIIbay9tpZPa9VKDzu3hWQvuqjAYjEtWmj983r1pB6uuCJceNYxb1647lqU447ThIlly8KXMdZdN1xezkBJ/PBDuB1jww015mJcc42WpuvcWavTJRk8WG99/LEOfuaZwWWXBeeco8XhkA5cS2w1eUBJ3HhjtmXLatTQyIsbczG81Fh9+OADKWgaCgp61ChJbARs9iVwPB6PZ83k7781SLFwocYdNtkk3Bnl2291a8bxx2uhsqVLg1tu0TSFN97QjEj+dbzyij6A7TUaNdKsyT320CSJAw8Mdxq4f47WurWSGVjpNm00lpEL112nldu22koJBlRIoauTNm6sBeGuvlrjMkaVKvnbjh13lEiC5cvlKZyzmD8/GD1ap4pcQC254RioVi3o0UNn0r27JnbsuadGVcaM0UUZHTvqM8k1Wb3UKNfcfbeWQkYvr7OOXtLI+vWTNKapoYgffFDNmnpF544bp5EzQGpUrRpWfPv2+oDH4/GUEbilXr2Cpk21fKvDvErpxjlYOcQB3rokEOhzkEqVQk9pVKyooYcNNtBpuwXQ2bal8y+4IL64fI7gyKdODbeTdOki+5zJ/R51lBIknOHXX8ukH3xwuN/AKTz6qCQOcMJ8ct11tfAb4A5wBCZxfvhB8mjiRG07qJTHH9cUkIcfVkqm0HXaFyyQc8Hd8EN4EzebBGc0c2b+InnDhwf33afpI82bh3tieKlRfpkzR7oSevYM83VvvRVcf702XnopuPDCYO5cbdMo2Z/KdtspM3beedLXL78sKVq60GlpiFtsEb5MsmiR+kB0rlMUtDAq6vbbg333Dfd4PJ4VyZAh6qSnnx6+zAKd/a67dAcEIXuUdu3kZoCwnogIL3jnnRr7xzvie0qFsWPDiQvAb226abi9dKlmSGy+uVL6H3+sCRNZVoBDqeCeCdXgpptkdqLwkrPFTqIA9thDe154QbmK7OywgyZLOjiImzaRI5ttpuVtH3tMGY569VTIbdsqxXL//fmiJxMUC7+Oj7CpGFOmSC25VWcdzo/A0UfrDFOnbZY1pS81fv1ViqnQYlozWbxYrWHJEmXPskt+PjN6tIbEjMqV1Ulo/dZVCiU2pAcI+WHDst34VAxsAvNDDwX77BOv8dmzZXToPzvvHPTvH+6MQqcyu8CJIdu5rpo1lZZEJtPxOP/cIa4iLuHSZsxQwhNZRrnNmqVYpHSv17NK88EHamaEklWqhHuiYKk/+0x2PzbGvHLBPHPCqAFi1tIyqkT2I0cGdesqQ3DIIdozeHD8TkUCWdyY5USJUnDq+D9UBUTvn1y+XHMLbMXUGjWCm29W8OAeAPXmm+kDE8Zff2lKI0Yg6h3Hj5eYII7CiRhEz1gGB0KnQ4dwu3dvZe/BSQeuK7ZAPAVolrZHD+mSGNiZ6tULTHiEE0+U7SWISoJB+/57FcheewUPPKCZjxdcEHz+efgux6Gg0D04QQcl/OGHki+4fEwlRx44MJw+CXyYy8FYbb99uMedcCmCoMRWc7GjRmUM/MqaUpYaGPqzzlJVUXxc3oMPSqmdc062wHc1YN48NaNq1cKXqaD07YEqtWqp5bVooaxXJt5+WzN46caxykHO41azcOSR6myAdz//fB0hSufO+gA9nE5CEzfxbvTtKwd/7bXSNPQEvgtVq6p10iu23TbFZ9OvLr443AYMNEKBM+ScsdpnnCExYXCcPn0UfDi+/VbzjzJhM6uNhQulkOjeHHb//TWLiouiXbGHU6L/0HUxNEcdpbShTa5Gwr/+ujYwQ65SOBkvO9ZkaEiEdICTePxx9SNsrvkzWhRenCicDZtAt4LJ1Dg5HwJxeitEGzMQwTtJxNf548NEMnwYqb3rrvK4XGDSr/CxTp00XlC7tpRB/fraedttMghAfIJrR2Sce65eUhSXXx6fGYCCd2lILEDMT0fZbz9l6TOBwcHsIHEQOvRujN5WW6kX46cPO0yWKpZ4cHBKeHcbNeZyovBFrsX0Dce85BKdHiqNi8K4xTjwQA394LMy5fwdu+2msvrtt3Agg/LBTlqVEVOZ2aHk3cwMS+38/rtMrsslcz5OQ7hP4iW33jrcLjv4ac6THyp1EZM7xZEaP/+s0NypzsmTpfXwAdTrddepxQABRFSK4qto0wSvZXGp1OiIEXI2MT1bbFD9uY8I4rmbNJE/Xm89qQfEqQ12RHn//XAiRZTULoqUvu++9HnCMfDcmCGCMLj0UpkePDplju6xR7s884wSnoBqoU8SYcRo1kzZiN13l9l1s6a5CoS5wVv82YgghgkLtdFGarKtW8vqoWkItqLw7pIlOpNUEFhmHLER6K0sYB8bNJBqoRbeeku6xEGYZdVtZBk8AoQIVmzHHWWYpk4Nzj47f+6SZ40CTxxNrRML4Ws320xRNX9duigWd22D0Oiqq8LtTODh7r9frhTfVkKIQHBLwJnQoXbaSY7hxRcVCWAiorcdIrWPOSY47TR1bX4dP01U3b17flQdg+6GSkA07L132PVuvLGAHeCSbYAfuBAMAg41GpEDX4z1aD7Zu7dO8rPPlH7IDiWJtuOH+JfY/aCDlJbgfKJGIHazZQnZZZfg6aelA+bOVcYlEygALBtXhz6rUyfcGYXSqFtXH3vuOVn4nXcO9yfBfmL/q1cPX+YCoTiBGSWA1llDSJcatC1kfqosIHzHvdF1331XPYEG1LhxeFMNdp/G9PXX2sa9JQe6rr5awW4sDfjOO/IosZm6MQYNUsX06KEnmiUhqKWX0g8feijcwzH5Stu2GksrKjR6lBN946yz5HTHjlV3peHi/pGot9wiO+X46it1tthQxQUXyB+jlLEaHIEWTwcePz5814F1Q33TjvkXz2olQJuOzRPG8NElXP+nWwKFjIXCGXNwXD5VkAxfqERCCqqG3o4/bt8+3F8S8PS5yKBUXnhBoQBndeqpakUxKIQaNVRxZQoG2qZ6lRGYLareWSVcwkcfqSMg4DJB/3vySZkqxGgJp7yVNZzqN9/IOv/yi/4sDi63oAb4s9CTIAelmwRxHJPLBloWyY6bR77z3SgoXfa//nr4zMRRo4o58s3X0RPO0zuwHgiIPn3Cl0k+/rjIbRh/SZsk/CstaAPrrBOWAOy7r/If2HwHtjqZRXCcf76+m8tjsx3YuuuvDw44IExNGXgolJY9QioGhhRTgxdIghHDOFs8ZhCETJqkjXbtFJUNG6Y0PIYuS7ctIZhlxC49yEXsqz0pUmPiRKX3ERP4QkuvvfaaPIHpdxv1KTa77abcPs0UK0BQ/vPPBVwXWgQHH4MTtK518MFS6GgOVIWbmvTdd5IvxmOPSeB//71O0khmDvhdfDNHoO2mgtI06cB3bcYTv0sA4bo3DZF4CDgUbTQac8eIOmYEFuYJ4ZKl9DCLFLtRrZr0BLLaIh5+BVVBaM6F26NRijRwi+Ip9P4oRzSxUSj0fOwyYQEuNlYUOFoijB9+yK+gJC6uQuFhv7LEiOedp7x3KvXqyVLYI2UoFuolC5wtgpWuTstB3FgxTpmi6qa+OIeS0KqVQr1+/ZQuirZMoPY5f7Tp7bdrrBf/xBUBLRbvAkhYehmuixqPTiZAhWD47Bakv/6SfETfE09XqpT39ooi+chCPKWbf54LtAR8HirzvvuCli0LjN+VHDrO5MnSDcj6a65RcVmWglK99NJs0W2hjB5dwOVcfrl6sYM2g4stUrOhsVHLsackrVzop5jNQsESIp1j4LOx5JhEIj0L9pA1tFIiz+Jx8cXhmBGgGI45Rj16zz2VSgfazxdfSALSkQ89VAkSNPr77+tH0S429STJEUdIHNM8OFvCRTpaFPZju/gJKhr5wkv+Lee6f5UjLjXoV9ZFDWyl0544A5ycDernyG23qZNjZPH9Ua9PXIutTJ2sS1tp2lQu1kHc37NnuB2lUyc1iAkT9IFMxMwEDBggxY0jt/lEP/4oL0XL41+MPhfoEozsdDODkg9Qo+3i4Wi1gBdv374Qc3bkkcEdd2hj5kwpmOidykk4SUv7o8xKa1QIJ9erl5QcjgovhXWgo/70k+oI6NK//SYVxS9Sv1Q6vR03jD9AbqInUq/uiitUWUS6eNZly1Qj+HuXznU1zk8g4ZPgbzAruORddw1dPg6DGqFJYruxVm6gxA7FS4uc8B+YtuOPV5aCq+BlmzahA6DGp09XEijLVBi8Jo18zBjJPuwLnydg4qeJw5o1kwohREMKUAJFdecuObf55gqLs4Ogpy5691YtRCF0e/DBcBv3yclgT5EvlImz5vDCCzpVztP5eyJFfBhaubTaTBQafCwBQGd59131wVz49FPl/+gpVBBQfTQ2g/LHqtSsqdOmlSKtrroqHOFGWlECiDPqGllvLFyoeon+Lv3UgqKygJDd7nWkbOk1BAAxEKyoGfoCjYr2k51p06ROikS3bgUSBtlBaXXsGG6nQpRFXUQ580x1HyehGjeWGLos7555AhuzgUSb48err6GPYzdwml+Af/4JPb1Nv0AiZJ9YFgVji5Dt0kV2snt3dYonn5TJjQ57ZWLxYp2kZSk4+Vhv4kzoI6npcM+KpIDUyDRqZXTurDw/9iLWUoEmQgXjn2htuA3nbKKe/sMP46nILJgjRxNgkrLcmpwLtFdkDREVsvfuu2WgjaeeUmKDboblKgnNm6uXAsoa74Wu+v33vDci8Bn8ipPJWKuhQyXSLRqoUKHAE9+wXOxfYeC/qZq2baUV3npLzjI2F92gfunGgD+mV+Mz8BBbbx0mqKPgLbBH1KATiDgMl65AvOKxKIHtt1f9ZnFUaDKbiYL1tA1As/75Z/yp/kBQguxAuOy+e7gn6vVpS+zPNMssCk4FG2fjOK1aZdMrSWb/O0Gs5KAnKCLaBl2ya95TCFFFHDx1nHHgwDALgvDFJVA1ybR8McAwUOnUNfEuB0SfJUFh03opYfwxP42ApiHRMPC7tAEUKk6Ig7CT2oyB+uSLI0emDO3RBWrX1kVdc024B9hu2FBZRgoE+RV9yyYYZmfddWWOkNT4UcADPf+8Em9ROD6i9uefw5cOxMHSpcqnFgo+kpPPNKRCkXKqsVtAcdUYJcIASwEWDP1kP02cAdERx4/CCVPsgDzlumgAdDQUpw2zJjk47wZUroU+iN3DkqPhsEt0w88+Cyds2Yh2JigfNxkcjYtTiGanUGP4AkILhCPn07+/jk9PJ4yhd+y0kz6A1sEYus9jBjkfZHTspjPKIUcVG4W2hyhH8JkwRan06VOc43hKnXhWw+Y9AF0XDxp9ExNGW7SsL30Dh0rLxo5E7z4CWthpp2kDIxKLrpYvl3COTZAknCXKx4bi6oj7Uy1aFIyXGyN0YJpxJLRpDpUcQqaJm32JQosnFk9maHC0tNdU0Oz01dgwKp6JyNjBd3Hexx6rbDk2mt6Ic3WD9zHoY3QwJDkRgMM0VjmE6qOOYhYhFfwKXsRy/gZOCAGKYihSwI1GwfiiEophLChVlB8u0CmnunWVBsgdrhSzy0/jaNG7VEr2a7epXjE4AUQDF1J2oAZefjlUeEY0g2hgf+nLNlJjvPiiGj9CPNMzfCyHRB/JZbXoBx7I90CxNDunN+PfW/tinHOOdFLuo3VRCBVwVBRsrVo5KUK8L5EGdgAdf+mlBab9//ijJAigfrbZRsk2u2QEU+qcib33VnuODndGsepIwocRi7Fcl52Vg3cxvJwGeuX88zUL4frr8weLnZsnnqEfjR8vhcGpfvCBIsCo6H/wQU2NxNN/+WUBhT1ggARNKih4LBWXX6ho4/TefFPaN9MYdKEQkWKxkZLJx3KXFtTp2munR02elUJcatDtaXD4CZoCRhbzSuvcaqsCSp8WNmxYNuuPlUcQxEYuoqCmaax0ITo8DskG4Qz6dnJInkb5669qoNjHjTeW7T73XOn3yy5Tr6Y9nXlmvgr+7juFPshqzGjqovuVKxeIsXAGlohG18NLLylQcI+Hq1NHRtxuHKc/I7bMXWE1iAwQ4/izZGRfVND+c+ZodJOrQIr5HlIWfPutZuAXNUlGBOb06JAh6hpUN+2Hdhhtt266+2abqRNZIzFH4hLLpQVXYakOB2I3+kxA51H46U6d5I2mTdNLGu0RR0iR06EQBLDFFvnyiLbHJ/lihQpSzNF1Ix1bbilXhKtLavTyAx2cXow1IJh2swijj35Kgg7gz0wW8XfPnqoy9Mfpp2sEJwZd/ptvFEXg7KPDzQ40gZlVs0hodCxVLIiikCnq++4roMgN2g9tjD++aAOLBrV5882qPqfqssCHsU4IiPbtJVzee08tNnsMw1f4uSyG3eMpNinTQpPQ9A+PTCp0QwZlAR0+eruERRtEP3RI+gB2vEi0bRu/qYGDE5tGL8fZZTQKIgkTTJGMG6fEIAaajo1suukmDUsTKLgQkBgdRYIfwq6VHFzX6NEaoSi5avFkh3iUKBAlnaXh77abGknypiHAwWCvmzZVaIu7RYbuuqs+zLYlxkfkTTsdNEhKF52xzz7aSVNBQN9xh6Z80rRQzERdtGeCyKuukmjmKw8/rIB44cLCUy94MpzQDz+o2bRpE+6MQVtatkwRQnIeH+Cr3My7Uf/eQ2FpDFo7csqkSRL3YfeYiiLRq5eGhNyD6ZJcc036xKxCwURgplCTdHnqyA0B0N/btdOfyw0UCQqZuo4RTRqhIT78UE0iesMFEb/dwFK9ugadn3gifssVlsSN9Hk8awI5SQ2wWb6GpRnLFCwp/gBnX1RtkYQYhZO3yRB0fptnhFew+RCp97wkoZDQQMkbSj2rLjjLl1/WjUXPPy/nQXtgjz1YjBaOQ61XL+9zOeDSftFpJang/lESCAsHTQvNQfTJyaCAEbs2DnLaaeG8oiOPlLdzgSzqNjrnKbqUA2ywgXx5kcARouM7d06XVo6qVSW494qsc4Hajo7IFMq554aDpygkXG/0u/36KdNJT+RMqIW335aTRiWg7xE0lAMSzU0LTeX111MeyWxQttlHvrKDLbrrLs0932IL1Q4iMhpdcPC5c5WGTJ1Gk0rsYVwez5pArlKDWLB5cxky+kmmwd1VCyw+AVw0P+nxRHnttfAOo9yJzoMuNv/8Iwf23XeaNADumPi8WbMka2KprzfeCCdLEdAfe6zSJF8n7pIoHqecEs5dMD2UiUmTQh3Qu3f+TKz+/aXeeIkiIUpB0+Oqo2fOu5YHyv5MScfEiVKElEz9+pqpcPnlEhBffaXiAveAuDKFeCNT3pGqQR1yetnZf39dtU9eetY0cpUa8MsvusfMdxLPGsKyyOILo0ZpBnTPnumzf4xSv3UoOdiXicGDFXATDCAIcL1NmuhsHa1baxL38OEaFjnooPxJA7HFomI8+6wyGTnC8fndjTfWuIzNNs3lMVNjx+rD7dppyKPYTJmidOO2kScyrUQy5TZQIa1aabJIFsXm8azGFEFqeDxrGkOGaBj+7rsVjBp3/ruWjWXs6T1jxmhCz/Llitoz3eW4guGsfvxRM6yrV9eAS8y9IUq4ioMPll9MHe454QRlKXbdNXzpyR2bsR6lfv34HF6PZw3ESw2PpwgsXKipi8ceG97Rvapz9dW6N8HYeWcNj/79d3kRTKsoiM5339VduLvvLql61lkFpuZ4PGsmXmp4PGsuixZpzumcORqC2WKLEk2f9Hg8nkx4qeHxeDwej6cM8TdgeDwej8fjKUO81PB4PB6Px1OGeKnh8Xg8Ho+nDPFSw+PxeDweTxnipcZqwk8/abW2K6/UzYr/+58W2Tr/fK0K4fF4PB7PysXfgbIK8NdfWth2iy3Cl1EWL5aw2HBDPSboxRfDnY7evbXmy++/6zGvHo/H4/GsFHxWYxXgmmu0QPmUKeFLY+ZMLaZQp05Qt64WDIu9a3z8sVYTPeaYYOjQcI/H4/F4PCsYn9Uo1yxeHMyfr1WvjBo1tIJozZpa7cLtzJHddtMS2wcfrOdVZ1mYavlyLTG64475j+IuI5Ys0fL9338fXHppcRYK/vtvDQ9ttJHyPZ99Jsn1n/9oz7rr+mUmPB5PmTNjhkzlueeutk/XHTRIwSr2efvtwz2ZmDw5qFBBK0GOG6d1Fq+7LuUrXmqUR3CZgwdrY+DAYOrUvF1FpEsXrWKVytlna/2tJF99FVSpot+96y6tnDl8uJbWe/ttLYxOd2rcuMgL+tOyFi7UU5mTvp/DXnttuF21qk6Vn549O9hll3Sh8NdfWr+0Xj2dmEFrHjs2eOghDRJ99JGWM0UetWmjt55/Ppg3L/jtN60/vrJAI26wQbjt8XhWPy64QKsWH3RQcP/94Z5VFMK2mTO1+GKURYuCI47QxsknhwtHZwK7fcIJWvLwgw/C5QYJU7HMMbzUKHd8+21w5pnhdqE8+aQ866uvavvyy/Xvs8/K++6+e/DSS0HnztqThO5x330FnPqHHwaXXRZuG23banVvWxwc1l1X64rFeOIJ/VyfPulLc731VnD99ZIUTZvGBUSmBTCNU0/VEurbbRfcdpvW+kdAfPpp+JZRrVpO66Qjm7beWv0EucOZrDDoZv36yQDlkhmi/y1bFqyzTvjS4/GUK+ihRDJLlmjVYpcPnj49P6982GHBhRfKN/NHOJQlZ5wdAiqCTBdNFRtO+PHHJSCaN89pJfY77pATIcKsUyf44gvZW+K0qC4YMkSGNMqcOZJZRx4p+9+rV7gzCnFg7Ke91CgFaGHrr5+thf3zj+p+2221zOOkScE77wQtW2b0Lueem5MfhdGjg/XW0watytUr9Wl+nY3HHtO64TfcoJTA7bfnvf0vHTsGxx8fbqNXUptLjI8+0iAFIGM57DffBPfco5dVq2r5U8QKLrNJk/xyOPpoZTVgk02CRx5R55w1S6uUOb28gqlQQRbhjDO0TZfmfJxCmjxZ59+smYoRcYNWoLPxco89wg/kzoIFqmVAD118sUasOCYV1LWrsoutW8evndr5+OPghRfCNCzBQRS+2LdvsM8+uZYYLa3Yls7j8SSZO1dT5YDQhfhn+XIZ2Fq1pAxSwcjwF4UjYFIaNpQ9PPxwWdGZMzVq3LNnMHJk8OijweabB/feK7dNRIfXx1OkgmkaPjxo0EAZU05j8eLgk090hBNPVPQIP/+sX4nSqJFyxpwqUgkR8/vvwZ9/6iAYarfgkQV+vBw2LN3OnH++hlEMjoD9NyuKC0stBELf5Jh42UoNDB8liBEnPMUhrepg9ymtmDN47z0F7ngU/K554hi0KrdUN57G3PPJJyvphDeigs3PUffUHD9x6KF5H/0XPlC3rpJ1NC+k5a+/Klfx1VdB+/ZS0zmCd+fzeKz77gv3AB7OREksx0BTps2lsuGGuthbbw1fpnLIIWqLd96pMY4ffgh34nSJCYB/6WBcstGnT9C9u7TI1Kny7sWjUiUVS46gdahBWwieIuVK6bFcMqD/+IuWqiuiGO+/r3wjdicGxYvhiLLbbsHDD+uq7RcB0bn77pqCY2vQm40wqlSROjTN8cormsx71FHhEuRUH1YjO2PGqMxvvFFNq+ygU8+bp3HZVQt61osvqp9SyJ5VC9wbUTIxdMllNIaCllCksWBCLHO0xEsYtC5dZDcwGlmgv++3X/7ZRqPH2rWDvfbSB+rV0zgyYOHxC5hBo1UrGUO6WLduwaabhjvRBz/+qFypfaVDB+me8ePz3svjqaeCUaNkPeieqfArmBoMFxoF0Apt28rk4p5c6joJHo3P09lRD5TDHXfoqQqFggBKUvpSg+M560zfNkOJLzngAPmbnXbKe2MVZMYMtRhaau/e+d4IqUjTMfbeWx+46y4NZFCvCILrr9cnqZ7XXgs/k6R5c40OfPml0nE4iRYtCqQ0ULule/PIBx8EV1wRbtOUjz4639tRO7hhulDlypLexP1w1lnqBlF3WIqgwG6+OdyGWbOUfdl1V0kuFICNChnPPacuhBinf/IBygqBz076PJ0BqcFpU4ZopjlzQmGHrvrii7wvZwXZwRHoyQadisjA8eabku3UUc2aOlV+gs//8ovKBGuVFGTZB4ZiHH988Prr4XYUS2NQBRBVUZddpuZhLFigJE0sRel+Hbuz447KtAFSmFNF8XCZqVI4d1CQtJnRo7VNCBHTxOUZGvkLL4TWnC4QixaKyuef62i0AbrnGkXUtjvw3DfcoCCECCRVl5cEFDktDdltvPxyPOIn6Jo0STPJcvlp/Pfppyu1QOzerFlQvbr2JAMGBzYHw0J/pLqBaPm77/Le+JdTT5ULSO3Fxx2nDsi7yJQTTwx35gJSGFUBNWooIYHHbNNGEqHUQWoQEKZCOPTOO8qCcOYYW6QeHZ+KmD49/EAUy9o6iIpxJUmKLzW+/VYKCyuMW3UgkbCGVPxFF6mUjz1WLiFKpjCxJPCjhJLEoy5pwzWhxTJJYEL8p5+WKUdd5gIajSicRu8C1h49JCG59nHjVAdZoLXhqzIpzSiYP+qScgOCbCqYDoYsIPYtXdAQ5sYMqg9HixMiJnYm+LPPJK7B5Mi114Zq2kE3wO8SIyILzPdkAv+XKnLh3XelFTLBWVFNFB01G/OR1CAmILVkqHqKkdq/8kodgWriYjnJ3DNAMVxHQkTatFPH7bcrduE0rElH57qWEZ06SYVgKxG1aNy779b1duyoOsUocMkONBmtFJvVpIleWi337JmfIOWikA5Z7GwMdFX79uG2QYzFyZj9KGGnxuLjq0wblQWIjIEDw23UGx7L3TVAA6OUbD4y7Yoiwkkcckj4bgxia0ywHeqYYxTgrjlQR9iEffcNbrkl3GPYlCzYfXd12GKT2pAuvDA+T4uWH23nJq/pCC7ki0L0wunhj8zOYFHpLA7M3bJl6hH0a+IrQgiwhAcdCuuUaWa9g/aAl8Ey8OE+ffQruLzSxXpuJiguK7co99yjYjGzjAosKrGZGTTyQYPC7SRW6bQN5AXGBJuTSccXR2ogJDfZRFMX6ZlnnKG8btOmqiF+slcvBaaA30LxYcticN40Vn6T8JF3iUFxWpng+OgVCpqPoWz4ldSwzNJTSE6Xo7766mDiREW9G28c7gG7G4K2RYeZMEFhH1o11rIRRvyiC1ZoqWi0aJgbZdNNpT+AS8DuYKRKCFeHj8TMoaPLlFdf1ZBWFC4hmvmnaiwJ74YnKRbCQT5DRUTDa+qINr3FFko5ULNEGHzYVQRiDoEci/V5ueeeirNtBHTFgIegAdBOkg86S4X2bKanUFBCl1wiOeW0/FNPKUE1bZq0L02o7EBFuYxoEguqYjjZZ96Xc6aFFwrNIDbXJ8oOO+hQMWVPH8dC7b23jBFwkrQ6qh6bTuui+1tftmHsl15SM0PK8IESqpYkNNHYCDTSEymP+qQAH3xQI1wdOkh8uLnDmcRxtCUT840cGW6XE4g+udhi3DruwKBRL+utp/qKhQEnn6zMLmBdjzwy/BUUf5062jCGDs0p00NPxJ9R+BgH3IfFLYRVmItbb5V3rFkzDHVipsOweJW+jDkiloDUWx5ogfXr67eskaMvUeqp0CY5FGdi/aV/f4WRhXLNNcqRxJgyRbnhYoBwr15dpxqTVjFouvhQ5PIzzyjZjMnFPVEjjiee0Li8A9dJkIB9vummcE8S7DBHOO88GatoNGJEJ8DSR+gpVNB118lX3ndfeNq5UGSpESvKVHMGuF58D1x+uSKGaFlUqKAugXmyUR9MGEpw3DgZ99jwCtrCDfYDIWOzZuG2gWJ44AFJSwPfTzE1bCjrD5QIEblZBBN3+FeCOdfgkBp8har69VcZSs6BoxmPPKJa5EpTH40Vw5LJpngOOED5VS4ZlxyFLsSZWFiMneWPlsq1xz4GSDQcVZlCJEchYBdc4oueFtV8GJrWraVPaXnFMP00WazVb7+pSyDvzCgQoGDFqGV06sqCU8JKwkUXya7RaRcsyA8a2IOMBupl111T7IjjpJPyk7oxrPqQ+WjuJk0kcXr3lm5DjtDV6LRmrx308/32k72OxUM0PxqSgec7/3yZ45LDr9CkicM4E5vSlUxKGwgC5Aj2N5bLSeXmm3XYqVPlMLBNtWpp3ND0x4cf6gPvvRcaAfom5glHQhEdfHC8qWP0MxVsFjgUTdqllwyujmZMO3TDuLmD5qAxPPaYhrHpFxyWnsKpxnJ7RFZcaZnCdeH+k08KppBRFdFpy3ySysWU4Qaefz60nFw7MVUWZs5UQWFI6aTUtU33M9ABCEEsKjX7zTfxnBY1S/lgxHBmDkQbjZmyonXRfigxuoNB48fsc1a0as6qUAl+993SgqnpJU6JvumUvRHNly9dKlNDw3YTINBJvDRwCnRMyx/nDjbBvDVeieIFuvaGG2ojSUwh1aun72IMsTZ4IhwNpdSnj2QQ9pBCptkbVASG4pxzdO1IcxcX4Y/wFDgXPEsSYhubAghvvpluYEeMCE8bKYMnxb5ROMgLjhm7uyQJlgf7AxgrHAceH79PhdK/YgFGFlKkxuTJylDhC3v0kERFE9Hm8KMNGqguUaPZZwVG4SvufstocWQC9+amqMTy/AbSFb+OaqNX0BadyEiFEqS5u5aRxMmdVGi7sTkKBF44J06gShU9fspo3DjMs3GoiROlo+m6aE+UFs4GeUG7IYIHaoirYztq+Ojq332nYTMHNtrc4QqAX8drUtdZZpOsZtA9LJ52jB+vWR1nnqm3Jk2S+iRio6ljtY86KvxM7dpylgY2gqiLek82HvQB1jbq8GIsWyZ3hWVB9f74o0ITaxuAgcZ4vftuWBevv64ToN/RZi67TIYml1ugESV8PZbixgdH/QHQPk1nGC5liuy26UFVq6rXxyaj7LOPLN2ll6oEnOFOhZ5OXzbopB99JMGRY3adXokWwVximcaM0Y8SnERB0LAfC4AuxDTjHbGAiMizzgrVzAcf6My5KOjbt8Bd3JR2Utxnh6IgBMKCp0LvvuqqcLt40CRQ4bQZYkS7oQzQgjRFTBxFTURkLtxByZhpohW5usZopGZZiBYI+gkbouNTqAfsDJ4GaUizzwJfR0/kCDVF8+bMnRm3/BA+hfaANS4SLVpIzQB+EbH+3/9myxzzLqVEhI0CQ1hQqoszzNwkLsfoUbDff69TzZK8xH9RqujO6C0YQHBCD8rSzdFYuHZOHhHPmUSHeqk7+jhXlOk2Ez7gjmwqudAnWwC2giaK3IxF46XCH3/o1gTA66VqnVyIS43+/eVKjYYN1ZGisR0Bh825yxFiFycesaS5zCNz4jTaXksdS9llJylELFVuYPfNZkVniRZKtBlFMRVMR8XERG3KCgDDjTZf0ya45QixIzE9YRDOAKO50UZyyTYqh/PGMeMMog3J3X5cKBgFSMYEtBAOy0HsV+g1fIY2w37OxMkdB1E1ftc47bQwe+dmjdAy6bAIJvxubMgMkM5unhfRBRqLKAILGMu7GLR8SxY68By53OqCmX604F05hYKJJ4hEmlhwgk3AuGO7CWcpBMswp4oGvojVQnBY8UbBrVIUW2yh4uJ8YvP7jOzj4plA2QCuLovvyQTVilKxSX8dO8qBWQ0anDOCD7AJ+FHXGJ54QmYnd2hORG6jRmlMhLgLHxy9E63k0MzcvEWUnxs/hcGDFXSV5OcskjYoDSRCFggFEZ1Z5s9dfLEGR6gsgyJFNLvYD/l13XXaIBohUNwsb97GrFlqNu4ruUBp4/sJ4UoIKpDWjtrONAFihUH4QddA9BSbuNSgoaR2wlTat9eIw157qZ1RZ0A90dVNAUEsfUcIwlf4CT5D7fIx+nZSMtuQCipn4kS9xEpiEGPpMgeSc489lN/LPj0zRjTqioKrmDZNEidqqog1MQE0HVqesybOmuc4PJkdrvGpp5RGKvQRsJ5yBSHRzTeHYwTR2UJlB+0NQ0bHwdESkmITkSa0W6yAs4b0adpntWr5qVH2uBQd+sAifr6e3XA7NtlEeYJYNgjmzdNpRKfplQWYAuJ1BNABByj5XDxiI+vJSQA2zZaqjD3LLgniCfV21lnhSwIqtMu55xb+xSh4EXwwVYm5M/Bnc+eG20moMnzkvvsqFR8bTU/lyScVRcRG6C+4QKn47KCnFy0Kt2PYXGM0t7PGROfVq0uGfv11ukVNYrrHqFRJUTLelNLjmPgRGi1aIVpTVH3FyFOtYhNFkdd2e0gm0DrPPSenRsvB91OMMUVIPNm4sTYOPjiURIhR3JnzYp5SIS41cHgDB8qQRSdJoCupXSyag+ZCVNGvX1htVAwV9sUXGqJjDzKflnf88TlNUOrVS70CX05Pc+FUkybhNG8XqHHwdu3Cc0DamxR47bVQOXIRgwYpzGrRQiMmfGDvvcP0L1qHnoDK4dIMOhs6EXX/7rvqtPzEsmUammGbbwEOw90FRESbKmKwFNgIooTcs4ue1ZWFC2XRDjlE013LLZ99ppZPX6DR0kcAE0xIHe3XmYgOhCcxt40XbNQoPnaTC+h+3EkxpmhEyZSMMXBgdPBowgnHQ9hKrQFSCYtH/GO3pbiHsKVC+LTDDmFpNGhQIP3ev39oQLKAF8en1qypVKLLH5cKu+8uN1yrlhw5otMuNnVaZXbee09fR6aMGBHXJQgCk5V4d0wuemvTyIMfotNWDjtM4V+0cPjuqFESDUSn9Jfs8wP4FUuTREcYDUJBQlCXukD3YNszzeLEKVBZgLm29G10LMNhpbTzzhmH2j0lJ31aKPvQ7JafxBgRVUSTpURC1A3uPBnlFA8aJYKAhhjT4GhemruzcTQy1C6N5uWXdW777x+fI23wAb5C08eUIBRsoJcronvQRk86STaxUIhvEByXXqocDGbI41mdwMVidnGo9ItMD0058kh1MT5w+OGFJNsmTVKXJKbHVX/1ldL+8OabcqVuSkflykp54o3mzVN28McfNUUGse7mehOu4DOw9TadvKgQrRLeWPYbiCvwuIQ6eFzMSCb4zJQpctIxIYUtIoTo1Enhx8yZmpuF8SGqiYoVICCJ5bH69lWW1yRLKk8/LdsCNpPMiA5AGNRO7DEBmcA6tWypMscgJ8El8649p8FxwAFSPFhd6rdLF30XuUmTuOsuaWW79cOggtiPMMJsYjxxBFnmdHMcm1Vt+SGLIaF7dx0h1VZnAgHB1xs3lnhNhVATe44bsqkDfJ5yQD469caZo4RyHHfgUAgXLj96N42ndEmXGkDP//13/btF3uRnPkU8RI3CsGHhIFapQ2ARjbH65d24H4XOuWTJinjeH9f7668F7pX1eFZL6FMPPijBUb16vmW/+eaizcqKQt9xnhvFjw2hz+Y+yBjNKdIBiYAhOi3Xps1yZKzQd99pqhqRK9YJ3DMeSv6crlzgulIf54BMQT/hzlu3lvcy7WX06JE/o9wxdqxO+513ZADdlBoOguJBLVE7ybqwvG+NGlpqJ5dYqF27UMPZHXlRKGFkTeosRTz6X38V4Xkn6BIkAhINebpsmYw5dZT710sIQWbPnlKrFHtR5/khOmM60lO6ZJQaqSDwFy/W+FwZMX++xsl695Zh6tp1FX60qMezyoElaNFCcTC+cKVPQ5s8OUxLEJE/95w8sa3tl10DcQl9+2q6q3sSQFlzdN5CP6eemn9fotGli87ExnSik4URc9OmhdvGxXlPfeBi33hD8wPckMQvvyg3w4XsuKPk2ksv6fJtovqQIUqcfPaZ0iGpyYwkLi0dm7NS6kSF5oqHgrIHspVWxt1TWhRNang8ntUYoljsQZEm26/hTJigXC8x9KBBun8hFSeP3OiSsW7aaslZoHbee0/ph6rFWk/q1181xnTooStTCnjWWLzU8Hg8nlJg9OiMd2G8+67cfPI2OhuS9nhWe7zU8Hg8ntLBPW7H2Krg6n1JvNTwrCH4ES2Px+MpHTp2zH9Oxp576tnSySf/dusW3mpnD3v2eNYEfFbD4/F4SpNHHtEUzocf1qMafvt32Z0aNTS51Rafw+hOn65ZF372omcNwUsNj8fjKUNQFZMn6+4SPx/Ts8bipYbH4/F4PJ4yxOfvPB6Px+PxlCFeang8Ho/H4ylDvNTweDwej8dThnipsfowbZrWsjImTtSSCh6Px+PxrHS81FhNmDJFKzydcYbUxqxZWoOxbVvtLBK//aZFBJAprVsHn38e7vR4PB6PpyR4qbFqM2pUuGDjsGFag3HBAi3R5BakRjTA//6nVRazw2ceeUQPADj0UMmU0aODhx7S/sWLdXyO7PF4PB5P8fA3u64yLF8ef+DPH3/oZn1o1EgLPyapXTto2TJo3lzb3boF33yjBydvskneewV55RU96DDKOutoLag2bcLFu0eMKOUl9Tn5Fi2CH34InnxSz1X0eDweT7li0SItvlgqy+t7qVEe+ftvrQ39f/8ncbBwYXDIIUpadO4cHHGEnjDIy332Ca67Lnj77fDzmUCaVKyoIzh23VVLcseYPz847jitG2kcf3zw5ptKhCAFHnss3NmkiZ51WIrcfXfw9NPaWHddJVH80408Hs+qxaefKmTabTctdrP6MW9ecNppWkb4oYeKYJ8RFKkf9gMo5Y4ZM4KTTw4uvFCK8qKLgssuCw48MGjfXmMZr7+upx3j8idMSNcZlSvr3ypVlOTYZRclQqI6AyZPVn4iRqdO0hl89513gn79gltvDapX136nM+DFF8MN+PNPtacS8v334QZHmzQp6NMn6NtXGouuO3u2zryoUG6XXBJcc430mcfj8ZQpY8fKSl99dXDuubJXzzwT1K8vU7aqgxEmssUIY5DxQZ99ptxzjrz6qgphwIDwZRSf1Sh33HmnFlCAffYJvvgib1dmDjggmDNH955AixYaH/nuu+Cgg6QraShOK2y6qVIXjkMOCe69N9Se1P/RRwe//qqxEr5uICy6dg23b789XB0K0DdIgWbNgp12kjgYMiTYf3+tjt2li1QRB0QkbbFF+GHgR9dZJ9hoo/Cl48svC1lrqnZtlYMbMEIeDR4c1KunpM6bbwaXXx7Mnat+fuih0hb0iqVL81fo3mQTdXuua8stwz0ej8fjwGZuuKH+cmT8eDng/fYLXwLaonlzmT4Di4RFhZo1ZRiLCpHeAw8owKtTJ9yTIxh5nEX//kpXA0Zv3rxg882LkISIgfs444xw29G5c9CgQbgdg2JZtkz2dvvtg2OO0Xc5AowaFTf7ZS41CK8JW08/PXy5WvLLL1JzeFmc3MKFQYUKGv6IQhnjKffaS6k2A0/ZqpUE4GWXhXsctOAJE8LtGBzWDXNA27aq2r/+0t0iNNP11w/3G6iHo47SRuvWwb77SohUqZKvTxETO+6ojZEjNRaz9tpqHOuum/deEHz8sTIEsMsuGnBBuxg33hg88YTyB1l48EEJIKDRN2oULFkSnHRScMMN0hxAF+3RIxg4UNtAgUQX3Y5Stap60euvBzffHO4pKgiUSpWUp6HRF6kFUsicFSfw3/+Ge2LwLooqddYLUN0cIdN3PR5PkfjpJ0U1GMYNNgj3FBv65rvvynIeeKD0wZgxMqEVK4bvpvLhh6GVjs5X69VLk8xSue++4OCDw21j7Fj9FhCkXXBBit0YOjQM566/PmjcOO4+UuFC3nlHgZaBxUZeYHsfflijHljgceOUcXEmPQuc3vPPywtsvXVwyilasicGURynnQTX0LNnuB0lVZqUrdTgpDl1QHwRSa/qPPWUbtMgfI/qPlwpomHSJMX3lG+3bsGpp8qv4ybPPlsCE1CdpnlffllxOdxxh2oXPvlEjWbRIrlD2grbzq8beCz6GG4bZ0m7eeWVMFeBeqBVZVevHJx+wglzEMQmUT5fp5MAp4H64es0VkQGV0T3c0yZovYKiKGuXaWissuLGPwE12vy1uDgFMWee+pkfv453AkIF0qPk6HnW4FEOe644I03wu0c+c9/8gdfWraUzjBuu03XYnLHXR0Hj+ZgHHQVJHLt2ppQksRSMrvvHs41SUIFEaNQOzVqhHsMOv+sWcEJJ4QvV1FooqjY0p0j7Fl1IZIkciCiLaMkojOJmRxe7mAZOMinn4Yv11tP2VBIhuBGNDEMxx6rFC+BJcfBNBlEXy4BbKCHMLN0EBtM2WMPWRv33AG+iC3CuxPF/f13sM02wdSp8hoYB+PII2WWiXPOOSddKFAgBGD4l+hgDadKKHv00TpmFMQNgsPCHgIk3MGZZxaQMnz+0EO1wWlTzrGnMdWpI2W2336yZgaeiJj2t9+CzTYLDjss3BnDdE+MspUaGPr779eGpfS5ZkpwpYOrw/Nh8XOMdJctU2uYPDl/HGH4cA1JGPizTMMcOFcieBqiC9x33TV49FH5YJwxHgtoMTg8PC69iG7Ah198UU2BNk0jNnEQi4/xysAHaPrF4P33gyuv1Ma55+p3DbymLW9tuHtbrBPOni3V0qVL/l2v9BC8Zgm5664CCUPUCZrskkuC884LW3+O1KsXzlyhG1MdJiOSIDW4BCzj4YeHeygBKwo3oENYgBhyjB4te0TvWrgwTFHSMznDzz7TdmqPAqsgIEC58EI1A36Uq6OugWvce++8t/8FM0Q/R/Qkj4aQxTCNH68whUNtt124fyWCikJwczlFqqPyAF34hRdUjK7zFgPsJY2NLokSTa391ZiZM5Wy5S+KRdJbbRW89lq4p3SxtCtkkv654/ITMTAI2KKPPpIKoXmYvcXs16yZ93aEDTeUbXQQJmEusAM0CeKlk05SeElURqyCyzvxRLWW++6LKyTsA+bUsPRDKpg1LtzFQv/8I9+Bs/jpp3BPjmC48BQ4KbuXkHiPs8KqoHWAgBNXEgUBgYkbNEhlhRSz0AjfTWngN22wPgtJ+2bkJDUwr3SqHLM6b70VVKumOYaUphs+NzgItWJQHygjWi01VMIey4/+8EOw8845HWfx4nz3hqPlVLNDBePAohMdAFO7777awOXQ2oCXxXvmFYGvaQ4CbhTlEUfILREi4BQRrdtvnzKgOGKExApNPHbva44gyWP5PUh6TXQ3Xc55TSDQpwsZVC4qZJNN1LBowRQIXhBT/uabytw49t9fIzuPPx6+dCDyEOBWhqngle+8M9ymq/CSihgyRHXXqFHY260WqHoa26JFyuZxWLwIxoKwe86cAkYhE1z4778rkkjlnnvU+C1Liebjhzp0yE+0NG2qPcQNa68d7nnqKX0lxoABilpMncC11+orQEWjRBETw4bp5fXX6zQ++EAlg76hyWH7+Bcj6HAWKhU6At2KDkUjJ/Kw5kFQQpmkdv6iQlEgyNz4NNWBHezeXclL/o15oPIGYpGCNSjY1L4zYYKqD6sVbfZRUOTO23HJNkC5hvDNN4qzaUg4vCg4Vwuvhw4Nk7ilCF2jfftwG3CQO+wQTlo3aJMYNMtWJqGJ4mXcFDSXXU5CteJNDbwv1iyTLnEQ0txwQ7jtsBvrCM8QRrGMLHbbtcBUcCUueeDgrM46S10buxrTBIAxIRCKpl74MCoBq1IolSopWjDjE8V5NwPBZFHlxhvHbzKAU0+V4cI22rkh5XfaKe+NBIVLDYwdLQw4A2JZ6rV3b1l/lwfm5zHWOEWgam+9VbH4668rLE7a+jvu0NlQOm7SAAKKSDQVHAZuY8ECXU801oxh9j06qzEGfgh3SFCL76RW+vYN99MaMPpIBE4Ab0HLoLyIL7t2ldjE9UZ1SQysDLaGMiHIA75LgeAOMfHJaj7+eE044BKi+Q+OHyt7DoWZowXQKEsov7LDeUbHsyg9F+hnh8ZAz2/QIBwXAy6B3u58LdAY8I744BYtVOA0GEoGx++ghbjGk4Vvvw0rNJbenD1bJoNOm8kfGAQl+Hi6B5/McnVIe3cvTBQ3kbZq1QIjQUloQnR4I/spGZhFbAoBIn7anpMWg2bZqZMKGS0SA9NGgRNepKY3bMSXpouswQFcfrnGpGwwFQ9Bw8bOOheLlKQvINCJnHJpbCiMc88Ntx38nJmYM87QLGY6NZdW1KZL38SNNW8eRpPFAytEI8l0BHMAjmgOj8rt1y+49FIFl05JI/SR+zFivQbLEFWBqz14FMJIiJYevYyIGUMNu+2m6YG5Q0vGnaMbiKaIntu102Fjdj61Q0UF9403Kk07cGDK8A0iw0IIehzHQTdgsS1/iZnFvKAssWO9eoXpxiiEoPRQGlW9ekoDYO3xQTGIQJJ5cYoCcWDRYxQcGX/0IKfUk3BdeDFig3XXVeFYCpnehNN0FgYoZ7ob3Zmejn2LqjEiVT6MseXkCfOi8joLW22lOI3GbDMOiaaimE9PZa219MUqVXS2X30lVZDlCRzpUgOhgPPANwPWDc8HNpw/erSmGQJXggvHkLGTcBapS1d0mSICdMvAU+44G5sfkInhwxWN0WiOO66AkEQruedK0RyffFKSNgpfpIE6MsV8mD+LKfk81iQ2HAUUWZMmKjUHhp5PctrRuT9cEVrBKTvOdto0tVcKBMtOKeEUOX9qmnZMG0V/1KghK28JodgkGmQKF8ifw55jcdBB4ahTmUIVI7kQkTmOIpUEHB4dAAhKMNalHvoUCq2LLhSFiuCsiG5TwSWjhjN1MDjssPxHsgL2EU9JA4j10rIjmYVC8BU6omHhGtBzsUoGZhpjkR03oJYJbMWbb2oD8YRlyB1nTwiGcN6UZC4T2WLQu4lYEAdmLqZMkfnaNm9SFGB2Tzop3DZQSE4rp1p/yhYLjtSrUEEKxno9YSVuIEqm7MhKh/AJo7/HHuHLUgHd7waCKeeKFTWETx+J3nWPVUm6/CiIFSQLpYq9ddkRgk+8DE4EiMixunh3wj9qIVVquNiDoA5dDigDNxbsQATT4GNwTJRldBIVXiOWfY/Ch9HQgHBHnUfJ1NQRrzaZD29F3EWojEknnKNh4xqwgQgsgk92IvRpq3RG3DlOivaPPKKI2LAhVxxWDK6IKC7a6uibmHHkVJ8+KTPPnNNx9zOiTqi76CiM+a8scM6oENhsM6l2ug+SiAbGj8amo2UhLjUwWJyxRQDUKC+dLOL88L5XXBG+NFKTKkAT5M8G8PgFCg6hR+hQKNHeixe09mcgnzkmDpJDcZLoxxNPDN8yOG30KTYUcU2xcqqEv0S0VGQMKt4MXBb4Fk1w+nS1ToqVZo0oZuOqq8IPGOyh+nNxn0gxWiHSDy9FwZriRpzFRl5S83KrOr/8oqaSyxhcGYEjpMFQiaZ66e1YgZjkx0BYfGOatWHDAjNYHVQQZrdx4/ClgVlxvRfHFlWQBm2V42dKvNHSLD2WCnE/cXYsH2tgmr/5RiaGpkX7zM4uu+gCJ07U5A+nejH92P1M0HnvvLOACufCsW7JvKuBwsbDnXee6hrHg8/AngIhGs6Azli1qnTSvvuq4xDLxhJOBx+sse0coRIxF9g7BDodCtjYfvv8aiWOJB7FJVg4HgVpQqhA18OmJbNHwHEIJDh5rEpyzN6gMEtl8hmmBrmD+Sbcoty6dpXNKR40BqrMPAdmhMvPdJ9UkVi8WDWLBcsOyoBmTF1TpC++KAFqgg9rjE2uXl2GN0cQjoTyFu726FEgrCf8I7KfNStfLwKNIWZeYu7DoExic7misjsGkYMLUbiibt10gTQJXDvihsaWatAof2QEoJY4h2XL4vKLPXwxF5HKVUeVHEIcRVIk6GJ33aUAj5ZA9bkTHjNGje3KK+VVoznjVNw8AUKs3r3zdhWduNSgKTz1VLiN8sJYACKDv+Q9MIVC66SVOFCvGPqzzlIXxVqZHImBTrzuOvljwkqb9oi4szuFgJisGKeRBNODaU6KWTwE5U5bnD9fZ2JzlalsetpXX+lyzATMnp0/BEB7wmwVG5odrYEjO7B9yTuFPKUC9Xh13txkm35BF6LLIUHYwETi/IiECN9xQoD3ogWipNHyWH/8FrRoIcVMM8CK0etoFZY9djRtKjGK+qTl03RpTjitSpXCdwmMXGM2aIRYTKQq0uellwr0ZNfakT5Tp6akcKO4gR6c9+jRebv+hYPTmwxMRnI82I0XIMWIvTCCXBdyBFXx/PMF3ANFMXSoNii3LGKdfk0XQyGtvbZmnwCexoYbCIUpbXoNJcnBk5aLI2dJbNjEPcqTGkkNXVBOqZKLY2Jw//tfTTPMBO/iXZBiUWmVxKVsOSYW0lVuMcAr401toBkzYulMoin8Geo8S1riwQdVp+3a6WM//ijJ1by55KNFn1GIGKlW2nahk2mQKRxn9911+USJc+eqv9CMOT4VavdQIB1mJG5G48MmyrfZRv3LZnGChZrOkhePrbeWFOPciPjx7pxhbG6mo1YttVX6JpXi7pBHwHEOfB14i9aFNo3hMlu4Ui6Eg+OYad7FFnwUIM2MoitJ2wB6h2VrCJuR7ysLLCGaiVZEq0sdus2FAlIjdcIg0AfmzMl/XiTmBk1HXIJpM7sTBduKTjSiiUrDhBUil3ZTu3Z+ZiZK5cpy+fYUKeKwAQOUgzJ5m4SfwDEMHJhNL9PHmjXTgIWBuKbJOnD2dFdiKbStZRqIupx6oPMkzxDwQDgVLCmnV6gqLJQRI8JMBrFv+/YlGrT2lCI0V2SlS8UnQWdglRxUHCID4wj0z9R6JJLeeOOwzSSTYVhqPDRNFOmDpaPR0ibN5WBrUACFQlvq3z8MGHDGZ54pN8PRXPt3ELG5ObzuliIiNq4IvwVEY9FJNnR2TpujGZwYvTgVztzZlTp598sVCSw1wQbY7cE4KitJN/peDDBE2Aq6LUrFTRSLYhE5ICKzjCrWqKHMP57MwjB4I8Mt04WCnUR6JlOYWEhEDBEINhC316ePZFl0KAEBanY1NVqLgUnHPaNdsFTUy6BBytagd6MROZEVggD9PXNmuCcVrCIakSZx993heBlgNmm0CGVLpVBTlmHKBPoVrYkgJqTG8JoKOfRQ7YmOLzuid1q6uXEOroLu6RKKXCZew6ZdA16DlzBpkpp6w4bp86MpZDodEoRzSAqRlQgetls3FY7Ne1uJUKf8ub5fDApIDY6FjyfEiUITp63feadyEgZN1u6TQQCiGdEctAbcM0bBplU2aqTtHXZQ1JK9gOhO/Bx6GZuImnZ6ghiI0BBZzfEt58yvU+gxaEb2FYIDzhANbknm6IOhaDr0WCwpsQ6KhLdor5xkdhDIllaNTvqLgeEj/iu5zvCs0tBrbJIEZg4nVML2gHbB6uFQU5sowdlZZ4Xbqdh9QzhL7D5OEQFtHZDGTJOOgQXPPR+LPLI5W47x45WSwVVUrRo6CUR/6ihPdipWVL7BuS4gmMEJOSzVxCU8+WTK3UxGzOmi1Ti9KIgDm7HBca6/vkDiB79O1NigQTjW4BLgQG26wAnQYTZ+innBv7rxtU/yno6DNYs9Ri8LuFtET8T6pnDddeEkJyBKpqAAr5l9ZD0T1BS21Ob2IiUtu4ZtRLjghjOpxijR2QkffKDWRZmbL8ACZ3rKQhRaERWdmi2gKJDI2HDaJFLPqQcMu5snlJxXQZvEfWR63kZyVMWzskifFupitdq1lfakZVCdNsRFS7VHEWSBQHDBAg3TFhXEhBM0QHSIBncy000C5TM0IEwJpi3WalHchFB0KoJLtDw9AZNdDC3WqVMY8GVP53o8QEQ4bJgEd7XC7p0uOfQsGzLHBRLPEZDx6y4Kt1kmgNuj40THg3Gl5r+RRIT1vMSF07ttekp28AGVK2d7HAVWxHria68Ft9yStytn7r1XkTe+KjZvI0cIadq312z86CTuV19VDsbuNUPHILMoomhpDBmiUyVAgu2319BVFGdqKM+FC5Vcoeio3FhM7O4DdPTuXcDj8i3ESqoBQS64RzChYKLTz1NBl6y9toYkcnx47qhRsmB3Z30QRXSCUaFQwtQU55AJBIEb1+CSK1XKT4kR4NHYkBHoklzUGJLIYsV33ilwtz+ynstflvegI9owsb67jcBG1qIQNtNoPeWEdKkBuHNs2XnnpSvQssM1MhortiOaNly+XGmSnXYqfKZ9ycFSf/WVjEvuYYrHs7Kwp33gCbJ0DZsmgjpxgyaGPYIpE6h5nKK7uTEXPv88Jcps00YBwIABGhS/8UbNf6pXT8nLgw7Kj1nxDe6OsyzcdJNSNd27Sye59AP8+adkE4Ww117SRpgLAqQKFbLdEzFwoIwMf/jRGO+9p1SojeNkYsKEcKQpiqk95CCOkIvdZx/NwHDx0siRKh/eRdygrozXX5cSsrwCpfHjj5pBXOgkX0erVhrXwF7h6blY0512GoRbuUzGj9Gjh4ZFiNZsshEtxMYEs+PSLcSijRtLfXKxCA50XhaBksoXX+hHaTNZyp/6jc2sjOZ7ttiiOAk2T9mRUWqsLKZPl/7dcUdpDlukw+PxlAq4HyJ4IuMoGIDff1d0u956+dmRO+6Qd8SRFy+lN2KEPMF++ynfcPTRGlHN3dlEo4sH8p40E8NlblIhQFprrSJECDZ7rNign+b9O+XWsAlqt9yirIlBgRMjEYvjQdtGHv9vYO44CBG5TUK3q0venh2lWTMlVNAQqJNbE0+pGTVKc4BcAgYdQ3iGjHMJ4xr/PjYwlehjM4rK8OFK82C6i6otSguuixKm6d55Zynf6+spIeVOang8npXF7NmKRI88Mqcotowgku7fX0O3l12moHbIEGUF7r5bswree08T8nO5sXyFQST93HOaVfbhh+GeTCC5YpNdCMo/+vfJLt9/rzny6Co3/nLRRRq4oQS4/OikeITRmDHK6/z5p/5sAkehuNtAttlGaS1c8oABBebHdO+ubIrdDOXxlDpeang8nnLE33/L7+6224oeui05LRPLITVtqnxGFrJkaJYskbo67jhNko2OSe2/f/pDZgvln390TDdteflyTXFF7lx+uSbnRZNJHk+p46WGx+PxlAJz50oZRPn4Y81edPdeOmrXVoamWtozLrNgaiCXifkeT3kjhyeWeTwej6cwtthCk0vsodRw0klKzOyyS4G5jQgF9EeXLppp4W5kzZEGDTQHpWnT8KXHswrhsxoej8dTmkybpmkWDRuGsyPHjtVcywULNB8iy+PgCgVT/eefJXqMksezsvBSw+PxeDweTxniB1A8Ho/H4/GUIV5qeDwej8fjKUO81PB4PB6Px1OGeKnh8Xg8Ho+nDPFSw+PxeDyejEyenL9gTZRFi3T38p13avvFF/W0+O+/z3ujWNgyiuUKLjy6xnJJKFup8fffWgro/PPT68nj8Xg8nvLJsmVay+bAA7U20NVX62Zjx9KleoTrmWdqRb1nn9WKvl27av2X6DPZ3nlH69HAkiVagOb33/P2ZgC9csghWkEQp8lfeeCnn3ThbgW7ElKGUmP5cj2j5rPP9Lx9Ct0xdaqWUpw4MXyZHWp04cICdewpa2joqHWPx+NZncCbdO+uVX4I1pERWDnkQhbnMmhQ/pp5H36oNWIcHOeCC4KZM8OXTmHg1/78Uxs//6yF3665RhtdugTdumkp48GD039u0iTpFXjmGS3OzN8ll2jN/VQQLplC93/+KY6v5Cs42SiooiuvDK64Qttz54ZXVEIKf64G73//fbDddjk9OmbBApXv8ccHp52mUjZNB7vtpqXhjztOi0RfeKH0x847B/fco3VcDzgg48qKs2frOLSPYj/2PxXqqU8ftYCbbsp1saKiwjlz7UccseKet4M+GDs2OPjg/OWqaS4VKoTbuUB74itz5iglCJ076+mEHo/HkwUcNsa5UaOgSpVwT6lD1AqxJeMN/PEff+g5ran8+qu8L36Uj+29t8Y4unYN33LUrCkvU7du+DJKs2YFBkROOUUuw8iyZMy22yqRjyDo2TPcE4UjnHiilAdyB/Hx+OPyQbbMTYwWLbTioINCeOQRnc9bb4V7HFwah9pqq+Dmm+VMn3tOi+pxybghiC6dyI/2768LiZ4/pv6ll+SODz9ctdmkieRFlAED9NDbLOA7+N3//lfbCIbU1YvSpQZnSb3iJqkndFavXnr56KP5CxPDrFnB6NFaBJJi4hi//aaFfO64Q9UJuD2kWZL99pPOiEK533JLuB3jxhvz1x6klPfdN9w2KDX8K41s3XX1serVCzwAOBOUPg0LEQMXX5y/iFFJQKuiammXbrEDO/PGjYPmzYPKlcOdOUKTmjBB7ZWCzQ61g1bjX3Qbzcu17DPOCDXybbfpkYW5gKyOJcq2317tz+PxeLJg/rhSpRQXmAqugTAvyxL5UbDw+OAePWS3778/xZYS/X/xhdwn0WwMDCMWeMaM8OXdd+uR8LizVM45R4vPReEX69QJVc6eeypd4UziJ5/Idxgc86CDtIG/4+euuy5vb1Yw7JkmQHAVG2wQyg4+NnRovtseMyZ+hplAu+CLLePCxhtv6Hn2MGWKKotigXbtpB722aeA5ceTIheQbjE6dYov7hNl3jwNJCFoUAiE8cisE07QD9mjch0pUgOF0rSpRArenUNwIAN/9uSTKnHOZtNNpc6+/FJisEsXbb/9dvgx48orNXwFxx8fvP563q7MXHRR8OCD2thyy+C++4KddtK2W/XYQYMjat9wQ0mcDz8MvamDinn11fyYPhOvvZavbGgctIzttgv18nffaQkDhCRXGuWdd/SYYa7IVFsMvuVWPbBEDs0l2qC5tAMOkDLbZJOckhy0ZmQmEvX55zV0R+Wdd56607BhEq2cLaAF6QYOBA3lP3Vq+NIRO5NM0J0oCutUUbgWWuqCBeoYuci4ovLjj1qxukipF4/Hs1IgPMMCWw7AMX9+cMwx4baZi1SIiDDa2HOMCUEzHHaYrMrll+uABpoA277xxuFLo3v3YODAcJsw9aGHCkTMX30l2wi4IZubGWX4cDlUB26FeJgTNnCNeDrOx0AqERy+8orCZmQQHmH8eOUVcCsYXqw3ITFwevhjpJKBicZZ4K0RBzhNzo2PWRxrcGI2eQCTTuFk1wovvBD6PlTO4Ydrg98idKdY2rSJh+hFAu+A4EiuuXPqqWFqIBO4IS6WyjJvHgPfhAYYMkR/BqoL7bXDDqq12GBFitTAi1veplYtKako++8ffPppuO3Ag7oKi1Glilyda0wOyg7lRe1SSUlo0PXqqdY7dpSc5OvIJQMtQnW6mo5x771ymVwQLZvrdBKY4uCYOGmkAGICX077+OGH8F3kS7duOp8jjgjnKPAuMhl1CWhw+gMgUBBrKL5od4r2tFygEXfoEG4jF1Aesawgl+byEPycq0KDUxo8WM2d5nvtteFOoEVWrapcSAyO/9xzKo1DDlG5vfyyLq169fBdBw3RHa1+ffWZG2+U1ENB0uKRm7/+qhyadYMkaJTYVWTHZDWVgsSkvlIbscfjKScsW6Y+27p1uOQ9Lp84B9OHJya84V+DwJfwF/eDmSWi3XZbxZl77KFg2tQJERcxW4wLLtARLrxQugHTSqiJo3I2NjlOgXsyH4adx3O//37e3rxhCw7ijOdPPynHkATjiUlEQGAPOQIuBmWAdwSC+6ee0gYWCeeK48cvmJfl8jGhMZBBRx0VbjuIPPEdqBPglAYN0oI4yBoLMvv00YgJuPwBLpKSxMDCRx/lG9Krr9bav0Bp7LOPomiDk+QyzTdNniwngnknBDW2315e7Mknw5epcEWu0FI5+mgNVqDS8MItW4Y5j9NPVwN44gkpsFNOkYTCV557rso5CY6Dz8SISw2aAg4gBs6JisE3FBWCcholxU2tUMrIWHzkSSdJsljRX3JJWM0xaEOcCUK4VavgrLP0L1WYyjnnKFHhtCqKAY9op7rNNjptGiuqxWjQQFNGCKa7dlUjW7Ik3A+oMJPbBi4Q4YLOxekaO+6obB7S2y6KYqMHNm+uAxYJ1BtyAekD1jmjIGsQN9mpUUM18vTT2kZOualJsMUW4TDbI4/oAqPt4OKLJbOAAqdYolC8SGYaNN3edKHtQQtaHwDUp7MpBiVAj+IDFBRNHBsRi0hSQbA3a6Yjs2Fqr0uXosk1j8dTdmCdsNXEG4Sa668vX0iHJaynw8bAaREWt20bvgSCli++kE8yEBz4KjM7RQVfhRfA28WweBJwqL165e2K8NZbsi1ZxhowU8SWMWyyQhSM8G23KRPA+eOkIOmqRozIaPFMIWHMcRAxPv9cp4c73333MEjjilAnWHUXUYPLozgIJgk+cVKxzP2ff0qXIJ723VdV9v334bXzdSTOww/nfehf8BcoLaosei24xVtvle5p1EiJA04jel3OJVWrptttjF12KTCLBX+EBHHguJP5+7jUQK3EhmoefFCFwr+xAQugCRLsRkHGUhbmk3B7r78e92oxLEmVBdrTnnuqSiiL6EAMjQwtgvuk3FEAKNDUOTiZ4FDIiLvvDl+m8uKLupbksAKgPygQp28oaGoUsYnEoe+hK0eOlGLbfHPlBtjmMikZm9BLQ0e9OvgiUYLBbyW7ARANTJigJuWgDyN0EGE0MjdLg9rFTPCjxp13plQZuDSdgV6mUwFiy03soo+57IuDI6Ma0eN9+6pjAOFLFDTfVluF2waKB0OD5rv//nDoh56WnB8zfLiG5DyeVQV6X2woupyA9cYOxHLXUdD3CxbIpGQilkiIJoAzQec1Y4iVnjRJFikLxFd//SWD1ru3PEgW0Bk2Lk/0jKxx0yNwfphQs6JnnKGBGxyzUb++XOyVV4YvMXS33KKp7phWjDZXjTlKuqTYeHSUhx5SYAzEpQT6FC8uH693ww0FBpJivP9+8MEHOo1cGgn+a+hQzYNMpo2POioM9tBPWNek/07C0XAHHOr00/UyKlmGDJH1RkwYaAV8Fkd+/PFwFJty4AOxxkNTRxVQZalwcAx748YqKDfUZdmvGAWkBs6M0ozemMqldu+ujehEGPzHxIlyPJQOqo064BjUMQ3CCotmRKjNnuw6w0FTxkVxhbQGyxoZe+0luecOQoyOt8Zv3XNPvNB/+005nyxEHTzaxVJMs2fr5FEtqDADWYcSxC/G4BwKSrJ8qK1WrcIP0M3w1pkaxM03p09bQeFyabxLNSNu/vvf4N131bUMl1WbPDlsPQ4aKLWwcKGKhdLr1EnZBQdtNJnfg+ggDu2yYUNlmzhnftSl76jBpB6H229X7q5NG21T11Om5O2NwJEpARMiNJJzzsnbm2dfOFVaCOecHFXt2FFNmZPhd23MiOZL1ceCBsQfl+lSc1gQhGYuqRSPp7TASCLxafn9+ikRWK5Ax+PecBgVK8r6E+3EXB093W4rw+M6SYHhev55WcLatZUAtnRpKlgqrAcRbY8eoQgwsCEYfJtMgAmaNk0bsdF2whI+g/Vo2TL/rJxbOfxw6RWXfo5Ss6ayLJAapZi/4Jip2eVoBpfLzOKPkiM1sOGGSpOkTtFbMeCPrDBRb8WeLff77xofR2bhp2IsXSqLWqgecrMIACflgt7115daMK+BIqGsbrpJrva++/LeLkjKXI1Fi1TE1C5N9rrr8t3Pjz9q8CmWvclef0Xln38kAu69V9u4KzyQhcK5Q9l99ZVMAIXrVMtLL6kDEJHjtnGEJ50kveLgMrlYU2RmPpB7Tm5TcN26SUOMHCl/iVZw82ioPDre8ceHLwtl3jxl4ezmbPoG6jKaidltN6kWOmS1ahoSGzFCwpmfsAmzBpaC67LhoYMOSpFEMThtxDWatGnTcI/R+d8bWZECCAKIJQMRYSecoA1qAblqGUug3FwAkQU6BnaBcovBjw4fnlG0xdhoI8Urxssvq8shPoDIiXNDGJnisZlZwGEt0QXoFSRjJhBtWGGuPVVOlU/oGvTEUuxrnmJA33d3S1pOceWCMZk6VSEpURnRwjHH5KdaDXQ51h+PjukjsrceBG7odvp0jXckYwZ3F1uUaEKULzrRT1iMWcBeGfhm7An9l89jWm+5JVscSL/eYgud/BdfyCoC1iMaU+GDnPkiFn3z33sSoXr14LHHwm0uzRyHg5AG05cj2JO2bRXvUZgE+jgLzgcvQC2vRJBK1A4FGxtMWfGceabEHG4U/2jRYO/eGrKxWSMOPoPLju00UqTGyoXodtgwjUGU8MYElBcawiWLskMnpMkSVePszZoTvg8erMiAKCE6DxQd1q6d8mP4YHRJUU3/jBlKyZx2WjjJCH1jSSOgfaM6ER90S5sqjLdGGLE/ytChsh2QOvUmC0jOHXfM78M0YryXaYgddlDXikKBoIr4FzWD4cA345jRrTEwbRgCzhOdhIBLhQLEBHCoKHRpSzB++KGKOgvnn69CpqijjB4dztA2OEmEFx0AFeKwOOCHH9TuY7KD3mt5LMxT9P7tHPn1VxUOViw5q6kswGq3b6/Kql8/5akAKx3CGoQgJU8kXf7JHhphfAYMUFvaY49wTxS+a7c1GnZvQunCr9MmaV24FjtPOtdrr0nTxMw3hgj3fNRR+ePdmab7JZ8vYNDv6L+pI7abby4748QEBnDTTYPrr0+ZGknohfWgE0UnTkbj2uwFHoVP9u2rn8ZG1awZWpurrsrPjALSys2ow/lRLNGD0wjNCxqpaXxP8aB2MER77im/TOiOVI2NlRdKuZMa5YSlSxXZJwfPjN9/V/fLsQtl55dflDawTEnDhjIrdCGL1zPRubMyN3wrqoFyBMfgpnERCXEceOYZaYXsxLKXBxygBGnU1773XnqQRziFConeAAbOCtD6iJ+QMg48Fio+epdakkInURsuPHJTySA6NnTxvw9WQVa++qoUHv4DXnlF2RcsF4YvyQMPaAwRMtkymsfXX8vglkoLiaZ2x45dmencJAj6WrW0QdyJKFywQCPZ5RaUfY8e8oKp2XKaIvGG+Uh7nFEUPDo+Lzbf/oknlHwuySUTDiH66Ym0NJeoA3SA3ervTtUGUidNUm+1cdjYlPBSxM2dfP55Oe+77w77RXbcaMgtt5Q0CicCQXbceKN8WwwMEd4u0xOlEItnn60AA6sSna/qWel4qVEuOPnk/EfNlLyjZieWhHTTcQqFkOvOOxVLXXppfNaIQWRD/IQnxhwAcqRBA2WGmhV86J7dS+b4+28ZKWSBZRqqVJFLIFCO3ZuDocccx2byRidFJ+Er7r4vLBdRF6cXHbDcZJOwKJxBv/lmaR033fW22+SBUPHY/UaNNK6JKnKPUbn8cqkK9JYbVeQlkqVfP2U+CBm56g4dFPPhIRCvU6ZoEK1ly0IkCP6bA9pn+PVoJM1vJQdciwfFPn++7h4vKtQyl2nDbZQMwheOOCIc7UK0FXXQc4URc9sx6AVuXhvwGRoPTc7un7RbH1Ox/BlOzoZu3ZHtgLG43LF8uZo9XQnQK0jnaEUDJ0BrceOzNniBniv0TkDEaKVKEspvvFFgctgGG0hwE8nQiqjEVLhedHmxpwXg42fNUu8uFZFdPGjYH3ygwsRSecoPXmqUCwjiCaON5H0cpQs+z0VsWASsYabkTbFx469G9H4WPCV/SUOPgcCX46G5fBs7Q3uhwIzLLlPcvOGGBUZk69TRHKWobMK+IIYQajZtO8YNNyhc++238KWBMth00zA0L5T27UPPGsXG7PEcXAKeAFURharESdSuHb6EO+6QQ0K14K3pfE8/rRjagrDZszVATiiJ57axktj8XC75rrvC7STjxmlYDZ1k04FxfqedpsAXf8aJxeBHn3pK8gsRljtcI/KR4rXAt8+/zwkg6v0l7wGInHb9+trIkTlzVAV8ZYcdwj3FgGJ86y3lBqJzsKKMHKlbvdwN8088IZFqvPOOUghIzFhOjmK0qVTJxwtde61URdSLc/7WDimHoXlPeFy4UJMoDct+UbmtW+sONRsCsMlYWcBho1bdmCBCh1ZRt27+pDxH9erq1IjgqlUlc5cs0Xw9/twkUL4YnRa2aJH0blT9IxMRKOj7mjVLVBEeTya81CgX4JsvvFCPxCAAynRHeCmCu8VQbrSRYqak1y8L8MR4UFxsMiPqwDISbEXjbAwoLm233cI5qgZKxcaecZaYRcw3hp7Q05lIYkGi7eh02iScjM0169QpXJux2CAannlGqZqYQ8oCIgNvhIs99ljZfePDD9UGvvgifIkc/OknuQp8JF4Hv871RkfBk1AI9nS7xo1VYogAdzcZ1R27W8eF+Nmn0Mawu5eN2M30BkIq+71gMXr0CG+YTz64JRdoMJ9/riF8PDEROW4eiK3XXjv/biws3EknFZjOTBOyyH7x4pQnN2THZsx89FGYkEhiOubii/PH12rUUK0hN83W7rqrFHOvXgWSKA60AroHnU3HbNYsvWWee660IwICorKpSNjcJuQ7dVqeh708qwdeapQXcDkffyx7VK4G48shv/+u1AXmG4eaiWXLlNtAc2ywgSa1nHdegYwxLg3HxkGw4wR/RIExGjVSQHlJ3qN7Utkk8xNyywLiYBrGlVdKdeFaiI+5rubNldTBT6y3njYgdQpClPffl+Dgej/9NF/RUgJvv61WN3q0joxG4YCIUVRL1AMNGyaRgSbODsrPLangQGj+9Vd6Qjt6zjmKHlw46uTaa6VK8dbR4b/33lNFmw+Go48OEx5JkEQohmQltmmj9EDqXZeGPX6bw7ZsmT6W0aWLskpUWXRiB/Jr5MhwOztjx0qGRidg0hRdytOwJ2baeFyhle7xlAe81PCsnhDFzpkjRYLhxkGiHgwMN84AYhnsxx5TKHnTTTLimHKUn/NYffuGj+o3nnpKt9d27qwsFM5maeIpivjCpANAKEDvYj2Fne8edFD6kL/ByXPOLt+QiVq1pCRu/PcBuKngJon4LeVzxhkKrNdeWzcjsDMTRMbR5/49/rgCd771/PPKfOCbkUcogJ4984vUcPc3OlBU2R+sB1a29epp6Cr5oAUqN8uc4n32yc8bJbFpUtHbOGNwRXZnNVDvf/+df0WbbaY2Y6MbuStRCurii3WQ+vX1lUr/LlqGCEYKG1wORermcoHLl3g8qwpeanjWCCz8xZSjG+xWxuhoumXU6Qqvvip1YpNXiPWffFJ389rn8UC4Ivx91F/26pU/89Swu11wgZ9/rkNZ4MsR+Bii57nIAryOmjU1kc3BL9rdzg5OftNNwxkYhbLttgXc0jPPaCZg6XLbbSoK4/bblQ6xkYtC6dFDp9evnwp8l13iEyENin3SJE2LadEifwaugci7555wu6hUrChpQlHw6/3/fbxEDHPhNIPoibHdoIEuk9aSnBlKhb7+uoaukD5duxZ4AuG660oipE6gdjjR8PXXOviFF4bzqKJzdGhRKCREqg24ICsRcB7PqoWXGp41BRtDWSvy2N1LL9WgO3Eq0Wrx+OsvuS7+4OWXNa5hj3L5/Xd5HUJVgvso4/5dY+iww/SZJk2UaUAAzZ6tpP1xx8kT/+c/ygQQNA8frhsgwRxSLqnyDh00l9bd0HT11fKvsRuVHbxbaAohiXv+m4OCTT5xITtc5vbbh2srZD8NPlatmkoSuRadshMDQfBxZFkHHD9Sxu5JNtxDq4CCjWU+Nt5YCS0nIqlKfP+11+oMcfMVKmhIDqWYfXBzXsHFqKmvBx5QroKTNzifN99UndrEEQ4YPecoyyNrFLg7nDn+zz9r9qvHs8rhpYZnzWXhQoWkhx6anxUvHtOmaQJEoc8mAXpbnz66oTeX+5mnT1f0T2R/7rl6+fDD4VzXZs10nyq+kCAY7UIE/MO/q1SYKHEzGGxiAURTOMauuypJgMZyt7QQN9soTyayPNUDqYQ2GjkyfdbqaafpNpxMoPa4Fs7c3VtUJPDot98urdCxY/5dIbhzRN6nn+pOqKFDpS0ouuiNXd9+q8GO1q11Nw0l07WrHH/JcXIQLcXl2NRUt5MrtVnYnNh11+nXs4inpk3DanWZD49n1cVLDY9n1eDvv3Un8H77xW9HHDxYvhbwtfYYBpzoPfcosneRMSA7rrlGLhAVsskm+X53/Hh9/eqrJbn4YuPG4W0ssNZaun20Th0NE/BuLhNNFi3Sk2ejn7Sn3+LRUweALO9i5JK2icG53XlnqBL++UcTNV5+ObxJJBcmT1bptcxbJaBUQHJNmqQLiT5ej2t87z2NOtkjOnIEndGpkxJvqcNMHs+qhZcaHs8qz5dfajim0KeDzJyp6D/2iOtcwINWqKDpnzmyeLEyPUiitdeWXkEKYGaaNElZa2N0ZL3p777Ln5yBSPoosgCyA1W07776Vo8eEhmxZ3qWT377TTOUi/1cLI9nNcBLDY/HsyJYtkx/CJ3PPtPtP3Xq6EkYySdMT5+uaSunny6xgqRo3lwPm7rtNq0rBm+/HT7h7c8/w1t8PR5P+cdLDY/HU95ZulSyA3USW1na4/GsEnip4fF4PB6PpwxZIU+l9ng8Ho/Hs6bipYbH4/F4PJ4yxEsNj8fj8Xg8ZYiXGp6QX37RMwaWLQtfejwej8dTKnipsfqwfHn+xk8/6SGDRdIN3bqFCz1MmBDu8Xg8Hs+axv/+pxu+5swJX5YKXmqUO2bM0IOoo8s3zJ+fsnxojLFj9dSjSy/VStxXXKFnPl58sdbazhG+9fbb2vjjDz3JoEEDPd7R+OUXrfTh8Xg8njICG/vmm1rfoDyAL2jdWs/Tu+cePaG4VPA3u5Y77DHG8NBDSkvY8uXVqmkl7hi//64lJ2ij7dppbXQnDhz16umhioWyeLGSGTE9ccIJwa23ai2JNm2CypW1MOnaa4cPmvzmGz3Wet486aF999V3K1b0DzzweDye4vD333rwPzRqpOUYN900XCtnZdGhQ/DGG+E2fPxxEVYIQlCkfngNzWpce60WPii7eQkc+cMP1YCy8PPP6bmKhQvDDaSl6Qz4+mstrHDddapI4Iu8REkMHKhFH557LkVnAEcYM0bLSL7wQraT+fbbUGcMGZK/LBZyZ8IE6QyYOVPK48gj9WDp777TohXIi9NP1zMfe/bUapaHHRacdJLWvyiU5cvVjnv1Cl96PB5PueWdd/TU/1QwZdhhF6oPGqTVg93Ch0Vi+PBw46WXZE5T1yxMgjW+4458f2FkSR3w1qefBs8+qyftZgJn0aBBAZ0Bv/wSbnz0kebzxRg1SqsijxunbQrk3HN1FW4037EmZjXQaJdcog0LyksIhXvjjVp+4rTT9HLBAgkC4v7Fi4MWLfK1QozPP5d65VtuXU0DgZLpKwYKCcG7zz7B5ZeHe1Jp2jS+MPpBB2mN7MqV1UARCttsE+4HHP+TTwa1a4dreU+fHpxySt4bCc47L3j88XA7yT33FL4mxeTJ0iiADJo7Vwtv2nOmPR6Pp1xhKxSuu67c51FHFVjF5oMPNE5t2PJ+tlggprVdO616s912ig//+EOP1Sd+++ef4JZbtIJ0xYp538mD2OyTT4KqVZXAjo1TZFrOl+N07x5suWWw1175JwD8XLduwQUXyB9xMpxSkqFDpQlg/fV1aWutJQuMWNl+ey2JTOA6b560SDJqPf98ecwvvtDxoX//YO+9tYF2QFo1a6Zt4Np33z3o2zfYemtdslvbyChzqYFPReDsv3/4cqUzf77GGowbbgj1gfHzz8Fjjyk6r1Yt3AMzZmjk4uyzw/WgYyxZIg9tICw22khLhEfZcUctVUUFXHml6hVnv/ba2t+okZZ4gFde0QpYiB4UMW3ukEPUmGJUr67lN6OceGLw6qvaaNxYutupTi4NgbzttpLYtEj+TYWzevFFbVA1aJ3nntN2ly75JXPnnRK/Btf+1FPhdnauv15LahkIZw7+44/qWnSDiRM1cYT2ipbq2DH8jDFkiJqmg/ZIydBX99gj45LlHo/HU9YQNI4cGW5D1P3HViG++eYCZg0v3q+fgslY/oD92NJddtGH8esIETPsOAiiU1wJptIZ3ttvV4YjyuDBymHHfEESYlF+BfOL6cah4JLwMrb4cxSkQKVK+cs4p+JcDyID5fT++3l7g+CttzR8nykivfbafP3hKFupQQBNeP1//yeft846csxu/WvEV4cOWhH7zDPDPUk4NULzWbPkhqmMJH/9pYOb884Obp5KwjFT/fg/A3/fvn24DThahAjghnHGxllnqRHA2LG6rQOFu9VW+S6wZUtpvdyxPEc0dUHz2mCDYNgwLT2FeqhZM9zvME88YYJma8ag6Nq00YwKPgN3362joVRo0EasP0T56CO1SJPtBr/uUh0LFoS6mKb28MNqZ8nbUurWlY5OnjDNt04dLY7lEo9VqoRljnBmI7m8J4qehgsIu7Zt83YFQY0a6q65jxEWCawGlVjynJbH41ldIaLD+zjM3hpZTKuBeUkdsyb0xwk++mj4Mgr6gPiqd+/8aXmEZ7Ye4YgRclXJKLSMwC8MHapxcy7Z5M6mm0oYOeWEcHnoITnEVLg6rHeMMpQa06dLZ9gkAEpw0iS5wMcfl6fBNW62WZgyQnCcfLI2YsyZExx/fLjNdbrRLAfljg6YPDno1EnZJH7usMO0nwvq0UO/guu1tR/5JOIO8MQ249Jx+OGSZrjGr76SDnCgHy0WP+eccE/VqpqmABzEBho+/TS48EJtFAlaD6dNK0RhUHPR1kMNnX9+qADw4q+/rp1OSnNF0RwMH0OgbLKJVBTChbOK5tMMSpiGa7M7Bw4Mdxr0Ikr+4IPDl1tsoQ9zTAdNjfZ9442qKZQH795zT/gWPPig/DQViohEECBjnWTJgk0mTXYYTn7cOA05xXCZOiQIl7/ttmoGRxwR7LZb3tt581ro0httFL4ETAN7uByDM+e7G2+s2nQgsy69VB9D7G+5Zbgzd2hgVCInZue2YkCeUno77RS+9HjKCUS9F1+sGxZcRrO8MXu2Rmk33FA99/PPlagg0MVeEaPiNSpXlilIgm1BFkTZeedwVBq7XatW3q7cwMsQelkaOwuYfUwZ5vGMM/LnfJjaSCob3AeGl8itXbtwDxx0kDzdvfeGL5MQtfIuAiJ2EwBBIJGhZcf79g3dpRF1goDRi4ad2E+sKNbpqqvCPfD2v8svR4lLDY5Lo+EniVYp2aef1k4b2qdKsPV9+gQNG+ri99tPEec66+jfXr10G+5992kQCIeEn8ZtUyvooBjOYUfBXXFwXGZ0AgHOjHja8f77+fc48ElaCVE+DSWKqUI89M036yUOGP9EHScjct6iQLNAu8SrUQGxKjG4OhxYUv0Acodyp7kgqrjSAw6Q2+M8qY9nngk/Y9BEuJDoNbKnSxdVM+dG96AzoC2iSSp8/w03hNtUf7R2C2X+fLXOtm11egbC0xIP1atrDC+5nHeMb77RFSGSaNC0hBhuEkahUNfrrZfr/KnNN5c6iUFvoSE1aBC+RKpy/liQ668P99C3aYcuNwOWxYFly3SetiJ5bAQtR9yQZ6bx1FKBukZK0pLptK5sy/QXPZ5i4LxgLo3z++8V8+DqiJGw4bHh/CTPPSfLuXy5gkZMZTFuc8OQYkKxV088IVUUneKGmySgPfdcjW4nGTs2ZT5czBzh6VAkLt9Mn0W1YPkfeyzcgz3/7LOgVSupE6K+N98M96fiChCfTJiNdwDCMNwNIajjxRdlxCg9l3qHX39V2RL+8S0ifGwdIVmlSgXGvt94I4zB8MuUJwG5DaMTo1II+PGff5YeSsoaDCz+zuAnkGsGjgCnb4ln3P0dd+TtzdAS4lIDGZF98CYGrv2RR/InA1Kj7pyKAbrYvIWTCw5K7aSTlLS3mSmpoA/wl5kmDEfB3RKIE+vHIExPxtxZsDwNseZbb2nWD1C19J8lS4I998z7RATOf+bMcJsWScUTbSPsxowJdyI56Rg0lOuuC/ck+eILNdlLLik8g5cKyunbbwuMxZx9ts6hVEBRDRmi9mPzSAw04lln5Q9aAR2YE0AFcjIIoGR/RkJReoRKJSQ6Nxabteuu0km0VZfY3H57TZZOgkbBBqWO2QGd325/L5Ljx1BipBA3OQ4JWf3SI1q2zB+ypbHttVe47fGsSN57T7ebEUph5KtVkwIgBF26ND/4wTenpgeiuDlqsMMOmhNWpYq2MZuffioFv+mmeolTwg5ztKiVw5MdeWS47SCEIATCwkQzsg56HAGhTb3HW+Ohn3wy740IW22ls6pTR7lSLAOBBKIEv4Yjv/9+hTQbbSS3mJzr4MbfiQlHjSrQN/FTuPOKFQtM9Vi8WDMY3IgMsSI/feqpunBCX8La6IMJUAx3362Tx5tQyI7jjlMWPzt8nqKzuuCKKFU0EMTsFYVM0WED8ZvZccEVUEE2zQBD2rWrkgsOE2cUAkWRpIDUoHajmZPSgtLBrVKyrprRDb//rvaBzHQSySDKpAU7N/PMM2rKmcaEDJrpRRelZFCi0CycU7FK5brx6G/nPbfKuPRSNceXX47XJcenlaNgKG66md29AlxF9+75ncEKMosjQSWgATnP885TxsiyCLyk06Ie3J230emZZcTo0aG8oH/SGaIDEKUCRcEfVoDuus020vI33hi+BbEbVWL3cBNqIDTpLdHPlArUL1X522/hS2PYMI0QTZoke4Hkp+0RdblsGTv5CpXFOZstc7cvQZ8+MknEZzE4eYQUlot2u912kl/obwt03OBrdgjjbGwLm05nthvJwDJemeC0aWC0rkwiqSzAWmFn6Ti5TJlaDaBqMNzEdjTU8snUqbKZhNF4x+gM9xyh9RKN8EVco90ugbsifkgd5o5iaj4GMcZDDym5yAaR+oknhvsdxBWEWGYfcL30JhowJpGr4IAogChnnqlTorHhPjDdeGKMjEEv4+tR8xvtqlCjhiLDzz4LXyYh6HrhhXy/zg9hK668UhF/qmf84IOwzVPUKIPoEC2dAtfWuHFcAGHkeQs/wm9F86kUDsYnZof5US6fgxsXXqhzI0izSskdwlfq7tBDS/SIASwk50xRgE0lseGeKNj8r75S4J3qUOJZDaxVq1Zh6saghvij2WW6nSE7NBfcM7Veq5YUHMdH8SFmOaA9D4r6yKIkPvxQahoDzRFi0ED33lttFJc/eHAB1dm2rX7CcdttkqWAX8eNHXFEmEcyj8iR8S7oStPXQAtz8tmSTgsXynnYLEKnLRDLsZ5QbDhDywSsu658v00xKVOwJsg44v5iGKNiQHVTKQQ0VFnHjgUSodjuRx9V/0EvU92oxs031362qRQHRgqdTj2+806B0ARJbioT5frDDzI3NIZCefZZDYgCgQsVetBBeXsLg6gO8REjess0HQcTyQkQB9is8hh0Li7Q4MKff17fpborVNBVo3s4H/QrTfqEE8KPRXGjxalgCL7+Wv0cKwCEdDRsLnPjjfPeLgNwQvboIcKJffaRPWrXLj2+XA3A6HNpmEGLPtGO1avnvVHOoFO70Umbhw7UlIW5tMn+/bUz6hodfCz6pGCMKi9x8MlR7yR0vddekzcl1kcB0J33319NuthPwDzqKGWLc4d4mkqhjrgKzHWm8Vz0BNdOEVWuLA3kYrxU6I9mHMxEc3C6LTanX78UXVXqRG87wE/lmBBNQoVyztYAig3SB62G3MG8HHZYkRVPXGoYs2ZJB+GSu3ULDUd0JCY7mJ6xY8PtWEqNl2PGqPiito+dxPGURTItgWXnHIyuXTWwxMFpuLfcorRPtNxpLnyApoPgRSjYwASxIPrLCYgiYXoi1bJbSoCgk/iy2HUfA09MJ+HI+MtUH7NmgsnAX9q8VASfK20zptddpw3gY+BaGl/BHEycqOgTaUIfi074NT75JHwq68UXS0ciiEsCDRXxhGKmtWTPwIGb64qK7dAhb1cCWrIbazMoBJu0hUB0s2IdfBgN/cAD4UvaLSGIu/sulps1KEBELe0tmgItKhhfTHCU3r3D2dnlEEzd/PlyganddtEiBUJ77BG+jIGBIihyPtjAoXKo0jICqSBeacnEaVj5JMjxL7+UReUcbMSBC4zlRAm6kICoc2I8hLLNXqJfRCsOdctxLr88ZWp5kRgyRDGMu00jFRr/ww+rz/bpk003R6E9O/EUIzb5j16w5Zb5kVsSIis6oFPD+O/x4zM+MouOhgcpoYcuCc7t0pfdTRKrKOlSIwkiEaOMEcdz0y6xp0SiNCmqeZttJCcvvFBZoCuvVIfE2VPTtGmaSO5wIk89lZ/kITziUA7eRYvknuonBEGUFDueu+ceTYl98MFy9EQQjwP7i0nNfZjghhvC0UpArd54ozJtxCWELEn23VeJCnp4JjtIF6D9Y9mLDaaNDhIdNioUjLjToEhSm09Hj0MobL21pnSwnYV33omPyLqvxOKBQvn5Z0k0/n3pJaW7Y79LcBKbt58dStK6+fDh4Th9WYD1IPB4+eWwzIlr3b08GIqvvlJi6bzz9DI2/d7g6/in5NDVLrtIfCD+OHOiHYzhjjsWKGccakkc1V9/aZoO5jQadAG/xWGRF9GpDDQDhGM0m5sFnKjNUufgRHqud2SHNsNPbL65jH+dOpKVn34avmVcdJFUbyY3zyXQhqMXEs1cItZT5+ADgQHGnApKCg7e4lucjMUbNWtqdmR0nbAddlCOEPdkKgoXk1STb72VP6OcqsSv0zzQnaiiQieulikYGYQmcmoF5LnLmlylRqHQZGfMSJkLWVTcCiAlyReVHBouRoRQ0rMasHSp3MCECQoNMZfWrnAw5l0MhAXKmI6NdEahLl+upjhmjBwqRjz6+BB8M0cYNUrNY8CAQmaVQ716GmGdNSt/Al2OcLYmaOyGcOdX0FjEbXgIIlFcDmceFeWZsKFATPMtt8iwutAzebc5EcXgwdpp44wGQh+zu3ixLicLPXoU8oEotsKOgaZ/6KFwu6gsXKhZ5A0ahOOkSe66K/SsDjdFrnPnAlODcUuDBunfKOiMLDcQAr+OF8SNAX7Lvo54Il467bQi1DuNxGYznJn3CIdv8iY8Gk4Rup233qq/TPDr2ad8oZxoXak3XwBXhAWOqeFYbE0XsPFElNCLL2ruQgx0sBs9yTQFjR70xBNKqNDF+Dl0A1LGptgb0fZJI6xbN9xu2lTD3NYpcD2xNmxwZBsgxsuh7ytWLHDfZhQ+gH3gA9HbOjylSKlJjdLi228VdCJ1k5ONPZ5SBDvr4ldzw1l4553w2WLRgBgWLSoQpRkPPJA/r5ltnKglbPEWydttHNWr65Ro9htsIN9Wo4YstQWI5maIy908jywcd5x8gJl4xNCpp+a78EsvTc8Vozy+/lrJZ04AC87F2m1o5o+j88/dOE4mnDfiYwgsvAvRJLoNtWdzsxxYdvwcIYrjo39vSM4dTtumqhmIhu22k1cz9cAJEEbjApOxPjqyVi2FsKl2plcvvYuCmTtXTpRKj7Jt3p3emW61s7wOl+weWoNui02MwOia3sV3UuY27B1tkEAb+Omn/BvxHn5YzxegOT0SWfM5E1WqaJoO3tedJJoADZRlUqSja1edP6fHSdJgEByOWOYJWXDttcoCtmgheeruk6pdW9e+ySYqWxoVCh5/X6TsjlPVH34YHzn6/XepRmRltBtCNMFj5DgF27NiKHdSw+NZYVx1lfIWO+xQzCnPBk6U6By3tNtu0gQ4V2wrLvDxx6VOYvcp4DAefDDcNnDexOKx4NJc0Zdfau4RztIFrzjmLBIco4xpBheFoxLWXbcIaYYYhx2W/yji3OHnbrtNkwO4WECK2TRVWCfvMTyHH66CSs7Ngk6dJJVyZPHiUpuXnWTECLnq1JNEgUXlV5L775dHjN6yzlcQH5TD3ntrhIXYes89NWMXMQQ0EjRoz54FhBfYvXsOvjJxYridCQQrWoef2GgjKRWkCfoA2dqvnw7+9tsSXlnmWh56aIH8zbJlKoHzzpNkoeFln65nY46VKknnFXXOYAyaR+/eKuHcJ60jB7lwB02XI3jKD15qeNZcpk1ThIQl3TqyCEuZ4u77fewx5VEK/V2CxY03LhARuskNMXAtRM82OenPP+Uw6tYNQz28BaIqdlc5oG+KZ465hGHD5CDxuLvuqqxJFgFUKBwkutbDa6/pXgZcLCqHqiF4jV4+10KtcXXjx6frgCxsu61GUvC4F1+sFEISHBsaMTt2d/SsWRoZcTciFgoXWKtWxlnAMVAGqMzsNI08MwbpgLhEaHJWXFpstSakMAUYLcNr8p4D4UCFVK6sJAQ78dCx5BNwWN465ZTCZxAjEaivFdabYixapDZz8MHqCCedVIZTfzzFwEsNj2fFgTU89VS55yyPxygUuixh8aRJ4ZMMCKDRGZaQz8SSyLqABvpgv/0K3OU7cqQmCmTx34SqvItnsjtoovzwg2YkZLpNIAtoIK7lzDM1cuqIZVNeeUW+EDp10tTOXLBn/EeJPmGJwrfHnESxm/DnzJELx3OnYjc4GFQlrtcNeVSoICdtA0+p5HjrJvWy//4FYvQWLeJni0Y891xJtCef1LSG5B1J2aH9LF+uU0WuHXNMIS3H4ykVvNTweFYof/2lELOokxJi4PIJqYsUt+Ea+Wm+goOpVClc+PCRR5RjJ9zv3DkUEMTT33yju8xiHHecnpewcGHGmNUWytl554wzDZMQgtvDf3/5RbmKLA8C3njjcNpgEg6ChsDdci0D/13o55NPJBr4fKNGejl3boFhewL96APiUAytW0sKWE4oOf/m9NOl6tzZRmHP55/rBocmTRT9RyeOQPQ51pzA99+H2zEGDJCIsWcs2u1F1FStWtIEgDBCebiHDdJy3HOrPJ5VBS81PB5PATAJeFYc5/TpUgANGyrrsPbauYa/fJ2I/J9/JE1mz5aPvOsupffRAfj+J54Ixx222SZ+V2RyZl+hnHdegUdB8HPjxslJm2jIAnJqzBidA0oLXRW7AbJu3oOlDUshZALVgphwsz6nRNZE5Eo57N9/S+5kynacfbZmOO65p+5341fsfAxXGvZUSkp1/nzdWly9+upw66NnTcNLDY/HU4ZgYIjm3ZQLJAhe/PnnNX0hdl/Gt99K0+QCvpbQH4lQDHWSCxMnSmbVr1/SB2MYPXvGnxG3/fbScNWqSY44+C0EmdNzfIUvnnFGeOuTx7NK46WGx+MpRwwcqIegXHmlsgW4ZERJ9FbVo4+WS77pJo0BrUKTDDhnhNTOO0tAII/YePpppYtsDkoqGOYvvtDY0BqyuIxn9cZLDY/HU64xp3vBBRqbuP76VUlheDwew0sNj8fj8Xg8ZUjJ5sF7PB6Px+PxZMVLDY/H4/F4PGWIlxoej8fj8XjKEC81PB6Px+PxlCFeang8Ho/H4ykzguD/ATI1/SwjpFt/AAAAAElFTkSuQmCC;" vertex="1" parent="1">
          <mxGeometry x="56" y="370" width="718" height="248" as="geometry" />
        </mxCell>
        <mxCell id="2kaiVSncZ8-85bc54Xyd-4" value="" style="rounded=0;whiteSpace=wrap;html=1;strokeWidth=2;" vertex="1" parent="1">
          <mxGeometry x="51" y="80" width="730" height="250" as="geometry" />
        </mxCell>
        <mxCell id="2kaiVSncZ8-85bc54Xyd-9" value="" style="shape=image;verticalLabelPosition=bottom;labelBackgroundColor=#ffffff;verticalAlign=top;aspect=fixed;imageAspect=0;image=data:image/png,iVBORw0KGgoAAAANSUhEUgAAAs4AAAD4CAIAAABzMvfiAAAAAXNSR0IArs4c6QAAAARnQU1BAACxjwv8YQUAAAAJcEhZcwAADsMAAA7DAcdvqGQAAMTeSURBVHhe7Z0JvE1V+8f3/+1tDs2DRpUGRfMgIZVUmig0R9I8iEbSQKZoQJqV5qSkUiFJRWnQRFGpyBhCJZTy/r+/++zW3Xfvfc49d+JifT/3wz77nLPP3mt4nt/zrLX3+r///e9/gcfj8Xg8Hk/Z8J/wf4/H4/F4PJ4ywEsNj8fj8Xg8ZYiXGh6Px+PxeMoQLzU8Ho/H4/GUIV5qeDwej8fjKUO81PB4PB6Px1OGeKnh8Xg8Ho+nDPFSw+PxeDweTxnipYbH4/F4PJ4yxEsNj8fj8Xg8ZYiXGiuOpUuDK68M7rorfOnxeDwez5qAXwNlBUExt2wZfPmltt9+O6hQIW+vx+PxeDyrOz6rsYJ4771QZ8Ann4QbHo/H4/Gs9nipsYJ47rlwAx55REkOj8fj8XjWBLzUWBH8+Wcwbpw2brpJ/37zTfDmm9rweDwejycLP/8c/PFHuL3q4qXGiuD774N//gkqVQpOPjk44ADtadcuuPXWYP78vLc9Ho/H40kwalTQsGHQrNkqrza81FgRTJyof/fYI/i//wvuvDNvVxAMGaIbUvxIiqcYTJsWLF4cbns8ntWVZ57Rv7NnB2+8kfd6lcVLjRXBpEn6d8899e9GGwUvvRTsu6+22X/GGRpbmTxZLz2eXHjxxaBRo+DCC4O//w73eFZFli71eU1PNhYtCr74Itx+7bVwYxXFS40i8Oef4UZRcVkNY/vtNTO0SRNtIzIuuig466xgwoS89zyerLzwQtC1qzbQqZ9/nrfLswry0UfB4YcHxxzj70fzZOSzzzTybowfHzz9dLi9KlKOpMbUqRJxReJ//wtGjAhmzAhfRin1gYkHHghq1Qrq1Aluu03p69z59dfgu++0Ua1a3ut/ufzy4JBDwm3a06BB4fYaAi7zwAP198wzwW+/KUD3MXoudOsWbsDFF/tCW1W59tpwo2fPcMPjiWGZjNNOy3sRBHffHbRpE26vcpQLqYGjPf/84NRTg/btwz3ZWb48mD5dt4/ed19www2aa0mVjBwZnHOOZj80bBj06aOI4ZVXws+XCsOH69/Fi4NXXw0uuyz45Ze8vXkga9j50EMFpBInuWSJ3jrqKF3gbrsFlSuHbxkbbhj07Rtcf334krMtxRQZcpiQN5Pe4iqcWC42U6YEc+eG20Xlr7/yn5rKxpFHBoceqr/jjpPvRDsOHqz5UDG4nLFjg4ULw5drJv8p2GVHjw43PKsQS5fmz/L7/fdgwYLSD408qzr4OJwaIDVatMjbFQTvvhs8+GApWO8VT7l4Wmj37sHAgeF27dpyOT/9pIht1qxg5kxNbnjiCWmRffeV/3799aBLF/mqXLjjDmUOcOolhLAbdxilWjWdldG1q4bPYffd1SaGDtUAG+YjSuvWwdlnh9tJatUKR2fQT7vumrcrN/C748YF9eopDbv55sHOO2vniBFSYFC/vgTceusFe++tl8aQIbr5BW66SWM6yA4Klgvs3FnHOf74vA8VhNLmmHXqqC6MefOk8Djn3r2Dww6T6eRXYnz9dXDjjapBDssFHnGE7sH56itpIA6IzCoUpOcppygttPHGeknHu+46bTz9tIq6UH78UU9O47Rhu+2C//43b++qzKefaorG//2fckLULJxwQlibnlUIFPPll4fbRrduwdFHh9seD9xzT/DUU7Ku2FjsLZYZ92eccUbQtm24vapQJlJj2TLd3onz22svRfO8JNzHESa9EeBIiPtz4corVehFpW7d/Js+ig0R9jXXBFttpaOttVbw7LPaaU0hx6HW998P1lkn3E5y0EFhWLP99kqZ1KihEvv5Z+kkwlYk1377qSQdhP4dOkiQTZ6cq8KlkLfcMjzz7Jx7rooaTYBwWX/9fGlitGmjEnjgAUVjMXbaSR2Dr8+ZE1x9dYHED2yzTXDsscFjj4Uv4YADdFbIwUKh8QwaFHTqlP88ksqVg0cflUKiuGhm7doFm26qMqRkKC4+hrA755zghx/CzwOFTDF+911w6aVBlSrhzlUL6oWGhPxCJlKSJtdatdJ0H88qBIoZ3Uw9ooZt3h8q/K238t7zpIGbwI9gB9YQUBUnnigX0KOHQjXDur8xeLDCpyx8840G+jGwRCblgbjUIEomfj3tNAXltP5YtrZQJkwInnwyY5+5+26F7LgcBwXavLnCX6DjEQF/9FHeG7lB7I67wm289pp67IYb6gjJX69WTWpjiy3Cl7RaqrBq1fQ6mDtXCXwCfVxply4K+vFq+Dk8OnEkYTpQfxwkymabhZ4VN4w+cA0C+PpDDwVbbx2+TOWuu8KbmrLAkYHTRvRccEHerrKHcii7uYf33RccfHC4jWyioM4/P2wMRaVZM8n8669XvLhkifagk6I6I8aDD0pzECi8/nrw7bfKmtCEevYMqldXZhuZxYUjDekcNIOKFcNvISsRNy+9FOywg767++7xTAlCx/ZgFtdeO2/Xv6AdaRVHHql/aS3Io6LCydSvrx76xBNq0hzwiCPCt954Q0169mwfGRcZqowWjga1/rUCmDIlHH1/+mm1BPS38eGHK+4cVi3oj4QHNuSE6UNYY1HpYoQZZsMx/uuumz/vno6w0Ub6w5Jj9qMx3rx5+mLUB60sOA1cbe3a+alimD9fdqNCBa1igTHEow0frkszcEbEeFFPQUBFANmkiQrHUr8oDA4yYEA4tEqASkiWGuTj1PgKhYbpIIqOju+jgDfZRO9ibYgbo1FuDIwSBu3PP+NZ/yQFpMbSpZrogBPFf48bJ1nQu7euJAp2+cwztYFHR4s4qOyWLcPt7NCdEAex2zs5FJEoyobrf+UVBabmuSllbHfs6SUHHqgWQ5tzvTQKR+bdWH4ScOcvvxzsv79qy7wRF0jwjTLgwrt3Vx0fc4wGbsBJhyh8xhIwzz1XYDJX69ZB48aa1kql4vM4PSobaYLwxCc1aBB+LAt8+NNPg0suCV8WD86f5gs0X1zOccfJ7yKEYf31w0t2vPOOLoE+7Pwx5UlTLlTxOIjMaBschI6dhVtvDfr1S59I+8ILSoREoTHS/DgNJCPiDPVZKmBZsDhuDRoHTTGWE6J50Fetvd17r/QHXvyMM9ScEN8nnJD3oX+hMfDWPvuE9g5hSuvdYAOdPzzyiLJTfBH1TLuyuT7WewGNhVZAZ1Nr1BctkD90zKuvamfqkB8NDLFLdxg1KrQd06fHiwiTQdXTIMtJKJMKDYZrsTnRFALXQonxL+dMD6Vk6DVRaBVUUwnHvyhbAhszx0DL79BBlnriRGlHc1oITSRmdn/PCfftq6wtHRb/hz+gYdBzMTu0WBpAluSlQZyKJyAk5Xf5UQypTdii7XXunB8ReQz6RYsW4cx6A/eBL0zSq5cGaumwHTuGltDYZZfg8cfVwGhF9Bfqi2qK+bUyBddGBEUbszaMe8I1cF39++slJgIfcfvtui5bv6JPH9lnzCM2vFMn7YnCtfCBGDRalOtTTykJnWTbbRVcRcNdrNxZZ4XbBofllHDEGC40EGy/vew2TpnYxsk4oD/iTDkCSgB9bJMfaNWHHaZL++wz+eVkb41nNaLTJgycLh0Jr4wFpDPQwXLkoIOCjz8OtwsF6xkVdxiFYcPU7U1+YvHRHzQgTgats+ee6qLZobCoKhoZvTo7mHWOhgXJDvVE+3AlyDYNhTIpLXcInDP1R5xNnWCIkYqcP/ErJfPYY5oQFIO2QvNCjVrOxpnRJC6QMggLWrUKtwEfjBapWlXbaOH77lMhR+EcOAH8wYQJGqegCXKGSXeI/kXh0mcQW2hWyv/QQ0P9xOfRENaU0b9mCLgiHHMWaAb0HAoBmU9zp1m3aSNTzmkgunMZeXn4YWks1AAenc/jIcaPD98qLTAHyAgukLMtFU46SckzWlqskWMsuBwaRnSay4svhve+xuCTdJ9Cu8mKxNpAxYrBeefJwePmOb0nnwzfpWG4TCHWgBaLItlxR1kA3DmVSHej+wNajR6Ri/JAiiH699pLHeT557WH7XvuUX1hGVM58cTgllu0MXKkzBfuwdklWi8GHemMaXJwLdhoBx9GoUanRiU55xxdfrt2ik+Abo5ksWEULpDub1qHWJMwgMunEMpVPa5gKJCbb1YJ0H6KDa0O98G/tCXjqqtUEQ5UCFWA/sP0oVeswPlFi/hzKX9CUyxwTKdSucgCtwAWkoKq/+mn8GWhRPO+DlwVpgCfiHrODicTDaWwFWgOOtfff4dLZOQOrRpjDoSvGNLUS6DxmxslXE/m3eNSg+4dC92KBAoIkW6ZZwu8kDn0WKI6DCLuORUiubLLaFGsVkZRonYtC/hjvJQlSMaMyU9klSk0Doox2bhnzVIYNHdu6KdpK5QzRYeki+a+MoHkpxehA7CY6JJCLTXxJe2JMJqm2aiRtEhpQURC2M0xEWolgeiEvk17Q/qYQkeRHHWUagphgXNq2zYl72V9j0LA0FviavPN5b1atlQHNkzOZwJ5REBsQ2llBOePicEp0o9oCZwzF2UTwQh8o3ky3qKVJhM2DnzhFVeE2ysRvGbTpuF28cBuEgh99JFEw+mnaxjRMWOGGgNqGDOCY6hXT1VZkqcrYkypYvwE4CcQ9DVqqORzJDq+HuPzz0MrjIZ2USYi1XkUFD9de6edlBVHuwNtGFmPBiLeM6MaBQNLY7ZsGW348MMlj2i9GC4HpgNbYUKtUChJzGNRh85LDiWDgaJX4sy4TC4Ks4aqJr4H9iPOcE/ffaeUGOVDS8iUgiU44TNY/uzsvLMmlmEEMOz0Nfd5hGmdOgpszPLzLmdCT6Raq1RROWM8cat//KF0RfXq+jlXrUT2u++uSqEKSjj0TERNfJVF5dDrrUxSQaYccICkPCohE7Qxoi/UTyznDVzyzJnhtkGA6ixkdqgd4swYcakBTz2lcqdZx8Y4HBR0shbxXnROCjoLtBK8C53qwgtlTHESxF6AFslFNhabzz5THEMTwam88ori7FNO0Rg8ihXzbf6Gftivn07JPJDlADAHW26pKSY0plLMXnjKA7TGRx+VC0H0IMZtxhkCFDGHDaLvffCB2iqWl0aLZSFUJdyhX2C1+QAeiHgrNrMEY8Sh8HzvvacEFTEEUoAOTwhC17j+et22Y2CYHnkk3M5E7do6ThS6Hk00dXgFi0MTxdcmRRK2zyLvXDIBWaDXI7AQnbfdJsuLY9htt5x8El8844z0pHexIUTDGv71l1yC3Ze0wjAfgPhDMRuY7FgyeORIeQIXHxuUg4U91CAKPvrWiH/vGssFXCwuhEPRtCwyxJxGhwzggQf0LtEC7bBTJ9UXjpMTwJTZHCNsL7aO5kTj5APDhsmnYhUpWGTK1VcrQ4m+wQuwn0bFOfOLsdQpCnLoUIlvvIubOZQddA8HiYYunBvyKPssvTZtwoH7KPQ+bDhtnu7JH+Yat2rjUJtsorcA41/UCD4LdGEKFmd33HEpoxhFom5dNQ8MAn4Hm0PVEDfWr6/AgMqtWFGNKpdpsKNHqxL33Vf/UrPTp0sAYdOiT44gyCfIjIIF69gxf1iEfkR1v/22fDHByfHHK2xD7dEsU29w4/R691bVo0pr1pQcjM73b9FCiY1YgidFahgIbS6YC8CkcurQrJkGI6hXGjqCDuHpmh1enJdJxZ0d+sb996vpN2wY7lkpUMqYCWQssawDN0BJubuZPWsyNFQaQ6pP7d8/VN4WOrhxQHpV1JFg7unb+IOvvpLHbdBA27/9piEkN65Jzy/0STB4o+hAWCp4F9ptatIOLcJPIJVsVh2mmagu2uwzgSzDQ2ATorkEA+F+/vm63vnzZZ44uF04hh5Fgt0/+2yF2g720NcwLJwAVgxZxr9Yq/HjNe6GDbn5ZrkQDovd5Axxgfw0Jhg7SDkXD4QOUAU4Ifwi0T8mC3P86afyuD17Kuc3ZYpSETHFkAqGFb/LJRMy4cnQW5QnlUjtx7waThqLTOlhKhEo48ZpQg9wycnkMaq0e3dNIyhrOPnY7LciwfWiKqh0dLB7EBlYsQDVhFKnMcRgJz7P3Q9IdHf00dIc+BeaQXYoYVpO8aCmCBhwfggjy47QDWkJsWHisgAF1rWrYldCFK4Rf2yzNXfYIaWiiRaIbEuYTyLUIUaix0XFHD4O5UFrp4JQEnaffI5QmxgNyuqll8KUMKqF64rN3vjkE6kcSjWmchwZpYYDm4XsatpU41jff6/8pBlTj8dj4GPMB+d453MqdEQUyRdfZJxGcMstijJzBK9Wtap8tiWBM0FfJnBJZjsmTtQ4xd57yzRzUTbhJguIGDc8ikxv2zZF6xx8sJK6UXB4kyZJdsQCoCjoG0wYemjmTP3E009LpWXxlPwKMoLCxMdjbbk0+zOwmJUrZ7RgWFXiq/32k6TD6OOTPv9c5WAj0wSyaAs8qAuxCPs4k9jABNf46KPhdioXXBDOPU+FX6SiDztM+Wp+y0bHqMQsaXDgqot0715ZQNB4+ulycsgpy8YRnSIj0KAUJtLkgQdUNdlBnHXrJqdIRXBApPAdd2h+GBIw2UqLBA0JjxuNh6dNU3c76KAw1qXBEKw3b67PENbTLAkDqCmbnpgcVOVUaRtPPZUvT1GKfAwpRjjxxhuqyk6d5DGj0DJRz/hpvPWqBaERHSe7Epo3T2VIvJGkcKnh8XiygxUbMECjttnnA+bI77/r78MPZWSxg23aKKeNbcL8FWOcEfkSm2oe48gj9UOAJSC4f+01hYCZwK26CS6YlSLxXBEfT5eFG28MU63GGWdolh/njwpZ6RD53XRTgdOLQsCGZyrGeSJr3n1XwxlOxyA+8GR48bvvlvohXF62TBrl7LNTxqr4cM+eytwkx3oMGhiKCvf5wguqqR9+kCbjRxFet94qJ52JUlE5OOxolAwUowlQm2lYpvEtGmjGDCk81Ax9mV7mOtrcueodNDC69nffKSUAhxwiCYhWMNFJ4bRurR5x223F6aFrCF5qeDyrOQTrWMmOHfXvnXdKT1iYHoUInnglNqAbA53Rp4+CNvzQ1ltLDxF5T58evpsKltcMzDHHhGMHpcUVVygNft11ki8Y/RKGvKUOxULEjCtiAwXAv4S5f/yhaXDR4aSiwqEef1wZ8nPOyTY3ghqfP1/+D11IyfOLdmuxMWeOAmuibYRFzZqSjF9/rQ0kJnuSd9vi9WfOVMIfVTF0qOZM/Pmn1N7++ytVvl7eTaRImSf/vZkoCxykUiUVxUknaVoAv0VzgvJWfZmYPVtFUeyhnDUZLzU8njUOfAN+hTisc2cNwSZBSbiZ7biBwXm3eVeoIFcUA/vx7LPhijZt2ijAJQxt2FCu67ffND1i+HBNaCCYNqdSWuB0uYqizg9bieD7KZAVmTZHcPC3wopozBjllowGDaRmeHnoobrkyZOVkjnoIO+k11y81PB41lyWL5cU6NMnnK6PmHj11TBZvTTvgX5ojieeyDaXwsCK+NSxp0ULqYrHHtOUhYUL49MUPGsyXmp4PGs6xL5vvCHZccABBRZWiI1bezzZWbxYf7ncoulZ0/BSw+PxeDweTxmywp8J5/F4PB6PZ03CSw2Px+PxeDxliJcaHo/H4/F4yhAvNTwej8ezpvPrr/FVx6ZPjy9CFON//wsfG+MpFC81PB6Px7MKg7+3h4gA/44apZVdi8Qvv+ipYhddpLuujNmz9Zz1q6/OtkDrNdfoGb6FLuZeEtA6F1ygJ5na1a26+DtQPB6Px1PumDxZS+Q0bKjbrXG03bvrcXN16uj5p1ttpad27rKLnhX74Yfho8N22EFLgXburDu3t9lGi4R9950eg1u/vjSEsWyZniO+1lpave+II7Rax5tvarUgfDm/Ba1a6Yt77aW1eY399tOvXHKJVveIgsI48kht3H67Vkspde6/X8894xKMnXfWkis5QnE9+aQeCty2bdk+0z13vNTweDyeFc24cVpmM7bwhwc3/+yzWg11vfXCxW/799dARo4LwbdurUe/G3ffrZyE8cILKu3NN9dqJigYB1Ijy/IuUU48UcLio4+0Atymmwavvy7d8+WXeuvSS7WYXBR+Age/9dbhy59/1iIvxx+vJ5tlcvz4YXuAjW1MnKhnzyepXVt5jtQl9aN06CC9BRTI2Wfn7VrZeKnh8Xg8K5S5c7VOLHz8sfyKczPlhxxPadQouduLLpLPLuElEMFXrKjBgtJihx0KrPXDy06dwvXSSkLlysGsWSqfKCgYVEizZloJefZsiSQKZMwYZVwGDMif8IHcadlSZ2Lr1/yd9+i8rbZSuoKSpEmMH6+lhR5/XOstZ1/L99FH9TzWAw8MNtggGDtWymzffTXW0769qgOZxXGAnY88kveFlY2XGh6Px6M1SghwXSRaKG7p0WLwySfhOvIc4Zhj5G9S49Q//5SznDRJG6edFu4sXV5+WT7JBb5z5iggPuUUDR9MmKBYHLdatWrK2jeweLGGM4z99gseeihfbVCYa6+t59zH+O03uWQcLYH+uHHKYRCmo7dwyYU6okaN5MJ//TVceDa2sPDVV8u/GtEVfArF8gRQv75OjzOB227TIkGUeVHXxsP3z5ihQgPOE2VD3aXSr5/kReoadeefrwWZUSqAOnn6aYkkiiuVGjXC5ApqY+nSvF0F4RKoX04sxtdf6++XX6R4Lrkkf3V4zn/QIK1iU7qLFnmp4fF41nRwtyeeqJVXMf2FDmrgxp55RkvQHXuspgIYy5blujQ8nhXLnqRnz6Bu3QK5geuuy58xQMiLe77rrvQM/Isv6qwee0zbRx2lPxSMA6+MH0LfAG5+4kQdBy+I+zFX+uqrmtyAeIouABvj9tslifbaK7jwwnDPAw8UiJg7dtQYweTJWvT1xx81WIDHmjJFV8TpNWwo34m2wJNlcopZeOcdOV0HXmv0aGkgHPAtt8iVXnmlNqZO1b8Io2bN5OO5WLaHDQu/5bj2WhURzn6XXZSHuOoqTYm47z6lIqjQc88Njj46/CQXyGVSLBSOFaBj//1VKZ07hy+Lys47SzBlp39/TROhuGytojffVDnkznbbaezJOOccXSYtgatDUFL7jz8evmUcdFBw/fVqBiefrI/tvbd+PdmqeWv8eAm+I48MJ69Mm6YVjJOyMoaXGisIqpyaa9XKL0Hk8ZQX0BbmZojh8Iuw004a18/CokVh9tvAie64o/zrWWeFNywUCr9oAWsqKBg8BL+CHEETxMCAXHSRfu7114PmzWXrEUlt2mjt3Bj40X320QZhK94Uv2u3MHB8jmxh97PPKvMP99yjq8Z554JJIlwv7orgOwpq44MPwlkCkIs3jVGlihzewIHBnnvKpeFZOcidd0q4pIL7Qs1QBS4oN9A6wNG+/VYK7NRTg759dUA47bTghhu04eAgXE7qQva8RWXVqKGi/usvCZHNN1eBI0qAIkV48RMUI791881530mw9dbBZpsFX32l7YMPVo18/33eGxFw1VQlV+FugUFkoGij18XJUJ402tjUkCioIkvM0EopFqcn1loreO01HfCJJ8I9OYKWondwpRyBM2zdOkyiwIgRqu4OHTQkREdAU1LCNN2aNcMPRPFSYwVRv74ycoceWsgInMdTKNgaog0iiVUUTNWnnyrMyj4AgXUz64+Jx4oRvxJHmokvKsTQRGNuJbnZs+Wf+HVO4+GHw50ODChlS2BgXRVLSpznuPRSDQE4NthAiQf6tXHHHRpK2GST8GUSzO0xx8gUZGHAAN0fQTCdBKeFJqhXTw2gSRN5ZcRNpmc/EOg3bSo//dJL4Z4YRPZvvRVuFxuEBX6dYikJaJTddtPVUeME8QZlNX++5mBGMz0lYexYld5NN5Vm30EZ0D7tnIcO1Qmz59131bSgenVNcd1yS30GP43a2HdfXaNTq+i2xYvVMvfeW6eHoqLhvfyylMdDDyltkwrCiKNVqqTW+/77wa23KlXWvbveevXVYP31JSIbNdJlchB0YY8eGoajlfITxYCG1KePqiMGog01bBIKBYwAsqzYkCEpA5FeaqwgbKgMaewyoms4tDsMLnbEUyQWLlR2d8MNZY9WObVhJ29gH+0WA7zm558rcERCffKJrDB6grgT60lERYjmxrOJIF32vki4CflsnHSScr9Y6iwQpA4alD/KzllZJjmW0jCuuUYOw0E4njoAbxBbE2Svu67ExHff6eruuy98y7HTTlJCxWPbbaV+3B2SlCROrnigtCgu/Bn+EgeWCRtWoKaigqZaNc0DSIV6h112UY3MmSNhB7GxidUA1O306UrJxNItRu/eyi7suqs0QVJIUfuoVUo+d2jPd92lA551VrgnyiuvSMxFqV1b7QS5P2GCpA8tFg2ESTFQY1265OdXcoR2YnkjG6yJ4aXGiuDXXxVAGKNGlZcbnVcANFY6UmpQgh5/8EHZ3LPPVrIX6F2bbaaIDXdSWnEMrdsOhcHFVZTWYVcieEFzJPhps9qrBLQE7N3Uqflu+PTT5aR/+knpfaAlbL65BvIJ1rFZqbloavC11zRFjq9gK5PYfAWCLcJEXB2RJb8ybZrGp0sCUR2+IXdiEwsctPP779fGYYflH5CS+egjnTCx75lnpouMHXdU1p2qT+ZgDA5IdHv44ZoauWRJ/mxNBxEtpVqzZph75/QQdlEoT6T/VlsFLVpINOAtbBwHscJf06ZK3eM4584toNLceBOyjHMjIjeQidSgG0kxbr9dYzrbbBO+BL6FoME24ufWKP75R2NeyOviZemKSnQCrxtZS4I8Qm00aKAYhlbEJ12FxkCsZ4mZ11orHMSJ4qXGimDcuPxnyKBVUbKYFUxMquDNkUce0cBb69aK0oxvvlHzxVJT099/r9nj2Fys3t9/KwO8ww6ho8Wat2unCU1Y4TKCNvXiizqHgQOVT8YGWVCIJ8DG2QQimj4dIBXa99ChmgP10EMysjEot0cfVS89+GC9xExzgZhaIDaiiaNUbCoTMTSGtWpV3UHXvLnGa9u00f6VBeeJicGnloToTHJL9a8SPP+8BheiUGX33KOmaHGtg1aai02KxsGYSGqWXoZY+fnncGcxOPHEAuF7o0aaixdzyQZdb731ZJdtLHz99Qs805rj3HJLuA00+169JCP69Anz6rTwvffOe68gnHzDhuE2Fh9rTnemF2+6qbwyYWirVuGTphx0dk5ml13Cl0bydoMPPgg7BT2RgqpWLXz8lJtOkXoLjINgaeJEzRzk5+jaHOGYY3RnRPv2UhsGSqV+fW1QbuynUjBBXOaddyrXQu9LVYeeFQPyccwY1UuW0b0kmNPLLlPDO+88fRH/MmGCWq+N3RArwiGHBLvvXmAKCG2YKCgW160OUoMriKbi3RBv+YHOhrxwYInoeFddpencxFtJu1AodGObOo7bfvttRTzTp+uObbj44qBWLQUlMWxkF1wTodmhP4gnMB/FgHOgnK2oMabYXNy5TXq1GMhx6aUSyJwVumfPPdVSscu52B2O1qGDGjoOiZgMuYbZdbz7rv41tY40IWI2PXfJJYp66RhEUYMHa48D7bL//uH2imHAAA2Hc/5c9ZAh2lOxos4hmnLPEdp5t24y9FEoBMrH4APJtA0NY6ONSkeRcHzkAj6PSsmeH5ozR15//nz9NC45x+rOwm67afJdlCOOUGMgwkZ6UizZB0QAbR0LsnG9N94YunxaLC0TCYsUICKnsqBTJyVRksPbWNLbbtMGP216F7n/+ecFnuLQo4cUAEfYeuv49A5kB30hFUoYd26gpTKZsr/+0t/MmZqAYiI7RtKkJEcoKDHaBlf9wAOabMEVuUkSxaZLF3mjjh11WM/qDW0VFzBrllLR2LRp03RzL8Fz27bpxmF1kBqDBqmJ4zhR008+qRTlffcpTYeZS01jFptFixSVZhpCyyJxTj9dk8YxiES0qXPU8QSceTS1GIOf5vgcBNdFREJM79IkOU7zpihQAxwhNvv6mmvC9AbGaNdd033SwoVqRieckD+xbvFi3XxPCV95pUKWrl3DackcDTOXPV+Cpa5ZM//xfxznwgtVdASCxF5Z4IdmzAi3Y3AE1EbU1nNYjpaMcd3j8/AT/CH2+Wk+nN135o7z95jy888PZ8KngtBs0UIFnmP2GP99/PHaoBz4M+9l1UpkiVO0SJqiwM3TKb77TtE2LadyZQ1elBy8qT1hiR8lyqGX4Wj79g2vF7uDu8JzIwtQe5bSBz6AX3TN3sqfknHz2KPg8u3pyxyERkUIgTx99VWl2a3WikRUXphisPmb6HvabRYoPYJ4pDka0RLFbhwaRo/O98rm1FH2HHDuXN0YEp33XaWKCio2zvXCC/mZgCS4f75CX8vlZpZMIEBpD8g7LAMb9erFe73Hs4IpQ6mBV+bYmbxvycH14v8I7l2kG52fRciCP7bwvVQgqCI6waoSVuLwdt9dCg47/sUX8ruER3DddTqZ2LAI3h3Xy058IX4FFzt8ePhWDEwDwRAlRvhrk+ZwV++9J48YI8usK0erVuHILsadcC3LmkAjRoST9Yi2ifsNdmL0CcsstYDJ3mEHmWDqFL+1bJmUUwmxAzo4MvrJMsxU3y67xHPFpQW+mZYzbJg8pXmgo45S5M3FoiNnz1Y97rNPONoSlSA0ubXWKrAnytSpSlYBnhiZj9N98828N3Jj4EAlqEaN0kzyVNFJvEidbrqp2s/LL+tsjfr1NSnv5JPDOxhTQVEhO5AguYO+pCmiJk3jbrllgUc1RLn5ZuWW6Hq08Oy4ER+OSW+yugY8NKWH5KLekVAff6zZbTHVaxFFJg44QFl948gjJRHs6xyNroRoqFtXL//8UxKHD+c4dukEHPoAeXfttRqPu+yyvPfyeOop9VbkFLEdROe9ZoJTyvHXSwWnfT2elUhpSg2O1K+fohDMxB57KOgZM0ZRuAuFSw5Od+ZMGREsIE7R+cVMlLBX83O//CIDTV8larEozSAORjTgxWM3oyNBCGuIw4jqsDu4LpwHigdbfNdd4WcI8rCtt98evoyCf8WLR6PzHCGW5YuNGuVP3cACEntRXOgS3ADO1VGhggw3ji1puxs3lpfFGVumhKtAzLlRdoJOfiU61Tw7HA2l8sADahtJXEIlCqc9bZo0B+ab08gE5Ry7pz87Z56phHah3HOP1J7lTqiL77/XHrtNHO9Iw153XXmXmO3GgeEjEWTJhwVFobRxgbmAAIppGoT7FVeoPSOP6FmmX4sNaoZGyAkjqqjTJAhTtAuK5+mn9bFCNUQutGhRwEkDvaBPH81kzHEpEMQER7j4YtVF7F5QSp5egyxAICZvEik2tFv04n77BVtsEe4pFLu5IBP3358/ROLxrDmkSA38KxYNiUBU7e6byIXBg1PcJ36LUA//geAg9E/V15zCBx/II8bimCh8hlOypAWfxA/hXN09XZnYddcCLhY4DjETR0CspMLlE9daEsJyoXiXt97SkwEXLcr7xL+8+27+tN4sWOoVXYI6iWIzNy+4QEkRe5BOKljh6dPjP20QN0+YoI1oSnbOnNDaRlcTePFFpaONHXZQftsmcFGM9oTB4kGdcm7GOefoQtxMAn6COJhfQe4sWCDXyJ7jj1cSHvVjvPFGNguO/+7VS0quVi3Na+GiaJZAW0K+0JA4zq+/qnwI8a3hJUf0jY4ddSavvJJfCEWCaJuYm4jWhMLDD+us6Bq0IqAeuXZ+2uoiCSqERnXuuXKTxx2nNDvt/Oabw6xJJjg+goDiohFefrkUvN27gaO1mkWO9O9fYAyeouYkXbYjR/D31FQUmuvAgdoPNf597LEjR9GWhPKvXDncLja0CptXO3Kkxjg23FDFsu22UqWptmXFk5yYQo+jDT/7rEwWfx7PGkhcakRvj8YZY9ZjLvmzzxT2nX22+s9//5sfjuBLmjfXeG0WbrihwLQ+B1aD6MrAIjdrpiwx57VwoYKqP/5QZjh580yUli01Hpk6moti4KwQJfR/giGcBKeBk4hFHpYlRpp06xafSwhNmsj4YsrvukvWP5lNIQrPPlhDSSafauJAhMWS7VwLtp7Cv+MOnRVeHJfz/PNymfbJww7TbFPKB1WRZejXwCjbRFFCrug8MgqZ4BhniSKkQrPcPZ8KzhIdOWOG5osYX3+tZEmrVik3ceFucQbvv59/yzWaL3f3wKl+9ZU8eurtYZQPR+bScMk0YOqLIj34YGmL+fM1ZA6cANs0KmJflxHZfHPlaZAsxeDWW6Vy6BEOfpFypiTxqVQcJ0ztNG6sNBLilYv95RcJLyoUkEoUOLKJ2jGJRgtB5jo4gusXjqg+46rRLu4WCToXbZuWjDBdf31JH1r+P/8Uomk220wpLnw2H0Z30qmzt2R60LRpOtUvvlBWLxP33KNmyTEt+3Lbbfn3VpQuXG+WUa2VApqYTkpJYjRQfsccU8yZ1x7PakNcaljUFYXeYpbawEy/9lq4DaYePvhA2V1AIhD5XXNN3ntp8HmCezoh6oFD4aLolsUYL4hh9ve33zQLL9MaNhtsoIDDXS4mgIt18BK34Z7qmgqezO6Gv+8+zX5wXH+9CmHcOAk1rHASov+kfIkyb56CVGz3Dz8oALJEfQzOHKtK0eGBEAdE/LiT3EGmUObExzGrh6Oi9PCI/CK+c7/9VOOoB67luefCqXD4HmSBW++AT6KE9txTSZ1ijE/hbjnyscfG79BbwRCscxoXX6x5Fbh8Lvzdd8NqRQr07au/os6mRInmkuhKQvOgctFt2bPrrgU6pk9Xk0CgoFfoWckm8ddfBcRlKqhwNNkLL0gfZMfueHJ07y5rcPfdKiu71cKl7ly6BfWJOj/jjPKlBlYAiDx63LbbrnEX7vEkiUsNxDjh4PbbywS3bx/uRD0QmRnNm8cTxfjdq69WYhMwOocfrkSx5bpxXc88o2F1XCMWx4Fpy/Qw3exUr660B0rCkro33aS4/9BD46kXAq8dd5TncGv9JeEaTRYQhnIymR7Ph/V3gwJu4joxsXsoGzG0ez4/cfPtt8vI1q1b4O5W3HaDBuH2KsTPP6sMTzxR6RzCUwQHcepJJ63OpnPIEPlyxJzdFdL/36dT50iR8jSpxO6LjlKpUvEfI43P23xzDeVMnqxpDY89Jo143nnK7eERDfbQgI1LLtHcSTcGt88+kum0/5o143dgmfx1DB0q/UEUUYoTJjwez6pOylyNuXNlkjAoCAWXwGBj1CjdEPH44zI6STBkBPf16mkb64PnJmaNmt3YtMooKA+sWLVqMvRoiGjWBCvG0dAuSBxwByQWJzrHBWZh8WLZO2c9i8HLLyu/TVBoB+nZMzSgnJJb9QBRlRrZcy3IHVQIQXMxQn9POWHECCUMnn5alU5j6NZNOapNNtFkC5vNAPvvr7ES9GWWWyRyJDUJccMNGmSkB+U4fTJ3kk/WAvqjafQXXlBHO/tsn//3eDwlIkVqODLduIUKefNNef37788fR8g+xQ+w1ETJKIkOHcI9Do7mHmG2aJHmna2/voa9jzxSae2SsGyZzpPYFE+Av//0U6ml6H1xUTbdVGP5rVvrgQcIhVatwtkVTz2lKz3qKGkvJxoI+whhjz02/UYSz+rHggWS4C5/ZhOJdt9dEyc320xZPYRvqWjKvn3VPtvlLWZdoYIGcZKjaaWFu0HX0bKlWn40UeHxeDwlJJvUADwurhSVEKVZM010h1mzlF2Hhx8ugiZwN4OdcUaYK46lnfk5THZZZAJQHkSiRJ+jR0s34CQw6Jh1m+SPBJk3T9M1oieTidmzNbWC+M89q9HjKV1mzlQvyDKbuFSYMkV5Sps1DHTJTOtJejweT/EoRGrAP/9o3kZ0mr09JbDYLF0qkfHHH5oKN3y47t23lWc9Hs/Kgs5YqZLGB3PR2R6Px1MkCpca8Pffmiu61lqSHb/8otGEEmZ07SkRsbmcHo/H4/F4Vj9ykhoej8fj8Xg8xcPfGuHxeDwej6cM8VLD4/F4PB5PGeKlhsfj8Xg8njLESw2Px+PxeDxliJcaHs+qxAsvaHn3Qtc09ng8nvKDvwPF41ll+PprPULUGJJ5reDZs/WQuqlTtSCRf2iNx+NZ6Xip4VmdsdbdsaOeDXPllXpwXKEL7hebadP0dLvzziuwUsk//+ipstWqaePzz4MDDyz+M2m4lti6r2711BgdOmihAEcWUbJSePvtYMwYPXE4x6LgMqm1zTcPX3o8nlUOLzU8qy233iovS1j/4YfhHnjtNa2ahuP//fdg443lv7M8H/Onn/TQ/SZN9Ax7A8kyb56WO1l//dBT/vyzlgM84QStR2iLHg8bprVL1llHH37ySa1pYo+/M/jWJZfocfiHH671fqMPsmPn449rRWXOMMmPP+pMotx2W9CwoTb43e2207Isp52W90aCpCjh3ObPD7bcMnzp+PNPrcu6ww56q3bt9DPJnd9+03KDjuXLg0GDtGQdtG2rpwYbv/6qB6JThlyFgw//5z/BO+/ok9C6tZZT9g8z9XhWRbzU8KxMZs/W36JFWnIPh530fIVC++UvdcWcAw8MN2Lg7I88UnF/nz5KdSAa7r9fgmC33YLGjbXySIcOQdOm+ljv3uFXWrTQ8uvvvRe+NO66K6hTR19BkRQb3C0nj0y5887g9NO1J9Ni8SgAW/S4Zs3ggw/yduUppxEjtBBr1arZJnC0a6fropBnzNAaih076pKRQcDvInps7VaUGfosyscfa+Ugvrj55kUei0E9cHB+6/jjVcsoiSi77qrFGidO1Bq5yDWDGtlxR/3cSy9JpvCBqHjq2VPrTn/9dXD11QUUjMfjKed4qeFZcSxdKpe29traJmYdMECuKMpxx8kp4vunTJHvJ0yfPl2e9aabCogJguD11pMUwAs2aqQV7556SlkEnNPIkfKmjz2mUDh28FKHX+zVSymKsqBu3aB793AZ95YtpUWuuUb7r7pKS6Ohk5IrJMfA07/4oo5QKFttFVx3XbDPPukrOTu42Guv1QLOqIRatXTkb7/VAvqIrW23lURw7h9hgVzg80a3blKTyTWQGzQIfvihOFNcDz5YY1Uej2dVwUsNT3Gg1dxxh1zLxRfrJT7+nXe0ui97CMrxjg88ICdUu3b+cuTz5ilCPeAAKQC+js4gSE2CdJg2LZ7wr1EjeOghHYr9uE/cWIwmTZQUOeKI8GUSgnVCfzTKSgRp8tdf4XYu4KFvuEEbjzwSXHBB3q5ASxNvuaXyKDj4LKAb+vXTRp06weLFebsKA8c/bFi4XTyqVQvmzJFYbNMm3FNaREegjK5dg112CXbeWetLjx4tkfTppxpj4gQuvLA4EzuoGpqxnxHi8ZQFXmqs/ixYoH832STvRR7Llima/PPPoHLlnGwrbSQ2Rk4kagPt99yjLPeXX+btDZSxeOwxORs3ptC6dbDhhkHnzuFL2HtvTWVwQwArgJo1lZnnej/7TBH5sceG+4HrytID8NOXXhq8/LIyBI7NNtPEzzFjwpdRuLTmzcP0g7Hxxor+x42T8EKE4Rcp86lTlZLhfJBN0SPnwscfh3Xx4IOaRxLjkks01rN0qTI9xuef58uU3Ln88uD77wvMLS0taIfI0732Cs4+O9xTKM2aKZvy1VeachsDgXvOOSkDWMOHa/Dr66/V+Bs2VNILXnop2H57bXzzjWa3oNWirfq224JXX1WrtqkhkGz2Ho+neHipsRry998amN9hB20vXKhpB/PnSwTgnGrU0Lh4kyZhpLv77sHTT2sjCy6Axl7jt3Db+EtcUSlSq5ay6wMGKBcS5cYbFbyWBLwUjj/mMJYs0SXMmxf07x9cf71KYNAg7X/rreCoo7SBb+aSoxNHpkwJxo/XDA8C32220R4EhE1vhP32k4iB7t11hBkzQi9F4eNTs8NnKNhNN9XMD8qWokhN9hgUEaG8Y9GiMJHDiVGzCJ199817oyBcizljrnf99dUYuBYK4aKL5H055xgDBwZVqmgDgcgHSsJhhwXvvx9uA/LissvCEbSrr86f+zJ2rHJOqJAzz1ROYvZsSdi//tIH8P0UjuXG2C7hA0U6dFABIgcN2gYq8O23w5cG8uXHH4MnntCtQ1QxlVvqIM3pSpRG6hwjj2f1w0uNFQexLHEtYW5Zg8N+5BEF3xhufAxBubHVVvJV+Mh77w33wA03ZLxtwcg0ubLknHiifp343kAhHXpouA2tW8sWz50rYYRPzQQHoWBdWgVOOUXO49dfFe9edVW4MzuTJikNgDijN+CJ8W2FhrN8EnFA6I+bP/xw3U3K+bvRomLA19daS7979NHSH0kaNdLNKTE424kTNVwSvZMlBvIIxXbqqelV2apVqJOMFi2kBqJMmybf7MaeaD+IAH63QgW9RQl89JFSDjGoWWpz220l4J59Vl+vWFGzN/iWgbgcPFgbdk+Qg4LlL9UHsx+R9Mor4RfLCDQQuscRk3eOpUtVbvvvn9+Ac8cq4uabg5NOynvt8azueKmxgnjuOUWrBMpDhpROKEPoSdSFWUS+jBqldPGyZcpSEIT16RN+JkeI6fHWhLwEeXvuGe589FHtuekmjYYUCpf2xx+KgInVHBwNTYNFNtAEZ50l6XDFFXr52GM623XWyXvvX7givoKXQifhmayg8ME4YDzTq6/qJf9ypZQkP3fMMfokP123rt469ljNycDf49g+/FA7i+EGVjroKgTieefJs1atqmKcM0fbRxyRPyxSilC8uExEAHoL0Xn55SmqZeZM3bEybJh8ZOp8TJNZY8dq9OHPP1UvXbqEb2XCcmPoSLvvJncoCuQLmiOakGvTRnNFW7ZUYyh10FLJPnvHHcHzz6tJ0we/+076DJVmo4rZWbAgqF9fG4hUDuLxrAl4qVHmUMDXXis1YFjUiAN+/HGNu5tvvvJKheCFRtKO6dMVuwPOFV9b6CBIdnbeWVM3jAcekDvhnGNPiyL2jc4MOOwwWclvv5UJ3mKL/KiUQJ8oEINLDL399joOASKiITpd4Pff5cxyv1gDjdKxo/IcmW65xMOtisJiFcLlXbKwfLlm4WTPspQWfftKsMItt0jIApoMVbT11mEabJNNNI+4fXs16VhO6Kij0u8oTgU9QY+rXl36DxU7caLGH6+/Pnx35EiJBsONPaUyerRydUlQaWh6ugnnWRZq0uNZ6aw+UmPhQpkeXOCMGQqq8EwE6KWSPzAoJywFBjQ2dottJbgZPFhpakJqQqsYhF/IiyiEcZzt0KHhSwOHTdiKKLFzxmLycwS1O+6onx4+XH59ww0VEmHK+a3srLOOMg3jxqkQ9t5b30LKOBABnDMGbsQIzYeIgaqYMqXAXR777qsRGVi2TP5m/fXz9qbBu6ioFeBmPJ6i8swzksJgU2rGjNH4GhoF0YDFoOkii93gkc3bjbHLLhLKCJosXHqpJsckx0n/+afwB5PUq6fZIfaME0DQIJWwA++8E+ZLMC/06Exqb9YsKaHow2o9nnJC6UsNe8bfigFVcfnlGtuuWVOT+WO36hH3Y0R++UUxN50TU/LRR4obYkl7g9PG/W+6afjypZf0gCMM06RJGofGAOGSbRbbCSfIGW+7bd7nAn3MPT8AiPVdiGNcc41SGkRat99e+L0AvXtr9LdpU0mNInHvvRoa52L/+iuc3mizFw2u3aZBEG6eeqoeqWRQ+bHsRRQUSYUK0hlXX13kJITHU95YskTTQmnwzZqFe6ZO1UicSWf6COL7wQf1MSQIygCXf/PNxbwNB2Xw7LNasAaJT69MDhK1bBnejRxj551lTzBZr74adOoU7oyCDeGYRB1RvvlGxorQAgh7og9dBU4Ao+dmyXg8K57CpQYqfv58xdaF8vPP8qY0dxx83bqaPoYIKN0lJ/CjTzyhyfaWPEBnjB2b90ZW8P0dO2rmAaE5QQxWYLfdwreA0IEg/v33NXbQpYs0B8ccMiR816hTJ3j33XDbuP9+2SxMFUaEWD8KWmSvveTROSYHv+UWfeC553SbZeyE7cQIXFxaFeu2+eb5D0/MAlEXZ2W5h549sz1SwvjySx3WBomjfP+9xBAyC5HERnSoG71lNwd6PGsmDz8s8ZEJelPyES+FctxxmqGCEVu6VEmIadPCh9MUCTomhgVbUbmysjX33BPuN3h5+OHhNl3bnsyG9Zs8WfYTIYVpQgZh1ZE1WPj27X0sUe4YMUKDcalTklcu8+YpJreEAr3j66+DHj3SA/go6VKD1tm5s+YBsGF3G6LQ8ZRZmuOECeowbg6g46yzpNPHjFFugA5QtWq4v0jgqukPeHd36x1Ocfbs8Hb5KDhg5EjymqpVU4lE6d1bSQ5CdqwJMUGOuMc/I1aeflr9+c8/pXv69tXvIi84qyQ0lwEDtIHyGDlSDYgz3GMPRVHG9OmSOE2bKrTKRPXqOltOAB1D4EXggkJq0ULKBqNTWtg9nBQj2sjrDM8azqJFMoOYNdQ8Nsdx6KGyZvRfux+Yt+ibuTwpBGP4/PPhtmPUKE2+xoCUIthGLAx2ho1o2jWKm7AycKAegEY0Qiy0/vr6c4M4qxwLFsgyN24sEbbqQkRKXUDsYYalyMyZmhiUekck8hefS1s1rGWamEAA3XCDdMbJJ+sRwzVraqctPpCduNRAZeNjUAYxx3zOOZrASMhLwx0/XlMR11tPPQ1ZPWOG9ITNw6pYsZBpBM2b62+jjeRT58xRkt/kyw8/6Hpio4x8Bs/HKdE5+TcLiKz588PgfupUyYgKFXRidB5LhMYeNVg8KAQCAo55/vl62b17ODXMBi/APYIiCm77jjv0vIRC4TLdjPQNN1T6lLpAT1BQjRrJGCWlHqVNYZbulJTBgzU8lJx04vGsySAp7El0N96ooCLJ5MmKW7LPNj3oIIVMSSzGwErELFXr1nqLcIKoDwvgpm+ncu21ii8duSddYhaySRPd+E10x+9i7tjArKWKj9GjddcYdq9evQJPxisVhgzRxPn27QuPmA1s1yOPhFkoHFNsMlxRMcdY6smeV1+Vr4zeqUSgi+8jkoR581TF2F58Sv/+2vPiiyrkww4LpxvjDh5/XOkoPA7ukgif4NayVqkQwSIiaZm0WHueDSBtaSpcIHvwaMThu+8uPwU//xyu4IjcfO01OXRi6WbN9C8fe+cdvZXkggvCzBwng9siGL700rw3IsSlBk6UtpUFAvTvvw+3ERwvv5yfqUNFPvqoYmJ3t0UmKFbcJ1dld5a75wBywQTrW26pwUV+KLVPRjnySM3noiegsFLd7dy5Kk0U4k036eWuu0qpDR+e915BiOCRclGaNtVEDcwK6pLzQQDSb60+rrgi/2GX++1X4NYMxCCt8/TT1SYQQMgRmoWbAlIonDB1v9tuSlSUeiv3eDxlzbhx0geYCBx29NazGjXkVPr1yzZtc9YsRS8W5t1+e4rzfugh/VWqFA+9sOwW/+DGCh1LLR547tiThQcNKnBL8623yv/hT/ACdetqG2WG70T9uPQt5pHtXCwbMbc9dASpQaDFYe1bSK5kIM67CMHY/dU4P7wDfgF3a88zTMIXlyyRbWcDX0aAhxa86y49/h+w9kgonBROhDA7OdudmiIqozqygHtGMOHsLrxQU3BsJh8h9E47KW5/5pn8WcbUuPmprbdOyY5ffbWaB8GngfJD1Fpdn3aaGgCygKtAyqAJ8HQPPKCDU2g2Jk6Ef9llcmQ4I1x2LIXGlVK/S5fqY5yqo0MHxe3Z43yD0qZ8iPYhNXVXQGosXqzhfwNhknwsT3ZGjFAjoG3hkvfcU5Mo0V/ZoTmiyCjiHLnySt1pZlJ9n33U61K1dgwukTOZMUNfr1BBL3HkNCZaMIKGKj/gADUm1BylbDfKE0m47oH2euMNKTs37wSx4p42ER0WdSxYoD7vByA8njUQy6Qa8+frsSW1aikNXIqMH68HnGBs995btsgFrGBPWI/x4YfyLlOnyijhovDBGDE0wSmnKIDOhW22iR8WVRRL4eDRcX5PPBG+NPB5OHuic/vwOusosCQOxg5//rk8BQ6ebYw5bps4Ezf52GMFHtiPv+QD2GriOpw04GvYiZIjNG3TRjIrS76HXxwwILTGmGXCP3w5fpHYGB+Hv2/VSuNf7uajGLhPAkvOH5CPeMbatSUvvv1Wz0hEfg0eHK9c1APOm89MnpzxsTHoGxxuaUE5oBJQdXbbFI41NouRqqlZMxzHL2u22CJlMnU8q4HEoxyRcnfcocQLETm+Ge9LjO6oXl0NPUbqU25oYVwb1dCgQb6IKRL4+4MP1nc5TboK1Ybyeu01jQyVZECRo6HvYiKdpoPUQDcUKrq5LhtfqFJF8q3Qz3s8Hs+KAcvWtWuYTSGMJhbC9Gd6SDGW8LjjJFncIgB43L59tbHZZjK2hx2WPwqD0dtjDwVsgKfAGhO/AVHfF19oIxX0QfRxtDGI9+rXT8m3Fw/8NxqFaD7mUzntE05Qtphr/PHHcGcW8HHYdjzg9Onhnii47f33z39kLQE9/ui33/QrKEtUlK0D0KJF+NyXUge/jGosO269VX9RaAbUO3rOYuzWrXUvZ6bJSalTN+JSI5XvvpNQRc1ZeqRzZ+nQfv1CwUG5d+mSLStooA/QsDjy77+XHmdj9OjwLbjwQslzPH2NGtKtL78sYYGMRRFH1wkrPzz5pIQbgix2X5nH4/GsdLDrSASMaqGzI7G6f/yhpPe4cYr18cdDhyoJjz8zsNvRu/RbtdIDQtq2DfPqQ4YoJ4/sMP9aihBJ1q2refQ50r+/rhf+/lsexJRTkejeXUPYyAi7RdHmyOfOllvmj4YUG5TZN99IGl5yiUQYwfY1eY9LcKCZ0AHvvafsexbw0aeeKr9cs6ZyBzHwv9Sa3bSBq8XPvvqqBqcAAYGS6NVLPg5iz77jTGhRlA8NzB6UcOaZ0nYOSuyoo1LC75ykhkEozxnTKHGxyGQE76BBEjvFvp0VHe30cmye7axZyvght21uhMfj8XhWCs6ppGKm+59/FMHjsUoLPNx55ymQW7ZMYxx4HBwhAuL66yWJbHoc+uall8IhgyZNwkn6junTNY3v/ffjc/7w4uZToWJFTXR49FFt7/vvgwod8+bJryNcUF0LFhT+4MRUBg/WGSIOJk6Udz//fM0ZsFk4J52kdM7YsdrD8Tt1Un7ooovyvhZh2jRN/TnjDD2pYfhwDRHYk2CQNTNnaiwJPbFoUZgI4BI6dFBeAKXl/H27duEMRfzpE09ITiEWk2qAip4xQ8NY9haXz8E51UwpMc6cGrn8cp0hhY82qF07uPPO9HmTRZAagP5dsqQ0H5Xx7bcqXwo3Od3B4/F4POWBzz5TMiNJw4aaGmLgkpEaOAh8D14Qj0VEzsu77pLnw0GutZb2fPSRvB3/xsBT4ueImJMheBJi0c031wwVjt+2rY729NO6qyAVpMnVV+dPjLjppnBVBwQHPhvvi0/l3e23T/G+s2drAgC+FsWDt7LbF/jpc8/VQUaODAca9t9fqQh8LUfr0kXSZOutlScgFKccANEzdapyReaGmzfXPQePP57xnIsKaqZbNxUIAXzyKmDyZH3gggs0jaMsQEek/q6jaFLD4/F4PGssDz6Yf8Md/rVXrzDCLiq4+fvvV1g/bJhcOA7SjdcUFVTC/PmFD2QvXaobFW2CasWK4c6iwqkiO7bcMnz5zz+aCrPHHuENornD5f/2W8b7YlZLvNTweDweT07gXN/Mu+cfhVFG8XHZ8csv+nezzfJeeFYsXmp4PB6Px+MpQ0rvMZMej8fj8Xg8CbzU8Hg8Ho/HU4Z4qeHxeDwej6cM8VLD4/F4PJ7Viuj6edmZOjVcrtz45BPdHlzqeKnh8Xg8Hs8qw9956wBn4YUX9DSt6DoymfjxRz1U9IwztEgsjBih56zzl2nVVXvs/cknZ3sUfSr+DhSPx+PxeMo1f/yhx3PvvrsebTJ5sp4Fbg8HS+WQQ8Ksxtix+euGJlm6NP/hmRtvrOegDxwYvkSptGqlZ6hUr64Hl7nlxti/ZEm4PWaMbntevFi6ZLvtCnm0iZcaHo/H4/GsNJAFP/6oh5hFV+idMkWPAKlQQWvQX3JJuNPhnnlqTJqk7+6yixamueqqMEUBN96opEWUBQuCd9/VM8dQD7feqrXJCuXyy/V4059+0mNe3SJzcOWVkhfXXaftrbbSyqPTpmlPcrV98FLD4/F4PJ7ig1YYMEBPHz/vvAILyuPX339fy4/FVpl34H7HjdPCZmPG6KHsOPWjj9aDRJEObMN//qMnnKZy7716itrQoZIdxquvyt/bMmnGzjtrhRfz/Rxnzhyt6mJsvbUeuw61a2vxNge/y5GjcA77719gnbJtttGz4WNsu2240i865oYb4o+R9VLD4/F4PJ5cWbQoOOIIbay9tpZPa9VKDzu3hWQvuqjAYjEtWmj983r1pB6uuCJceNYxb1647lqU447ThIlly8KXMdZdN1xezkBJ/PBDuB1jww015mJcc42WpuvcWavTJRk8WG99/LEOfuaZwWWXBeeco8XhkA5cS2w1eUBJ3HhjtmXLatTQyIsbczG81Fh9+OADKWgaCgp61ChJbARs9iVwPB6PZ83k7781SLFwocYdNtkk3Bnl2291a8bxx2uhsqVLg1tu0TSFN97QjEj+dbzyij6A7TUaNdKsyT320CSJAw8Mdxq4f47WurWSGVjpNm00lpEL112nldu22koJBlRIoauTNm6sBeGuvlrjMkaVKvnbjh13lEiC5cvlKZyzmD8/GD1ap4pcQC254RioVi3o0UNn0r27JnbsuadGVcaM0UUZHTvqM8k1Wb3UKNfcfbeWQkYvr7OOXtLI+vWTNKapoYgffFDNmnpF544bp5EzQGpUrRpWfPv2+oDH4/GUEbilXr2Cpk21fKvDvErpxjlYOcQB3rokEOhzkEqVQk9pVKyooYcNNtBpuwXQ2bal8y+4IL64fI7gyKdODbeTdOki+5zJ/R51lBIknOHXX8ukH3xwuN/AKTz6qCQOcMJ8ct11tfAb4A5wBCZxfvhB8mjiRG07qJTHH9cUkIcfVkqm0HXaFyyQc8Hd8EN4EzebBGc0c2b+InnDhwf33afpI82bh3tieKlRfpkzR7oSevYM83VvvRVcf702XnopuPDCYO5cbdMo2Z/KdtspM3beedLXL78sKVq60GlpiFtsEb5MsmiR+kB0rlMUtDAq6vbbg333Dfd4PJ4VyZAh6qSnnx6+zAKd/a67dAcEIXuUdu3kZoCwnogIL3jnnRr7xzvie0qFsWPDiQvAb226abi9dKlmSGy+uVL6H3+sCRNZVoBDqeCeCdXgpptkdqLwkrPFTqIA9thDe154QbmK7OywgyZLOjiImzaRI5ttpuVtH3tMGY569VTIbdsqxXL//fmiJxMUC7+Oj7CpGFOmSC25VWcdzo/A0UfrDFOnbZY1pS81fv1ViqnQYlozWbxYrWHJEmXPskt+PjN6tIbEjMqV1Ulo/dZVCiU2pAcI+WHDst34VAxsAvNDDwX77BOv8dmzZXToPzvvHPTvH+6MQqcyu8CJIdu5rpo1lZZEJtPxOP/cIa4iLuHSZsxQwhNZRrnNmqVYpHSv17NK88EHamaEklWqhHuiYKk/+0x2PzbGvHLBPHPCqAFi1tIyqkT2I0cGdesqQ3DIIdozeHD8TkUCWdyY5USJUnDq+D9UBUTvn1y+XHMLbMXUGjWCm29W8OAeAPXmm+kDE8Zff2lKI0Yg6h3Hj5eYII7CiRhEz1gGB0KnQ4dwu3dvZe/BSQeuK7ZAPAVolrZHD+mSGNiZ6tULTHiEE0+U7SWISoJB+/57FcheewUPPKCZjxdcEHz+efgux6Gg0D04QQcl/OGHki+4fEwlRx44MJw+CXyYy8FYbb99uMedcCmCoMRWc7GjRmUM/MqaUpYaGPqzzlJVUXxc3oMPSqmdc062wHc1YN48NaNq1cKXqaD07YEqtWqp5bVooaxXJt5+WzN46caxykHO41azcOSR6myAdz//fB0hSufO+gA9nE5CEzfxbvTtKwd/7bXSNPQEvgtVq6p10iu23TbFZ9OvLr443AYMNEKBM+ScsdpnnCExYXCcPn0UfDi+/VbzjzJhM6uNhQulkOjeHHb//TWLiouiXbGHU6L/0HUxNEcdpbShTa5Gwr/+ujYwQ65SOBkvO9ZkaEiEdICTePxx9SNsrvkzWhRenCicDZtAt4LJ1Dg5HwJxeitEGzMQwTtJxNf548NEMnwYqb3rrvK4XGDSr/CxTp00XlC7tpRB/fraedttMghAfIJrR2Sce65eUhSXXx6fGYCCd2lILEDMT0fZbz9l6TOBwcHsIHEQOvRujN5WW6kX46cPO0yWKpZ4cHBKeHcbNeZyovBFrsX0Dce85BKdHiqNi8K4xTjwQA394LMy5fwdu+2msvrtt3Agg/LBTlqVEVOZ2aHk3cwMS+38/rtMrsslcz5OQ7hP4iW33jrcLjv4ac6THyp1EZM7xZEaP/+s0NypzsmTpfXwAdTrddepxQABRFSK4qto0wSvZXGp1OiIEXI2MT1bbFD9uY8I4rmbNJE/Xm89qQfEqQ12RHn//XAiRZTULoqUvu++9HnCMfDcmCGCMLj0UpkePDplju6xR7s884wSnoBqoU8SYcRo1kzZiN13l9l1s6a5CoS5wVv82YgghgkLtdFGarKtW8vqoWkItqLw7pIlOpNUEFhmHLER6K0sYB8bNJBqoRbeeku6xEGYZdVtZBk8AoQIVmzHHWWYpk4Nzj47f+6SZ40CTxxNrRML4Ws320xRNX9duigWd22D0Oiqq8LtTODh7r9frhTfVkKIQHBLwJnQoXbaSY7hxRcVCWAiorcdIrWPOSY47TR1bX4dP01U3b17flQdg+6GSkA07L132PVuvLGAHeCSbYAfuBAMAg41GpEDX4z1aD7Zu7dO8rPPlH7IDiWJtuOH+JfY/aCDlJbgfKJGIHazZQnZZZfg6aelA+bOVcYlEygALBtXhz6rUyfcGYXSqFtXH3vuOVn4nXcO9yfBfmL/q1cPX+YCoTiBGSWA1llDSJcatC1kfqosIHzHvdF1331XPYEG1LhxeFMNdp/G9PXX2sa9JQe6rr5awW4sDfjOO/IosZm6MQYNUsX06KEnmiUhqKWX0g8feijcwzH5Stu2GksrKjR6lBN946yz5HTHjlV3peHi/pGot9wiO+X46it1tthQxQUXyB+jlLEaHIEWTwcePz5814F1Q33TjvkXz2olQJuOzRPG8NElXP+nWwKFjIXCGXNwXD5VkAxfqERCCqqG3o4/bt8+3F8S8PS5yKBUXnhBoQBndeqpakUxKIQaNVRxZQoG2qZ6lRGYLareWSVcwkcfqSMg4DJB/3vySZkqxGgJp7yVNZzqN9/IOv/yi/4sDi63oAb4s9CTIAelmwRxHJPLBloWyY6bR77z3SgoXfa//nr4zMRRo4o58s3X0RPO0zuwHgiIPn3Cl0k+/rjIbRh/SZsk/CstaAPrrBOWAOy7r/If2HwHtjqZRXCcf76+m8tjsx3YuuuvDw44IExNGXgolJY9QioGhhRTgxdIghHDOFs8ZhCETJqkjXbtFJUNG6Y0PIYuS7ctIZhlxC49yEXsqz0pUmPiRKX3ERP4QkuvvfaaPIHpdxv1KTa77abcPs0UK0BQ/vPPBVwXWgQHH4MTtK518MFS6GgOVIWbmvTdd5IvxmOPSeB//71O0khmDvhdfDNHoO2mgtI06cB3bcYTv0sA4bo3DZF4CDgUbTQac8eIOmYEFuYJ4ZKl9DCLFLtRrZr0BLLaIh5+BVVBaM6F26NRijRwi+Ip9P4oRzSxUSj0fOwyYQEuNlYUOFoijB9+yK+gJC6uQuFhv7LEiOedp7x3KvXqyVLYI2UoFuolC5wtgpWuTstB3FgxTpmi6qa+OIeS0KqVQr1+/ZQuirZMoPY5f7Tp7bdrrBf/xBUBLRbvAkhYehmuixqPTiZAhWD47Bakv/6SfETfE09XqpT39ooi+chCPKWbf54LtAR8HirzvvuCli0LjN+VHDrO5MnSDcj6a65RcVmWglK99NJs0W2hjB5dwOVcfrl6sYM2g4stUrOhsVHLsackrVzop5jNQsESIp1j4LOx5JhEIj0L9pA1tFIiz+Jx8cXhmBGgGI45Rj16zz2VSgfazxdfSALSkQ89VAkSNPr77+tH0S429STJEUdIHNM8OFvCRTpaFPZju/gJKhr5wkv+Lee6f5UjLjXoV9ZFDWyl0544A5ycDernyG23qZNjZPH9Ua9PXIutTJ2sS1tp2lQu1kHc37NnuB2lUyc1iAkT9IFMxMwEDBggxY0jt/lEP/4oL0XL41+MPhfoEozsdDODkg9Qo+3i4Wi1gBdv374Qc3bkkcEdd2hj5kwpmOidykk4SUv7o8xKa1QIJ9erl5QcjgovhXWgo/70k+oI6NK//SYVxS9Sv1Q6vR03jD9AbqInUq/uiitUWUS6eNZly1Qj+HuXznU1zk8g4ZPgbzAruORddw1dPg6DGqFJYruxVm6gxA7FS4uc8B+YtuOPV5aCq+BlmzahA6DGp09XEijLVBi8Jo18zBjJPuwLnydg4qeJw5o1kwohREMKUAJFdecuObf55gqLs4Ogpy5691YtRCF0e/DBcBv3yclgT5EvlImz5vDCCzpVztP5eyJFfBhaubTaTBQafCwBQGd59131wVz49FPl/+gpVBBQfTQ2g/LHqtSsqdOmlSKtrroqHOFGWlECiDPqGllvLFyoeon+Lv3UgqKygJDd7nWkbOk1BAAxEKyoGfoCjYr2k51p06ROikS3bgUSBtlBaXXsGG6nQpRFXUQ580x1HyehGjeWGLos7555AhuzgUSb48err6GPYzdwml+Af/4JPb1Nv0AiZJ9YFgVji5Dt0kV2snt3dYonn5TJjQ57ZWLxYp2kZSk4+Vhv4kzoI6npcM+KpIDUyDRqZXTurDw/9iLWUoEmQgXjn2htuA3nbKKe/sMP46nILJgjRxNgkrLcmpwLtFdkDREVsvfuu2WgjaeeUmKDboblKgnNm6uXAsoa74Wu+v33vDci8Bn8ipPJWKuhQyXSLRqoUKHAE9+wXOxfYeC/qZq2baUV3npLzjI2F92gfunGgD+mV+Mz8BBbbx0mqKPgLbBH1KATiDgMl65AvOKxKIHtt1f9ZnFUaDKbiYL1tA1As/75Z/yp/kBQguxAuOy+e7gn6vVpS+zPNMssCk4FG2fjOK1aZdMrSWb/O0Gs5KAnKCLaBl2ya95TCFFFHDx1nHHgwDALgvDFJVA1ybR8McAwUOnUNfEuB0SfJUFh03opYfwxP42ApiHRMPC7tAEUKk6Ig7CT2oyB+uSLI0emDO3RBWrX1kVdc024B9hu2FBZRgoE+RV9yyYYZmfddWWOkNT4UcADPf+8Em9ROD6i9uefw5cOxMHSpcqnFgo+kpPPNKRCkXKqsVtAcdUYJcIASwEWDP1kP02cAdERx4/CCVPsgDzlumgAdDQUpw2zJjk47wZUroU+iN3DkqPhsEt0w88+Cyds2Yh2JigfNxkcjYtTiGanUGP4AkILhCPn07+/jk9PJ4yhd+y0kz6A1sEYus9jBjkfZHTspjPKIUcVG4W2hyhH8JkwRan06VOc43hKnXhWw+Y9AF0XDxp9ExNGW7SsL30Dh0rLxo5E7z4CWthpp2kDIxKLrpYvl3COTZAknCXKx4bi6oj7Uy1aFIyXGyN0YJpxJLRpDpUcQqaJm32JQosnFk9maHC0tNdU0Oz01dgwKp6JyNjBd3Hexx6rbDk2mt6Ic3WD9zHoY3QwJDkRgMM0VjmE6qOOYhYhFfwKXsRy/gZOCAGKYihSwI1GwfiiEophLChVlB8u0CmnunWVBsgdrhSzy0/jaNG7VEr2a7epXjE4AUQDF1J2oAZefjlUeEY0g2hgf+nLNlJjvPiiGj9CPNMzfCyHRB/JZbXoBx7I90CxNDunN+PfW/tinHOOdFLuo3VRCBVwVBRsrVo5KUK8L5EGdgAdf+mlBab9//ijJAigfrbZRsk2u2QEU+qcib33VnuODndGsepIwocRi7Fcl52Vg3cxvJwGeuX88zUL4frr8weLnZsnnqEfjR8vhcGpfvCBIsCo6H/wQU2NxNN/+WUBhT1ggARNKih4LBWXX6ho4/TefFPaN9MYdKEQkWKxkZLJx3KXFtTp2munR02elUJcatDtaXD4CZoCRhbzSuvcaqsCSp8WNmxYNuuPlUcQxEYuoqCmaax0ITo8DskG4Qz6dnJInkb5669qoNjHjTeW7T73XOn3yy5Tr6Y9nXlmvgr+7juFPshqzGjqovuVKxeIsXAGlohG18NLLylQcI+Hq1NHRtxuHKc/I7bMXWE1iAwQ4/izZGRfVND+c+ZodJOrQIr5HlIWfPutZuAXNUlGBOb06JAh6hpUN+2Hdhhtt266+2abqRNZIzFH4hLLpQVXYakOB2I3+kxA51H46U6d5I2mTdNLGu0RR0iR06EQBLDFFvnyiLbHJ/lihQpSzNF1Ix1bbilXhKtLavTyAx2cXow1IJh2swijj35Kgg7gz0wW8XfPnqoy9Mfpp2sEJwZd/ptvFEXg7KPDzQ40gZlVs0hodCxVLIiikCnq++4roMgN2g9tjD++aAOLBrV5882qPqfqssCHsU4IiPbtJVzee08tNnsMw1f4uSyG3eMpNinTQpPQ9A+PTCp0QwZlAR0+eruERRtEP3RI+gB2vEi0bRu/qYGDE5tGL8fZZTQKIgkTTJGMG6fEIAaajo1suukmDUsTKLgQkBgdRYIfwq6VHFzX6NEaoSi5avFkh3iUKBAlnaXh77abGknypiHAwWCvmzZVaIu7RYbuuqs+zLYlxkfkTTsdNEhKF52xzz7aSVNBQN9xh6Z80rRQzERdtGeCyKuukmjmKw8/rIB44cLCUy94MpzQDz+o2bRpE+6MQVtatkwRQnIeH+Cr3My7Uf/eQ2FpDFo7csqkSRL3YfeYiiLRq5eGhNyD6ZJcc036xKxCwURgplCTdHnqyA0B0N/btdOfyw0UCQqZuo4RTRqhIT78UE0iesMFEb/dwFK9ugadn3gifssVlsSN9Hk8awI5SQ2wWb6GpRnLFCwp/gBnX1RtkYQYhZO3yRB0fptnhFew+RCp97wkoZDQQMkbSj2rLjjLl1/WjUXPPy/nQXtgjz1YjBaOQ61XL+9zOeDSftFpJang/lESCAsHTQvNQfTJyaCAEbs2DnLaaeG8oiOPlLdzgSzqNjrnKbqUA2ywgXx5kcARouM7d06XVo6qVSW494qsc4Hajo7IFMq554aDpygkXG/0u/36KdNJT+RMqIW335aTRiWg7xE0lAMSzU0LTeX111MeyWxQttlHvrKDLbrrLs0932IL1Q4iMhpdcPC5c5WGTJ1Gk0rsYVwez5pArlKDWLB5cxky+kmmwd1VCyw+AVw0P+nxRHnttfAOo9yJzoMuNv/8Iwf23XeaNADumPi8WbMka2KprzfeCCdLEdAfe6zSJF8n7pIoHqecEs5dMD2UiUmTQh3Qu3f+TKz+/aXeeIkiIUpB0+Oqo2fOu5YHyv5MScfEiVKElEz9+pqpcPnlEhBffaXiAveAuDKFeCNT3pGqQR1yetnZf39dtU9eetY0cpUa8MsvusfMdxLPGsKyyOILo0ZpBnTPnumzf4xSv3UoOdiXicGDFXATDCAIcL1NmuhsHa1baxL38OEaFjnooPxJA7HFomI8+6wyGTnC8fndjTfWuIzNNs3lMVNjx+rD7dppyKPYTJmidOO2kScyrUQy5TZQIa1aabJIFsXm8azGFEFqeDxrGkOGaBj+7rsVjBp3/ruWjWXs6T1jxmhCz/Llitoz3eW4guGsfvxRM6yrV9eAS8y9IUq4ioMPll9MHe454QRlKXbdNXzpyR2bsR6lfv34HF6PZw3ESw2PpwgsXKipi8ceG97Rvapz9dW6N8HYeWcNj/79d3kRTKsoiM5339VduLvvLql61lkFpuZ4PGsmXmp4PGsuixZpzumcORqC2WKLEk2f9Hg8nkx4qeHxeDwej6cM8TdgeDwej8fjKUO81PB4PB6Px1OGeKnh8Xg8Ho+nDPFSw+PxeDweTxnipcZqwk8/abW2K6/UzYr/+58W2Tr/fK0K4fF4PB7PysXfgbIK8NdfWth2iy3Cl1EWL5aw2HBDPSboxRfDnY7evbXmy++/6zGvHo/H4/GsFHxWYxXgmmu0QPmUKeFLY+ZMLaZQp05Qt64WDIu9a3z8sVYTPeaYYOjQcI/H4/F4PCsYn9Uo1yxeHMyfr1WvjBo1tIJozZpa7cLtzJHddtMS2wcfrOdVZ1mYavlyLTG64475j+IuI5Ys0fL9338fXHppcRYK/vtvDQ9ttJHyPZ99Jsn1n/9oz7rr+mUmPB5PmTNjhkzlueeutk/XHTRIwSr2efvtwz2ZmDw5qFBBK0GOG6d1Fq+7LuUrXmqUR3CZgwdrY+DAYOrUvF1FpEsXrWKVytlna/2tJF99FVSpot+96y6tnDl8uJbWe/ttLYxOd2rcuMgL+tOyFi7UU5mTvp/DXnttuF21qk6Vn549O9hll3Sh8NdfWr+0Xj2dmEFrHjs2eOghDRJ99JGWM0UetWmjt55/Ppg3L/jtN60/vrJAI26wQbjt8XhWPy64QKsWH3RQcP/94Z5VFMK2mTO1+GKURYuCI47QxsknhwtHZwK7fcIJWvLwgw/C5QYJU7HMMbzUKHd8+21w5pnhdqE8+aQ866uvavvyy/Xvs8/K++6+e/DSS0HnztqThO5x330FnPqHHwaXXRZuG23banVvWxwc1l1X64rFeOIJ/VyfPulLc731VnD99ZIUTZvGBUSmBTCNU0/VEurbbRfcdpvW+kdAfPpp+JZRrVpO66Qjm7beWv0EucOZrDDoZv36yQDlkhmi/y1bFqyzTvjS4/GUK+ihRDJLlmjVYpcPnj49P6982GHBhRfKN/NHOJQlZ5wdAiqCTBdNFRtO+PHHJSCaN89pJfY77pATIcKsUyf44gvZW+K0qC4YMkSGNMqcOZJZRx4p+9+rV7gzCnFg7Ke91CgFaGHrr5+thf3zj+p+2221zOOkScE77wQtW2b0Lueem5MfhdGjg/XW0watytUr9Wl+nY3HHtO64TfcoJTA7bfnvf0vHTsGxx8fbqNXUptLjI8+0iAFIGM57DffBPfco5dVq2r5U8QKLrNJk/xyOPpoZTVgk02CRx5R55w1S6uUOb28gqlQQRbhjDO0TZfmfJxCmjxZ59+smYoRcYNWoLPxco89wg/kzoIFqmVAD118sUasOCYV1LWrsoutW8evndr5+OPghRfCNCzBQRS+2LdvsM8+uZYYLa3Yls7j8SSZO1dT5YDQhfhn+XIZ2Fq1pAxSwcjwF4UjYFIaNpQ9PPxwWdGZMzVq3LNnMHJk8OijweabB/feK7dNRIfXx1OkgmkaPjxo0EAZU05j8eLgk090hBNPVPQIP/+sX4nSqJFyxpwqUgkR8/vvwZ9/6iAYarfgkQV+vBw2LN3OnH++hlEMjoD9NyuKC0stBELf5Jh42UoNDB8liBEnPMUhrepg9ymtmDN47z0F7ngU/K554hi0KrdUN57G3PPJJyvphDeigs3PUffUHD9x6KF5H/0XPlC3rpJ1NC+k5a+/Klfx1VdB+/ZS0zmCd+fzeKz77gv3AB7OREksx0BTps2lsuGGuthbbw1fpnLIIWqLd96pMY4ffgh34nSJCYB/6WBcstGnT9C9u7TI1Kny7sWjUiUVS46gdahBWwieIuVK6bFcMqD/+IuWqiuiGO+/r3wjdicGxYvhiLLbbsHDD+uq7RcB0bn77pqCY2vQm40wqlSROjTN8cormsx71FHhEuRUH1YjO2PGqMxvvFFNq+ygU8+bp3HZVQt61osvqp9SyJ5VC9wbUTIxdMllNIaCllCksWBCLHO0xEsYtC5dZDcwGlmgv++3X/7ZRqPH2rWDvfbSB+rV0zgyYOHxC5hBo1UrGUO6WLduwaabhjvRBz/+qFypfaVDB+me8ePz3svjqaeCUaNkPeieqfArmBoMFxoF0Apt28rk4p5c6joJHo3P09lRD5TDHXfoqQqFggBKUvpSg+M560zfNkOJLzngAPmbnXbKe2MVZMYMtRhaau/e+d4IqUjTMfbeWx+46y4NZFCvCILrr9cnqZ7XXgs/k6R5c40OfPml0nE4iRYtCqQ0ULule/PIBx8EV1wRbtOUjz4639tRO7hhulDlypLexP1w1lnqBlF3WIqgwG6+OdyGWbOUfdl1V0kuFICNChnPPacuhBinf/IBygqBz076PJ0BqcFpU4ZopjlzQmGHrvrii7wvZwXZwRHoyQadisjA8eabku3UUc2aOlV+gs//8ovKBGuVFGTZB4ZiHH988Prr4XYUS2NQBRBVUZddpuZhLFigJE0sRel+Hbuz447KtAFSmFNF8XCZqVI4d1CQtJnRo7VNCBHTxOUZGvkLL4TWnC4QixaKyuef62i0AbrnGkXUtjvw3DfcoCCECCRVl5cEFDktDdltvPxyPOIn6Jo0STPJcvlp/Pfppyu1QOzerFlQvbr2JAMGBzYHw0J/pLqBaPm77/Le+JdTT5ULSO3Fxx2nDsi7yJQTTwx35gJSGFUBNWooIYHHbNNGEqHUQWoQEKZCOPTOO8qCcOYYW6QeHZ+KmD49/EAUy9o6iIpxJUmKLzW+/VYKCyuMW3UgkbCGVPxFF6mUjz1WLiFKpjCxJPCjhJLEoy5pwzWhxTJJYEL8p5+WKUdd5gIajSicRu8C1h49JCG59nHjVAdZoLXhqzIpzSiYP+qScgOCbCqYDoYsIPYtXdAQ5sYMqg9HixMiJnYm+LPPJK7B5Mi114Zq2kE3wO8SIyILzPdkAv+XKnLh3XelFTLBWVFNFB01G/OR1CAmILVkqHqKkdq/8kodgWriYjnJ3DNAMVxHQkTatFPH7bcrduE0rElH57qWEZ06SYVgKxG1aNy779b1duyoOsUocMkONBmtFJvVpIleWi337JmfIOWikA5Z7GwMdFX79uG2QYzFyZj9KGGnxuLjq0wblQWIjIEDw23UGx7L3TVAA6OUbD4y7Yoiwkkcckj4bgxia0ywHeqYYxTgrjlQR9iEffcNbrkl3GPYlCzYfXd12GKT2pAuvDA+T4uWH23nJq/pCC7ki0L0wunhj8zOYFHpLA7M3bJl6hH0a+IrQgiwhAcdCuuUaWa9g/aAl8Ey8OE+ffQruLzSxXpuJiguK7co99yjYjGzjAosKrGZGTTyQYPC7SRW6bQN5AXGBJuTSccXR2ogJDfZRFMX6ZlnnKG8btOmqiF+slcvBaaA30LxYcticN40Vn6T8JF3iUFxWpng+OgVCpqPoWz4ldSwzNJTSE6Xo7766mDiREW9G28c7gG7G4K2RYeZMEFhH1o11rIRRvyiC1ZoqWi0aJgbZdNNpT+AS8DuYKRKCFeHj8TMoaPLlFdf1ZBWFC4hmvmnaiwJ74YnKRbCQT5DRUTDa+qINr3FFko5ULNEGHzYVQRiDoEci/V5ueeeirNtBHTFgIegAdBOkg86S4X2bKanUFBCl1wiOeW0/FNPKUE1bZq0L02o7EBFuYxoEguqYjjZZ96Xc6aFFwrNIDbXJ8oOO+hQMWVPH8dC7b23jBFwkrQ6qh6bTuui+1tftmHsl15SM0PK8IESqpYkNNHYCDTSEymP+qQAH3xQI1wdOkh8uLnDmcRxtCUT840cGW6XE4g+udhi3DruwKBRL+utp/qKhQEnn6zMLmBdjzwy/BUUf5062jCGDs0p00NPxJ9R+BgH3IfFLYRVmItbb5V3rFkzDHVipsOweJW+jDkiloDUWx5ogfXr67eskaMvUeqp0CY5FGdi/aV/f4WRhXLNNcqRxJgyRbnhYoBwr15dpxqTVjFouvhQ5PIzzyjZjMnFPVEjjiee0Li8A9dJkIB9vummcE8S7DBHOO88GatoNGJEJ8DSR+gpVNB118lX3ndfeNq5UGSpESvKVHMGuF58D1x+uSKGaFlUqKAugXmyUR9MGEpw3DgZ99jwCtrCDfYDIWOzZuG2gWJ44AFJSwPfTzE1bCjrD5QIEblZBBN3+FeCOdfgkBp8har69VcZSs6BoxmPPKJa5EpTH40Vw5LJpngOOED5VS4ZlxyFLsSZWFiMneWPlsq1xz4GSDQcVZlCJEchYBdc4oueFtV8GJrWraVPaXnFMP00WazVb7+pSyDvzCgQoGDFqGV06sqCU8JKwkUXya7RaRcsyA8a2IOMBupl111T7IjjpJPyk7oxrPqQ+WjuJk0kcXr3lm5DjtDV6LRmrx308/32k72OxUM0PxqSgec7/3yZ45LDr9CkicM4E5vSlUxKGwgC5Aj2N5bLSeXmm3XYqVPlMLBNtWpp3ND0x4cf6gPvvRcaAfom5glHQhEdfHC8qWP0MxVsFjgUTdqllwyujmZMO3TDuLmD5qAxPPaYhrHpFxyWnsKpxnJ7RFZcaZnCdeH+k08KppBRFdFpy3ySysWU4Qaefz60nFw7MVUWZs5UQWFI6aTUtU33M9ABCEEsKjX7zTfxnBY1S/lgxHBmDkQbjZmyonXRfigxuoNB48fsc1a0as6qUAl+993SgqnpJU6JvumUvRHNly9dKlNDw3YTINBJvDRwCnRMyx/nDjbBvDVeieIFuvaGG2ojSUwh1aun72IMsTZ4IhwNpdSnj2QQ9pBCptkbVASG4pxzdO1IcxcX4Y/wFDgXPEsSYhubAghvvpluYEeMCE8bKYMnxb5ROMgLjhm7uyQJlgf7AxgrHAceH79PhdK/YgFGFlKkxuTJylDhC3v0kERFE9Hm8KMNGqguUaPZZwVG4SvufstocWQC9+amqMTy/AbSFb+OaqNX0BadyEiFEqS5u5aRxMmdVGi7sTkKBF44J06gShU9fspo3DjMs3GoiROlo+m6aE+UFs4GeUG7IYIHaoirYztq+Ojq332nYTMHNtrc4QqAX8drUtdZZpOsZtA9LJ52jB+vWR1nnqm3Jk2S+iRio6ljtY86KvxM7dpylgY2gqiLek82HvQB1jbq8GIsWyZ3hWVB9f74o0ITaxuAgcZ4vftuWBevv64ToN/RZi67TIYml1ugESV8PZbixgdH/QHQPk1nGC5liuy26UFVq6rXxyaj7LOPLN2ll6oEnOFOhZ5OXzbopB99JMGRY3adXokWwVximcaM0Y8SnERB0LAfC4AuxDTjHbGAiMizzgrVzAcf6My5KOjbt8Bd3JR2Utxnh6IgBMKCp0LvvuqqcLt40CRQ4bQZYkS7oQzQgjRFTBxFTURkLtxByZhpohW5usZopGZZiBYI+gkbouNTqAfsDJ4GaUizzwJfR0/kCDVF8+bMnRm3/BA+hfaANS4SLVpIzQB+EbH+3/9myxzzLqVEhI0CQ1hQqoszzNwkLsfoUbDff69TzZK8xH9RqujO6C0YQHBCD8rSzdFYuHZOHhHPmUSHeqk7+jhXlOk2Ez7gjmwqudAnWwC2giaK3IxF46XCH3/o1gTA66VqnVyIS43+/eVKjYYN1ZGisR0Bh825yxFiFycesaS5zCNz4jTaXksdS9llJylELFVuYPfNZkVniRZKtBlFMRVMR8XERG3KCgDDjTZf0ya45QixIzE9YRDOAKO50UZyyTYqh/PGMeMMog3J3X5cKBgFSMYEtBAOy0HsV+g1fIY2w37OxMkdB1E1ftc47bQwe+dmjdAy6bAIJvxubMgMkM5unhfRBRqLKAILGMu7GLR8SxY68By53OqCmX604F05hYKJJ4hEmlhwgk3AuGO7CWcpBMswp4oGvojVQnBY8UbBrVIUW2yh4uJ8YvP7jOzj4plA2QCuLovvyQTVilKxSX8dO8qBWQ0anDOCD7AJ+FHXGJ54QmYnd2hORG6jRmlMhLgLHxy9E63k0MzcvEWUnxs/hcGDFXSV5OcskjYoDSRCFggFEZ1Z5s9dfLEGR6gsgyJFNLvYD/l13XXaIBohUNwsb97GrFlqNu4ruUBp4/sJ4UoIKpDWjtrONAFihUH4QddA9BSbuNSgoaR2wlTat9eIw157qZ1RZ0A90dVNAUEsfUcIwlf4CT5D7fIx+nZSMtuQCipn4kS9xEpiEGPpMgeSc489lN/LPj0zRjTqioKrmDZNEidqqog1MQE0HVqesybOmuc4PJkdrvGpp5RGKvQRsJ5yBSHRzTeHYwTR2UJlB+0NQ0bHwdESkmITkSa0W6yAs4b0adpntWr5qVH2uBQd+sAifr6e3XA7NtlEeYJYNgjmzdNpRKfplQWYAuJ1BNABByj5XDxiI+vJSQA2zZaqjD3LLgniCfV21lnhSwIqtMu55xb+xSh4EXwwVYm5M/Bnc+eG20moMnzkvvsqFR8bTU/lyScVRcRG6C+4QKn47KCnFy0Kt2PYXGM0t7PGROfVq0uGfv11ukVNYrrHqFRJUTLelNLjmPgRGi1aIVpTVH3FyFOtYhNFkdd2e0gm0DrPPSenRsvB91OMMUVIPNm4sTYOPjiURIhR3JnzYp5SIS41cHgDB8qQRSdJoCupXSyag+ZCVNGvX1htVAwV9sUXGqJjDzKflnf88TlNUOrVS70CX05Pc+FUkybhNG8XqHHwdu3Cc0DamxR47bVQOXIRgwYpzGrRQiMmfGDvvcP0L1qHnoDK4dIMOhs6EXX/7rvqtPzEsmUammGbbwEOw90FRESbKmKwFNgIooTcs4ue1ZWFC2XRDjlE013LLZ99ppZPX6DR0kcAE0xIHe3XmYgOhCcxt40XbNQoPnaTC+h+3EkxpmhEyZSMMXBgdPBowgnHQ9hKrQFSCYtH/GO3pbiHsKVC+LTDDmFpNGhQIP3ev39oQLKAF8en1qypVKLLH5cKu+8uN1yrlhw5otMuNnVaZXbee09fR6aMGBHXJQgCk5V4d0wuemvTyIMfotNWDjtM4V+0cPjuqFESDUSn9Jfs8wP4FUuTREcYDUJBQlCXukD3YNszzeLEKVBZgLm29G10LMNhpbTzzhmH2j0lJ31aKPvQ7JafxBgRVUSTpURC1A3uPBnlFA8aJYKAhhjT4GhemruzcTQy1C6N5uWXdW777x+fI23wAb5C08eUIBRsoJcronvQRk86STaxUIhvEByXXqocDGbI41mdwMVidnGo9ItMD0058kh1MT5w+OGFJNsmTVKXJKbHVX/1ldL+8OabcqVuSkflykp54o3mzVN28McfNUUGse7mehOu4DOw9TadvKgQrRLeWPYbiCvwuIQ6eFzMSCb4zJQpctIxIYUtIoTo1Enhx8yZmpuF8SGqiYoVICCJ5bH69lWW1yRLKk8/LdsCNpPMiA5AGNRO7DEBmcA6tWypMscgJ8El8649p8FxwAFSPFhd6rdLF30XuUmTuOsuaWW79cOggtiPMMJsYjxxBFnmdHMcm1Vt+SGLIaF7dx0h1VZnAgHB1xs3lnhNhVATe44bsqkDfJ5yQD469caZo4RyHHfgUAgXLj96N42ndEmXGkDP//13/btF3uRnPkU8RI3CsGHhIFapQ2ARjbH65d24H4XOuWTJinjeH9f7668F7pX1eFZL6FMPPijBUb16vmW/+eaizcqKQt9xnhvFjw2hz+Y+yBjNKdIBiYAhOi3Xps1yZKzQd99pqhqRK9YJ3DMeSv6crlzgulIf54BMQT/hzlu3lvcy7WX06JE/o9wxdqxO+513ZADdlBoOguJBLVE7ybqwvG+NGlpqJ5dYqF27UMPZHXlRKGFkTeosRTz6X38V4Xkn6BIkAhINebpsmYw5dZT710sIQWbPnlKrFHtR5/khOmM60lO6ZJQaqSDwFy/W+FwZMX++xsl695Zh6tp1FX60qMezyoElaNFCcTC+cKVPQ5s8OUxLEJE/95w8sa3tl10DcQl9+2q6q3sSQFlzdN5CP6eemn9fotGli87ExnSik4URc9OmhdvGxXlPfeBi33hD8wPckMQvvyg3w4XsuKPk2ksv6fJtovqQIUqcfPaZ0iGpyYwkLi0dm7NS6kSF5oqHgrIHspVWxt1TWhRNang8ntUYoljsQZEm26/hTJigXC8x9KBBun8hFSeP3OiSsW7aaslZoHbee0/ph6rFWk/q1181xnTooStTCnjWWLzU8Hg8nlJg9OiMd2G8+67cfPI2OhuS9nhWe7zU8Hg8ntLBPW7H2Krg6n1JvNTwrCH4ES2Px+MpHTp2zH9Oxp576tnSySf/dusW3mpnD3v2eNYEfFbD4/F4SpNHHtEUzocf1qMafvt32Z0aNTS51Rafw+hOn65ZF372omcNwUsNj8fjKUNQFZMn6+4SPx/Ts8bipYbH4/F4PJ4yxOfvPB6Px+PxlCFeang8Ho/H4ylDvNTweDwej8dThnipsfowbZrWsjImTtSSCh6Px+PxrHS81FhNmDJFKzydcYbUxqxZWoOxbVvtLBK//aZFBJAprVsHn38e7vR4PB6PpyR4qbFqM2pUuGDjsGFag3HBAi3R5BakRjTA//6nVRazw2ceeUQPADj0UMmU0aODhx7S/sWLdXyO7PF4PB5P8fA3u64yLF8ef+DPH3/oZn1o1EgLPyapXTto2TJo3lzb3boF33yjBydvskneewV55RU96DDKOutoLag2bcLFu0eMKOUl9Tn5Fi2CH34InnxSz1X0eDweT7li0SItvlgqy+t7qVEe+ftvrQ39f/8ncbBwYXDIIUpadO4cHHGEnjDIy332Ca67Lnj77fDzmUCaVKyoIzh23VVLcseYPz847jitG2kcf3zw5ptKhCAFHnss3NmkiZ51WIrcfXfw9NPaWHddJVH80408Hs+qxaefKmTabTctdrP6MW9ecNppWkb4oYeKYJ8RFKkf9gMo5Y4ZM4KTTw4uvFCK8qKLgssuCw48MGjfXmMZr7+upx3j8idMSNcZlSvr3ypVlOTYZRclQqI6AyZPVn4iRqdO0hl89513gn79gltvDapX136nM+DFF8MN+PNPtacS8v334QZHmzQp6NMn6NtXGouuO3u2zryoUG6XXBJcc430mcfj8ZQpY8fKSl99dXDuubJXzzwT1K8vU7aqgxEmssUIY5DxQZ99ptxzjrz6qgphwIDwZRSf1Sh33HmnFlCAffYJvvgib1dmDjggmDNH955AixYaH/nuu+Cgg6QraShOK2y6qVIXjkMOCe69N9Se1P/RRwe//qqxEr5uICy6dg23b789XB0K0DdIgWbNgp12kjgYMiTYf3+tjt2li1QRB0QkbbFF+GHgR9dZJ9hoo/Cl48svC1lrqnZtlYMbMEIeDR4c1KunpM6bbwaXXx7Mnat+fuih0hb0iqVL81fo3mQTdXuua8stwz0ej8fjwGZuuKH+cmT8eDng/fYLXwLaonlzmT4Di4RFhZo1ZRiLCpHeAw8owKtTJ9yTIxh5nEX//kpXA0Zv3rxg882LkISIgfs444xw29G5c9CgQbgdg2JZtkz2dvvtg2OO0Xc5AowaFTf7ZS41CK8JW08/PXy5WvLLL1JzeFmc3MKFQYUKGv6IQhnjKffaS6k2A0/ZqpUE4GWXhXsctOAJE8LtGBzWDXNA27aq2r/+0t0iNNP11w/3G6iHo47SRuvWwb77SohUqZKvTxETO+6ojZEjNRaz9tpqHOuum/deEHz8sTIEsMsuGnBBuxg33hg88YTyB1l48EEJIKDRN2oULFkSnHRScMMN0hxAF+3RIxg4UNtAgUQX3Y5Stap60euvBzffHO4pKgiUSpWUp6HRF6kFUsicFSfw3/+Ge2LwLooqddYLUN0cIdN3PR5PkfjpJ0U1GMYNNgj3FBv65rvvynIeeKD0wZgxMqEVK4bvpvLhh6GVjs5X69VLk8xSue++4OCDw21j7Fj9FhCkXXBBit0YOjQM566/PmjcOO4+UuFC3nlHgZaBxUZeYHsfflijHljgceOUcXEmPQuc3vPPywtsvXVwyilasicGURynnQTX0LNnuB0lVZqUrdTgpDl1QHwRSa/qPPWUbtMgfI/qPlwpomHSJMX3lG+3bsGpp8qv4ybPPlsCE1CdpnlffllxOdxxh2oXPvlEjWbRIrlD2grbzq8beCz6GG4bZ0m7eeWVMFeBeqBVZVevHJx+wglzEMQmUT5fp5MAp4H64es0VkQGV0T3c0yZovYKiKGuXaWissuLGPwE12vy1uDgFMWee+pkfv453AkIF0qPk6HnW4FEOe644I03wu0c+c9/8gdfWraUzjBuu03XYnLHXR0Hj+ZgHHQVJHLt2ppQksRSMrvvHs41SUIFEaNQOzVqhHsMOv+sWcEJJ4QvV1FooqjY0p0j7Fl1IZIkciCiLaMkojOJmRxe7mAZOMinn4Yv11tP2VBIhuBGNDEMxx6rFC+BJcfBNBlEXy4BbKCHMLN0EBtM2WMPWRv33AG+iC3CuxPF/f13sM02wdSp8hoYB+PII2WWiXPOOSddKFAgBGD4l+hgDadKKHv00TpmFMQNgsPCHgIk3MGZZxaQMnz+0EO1wWlTzrGnMdWpI2W2336yZgaeiJj2t9+CzTYLDjss3BnDdE+MspUaGPr779eGpfS5ZkpwpYOrw/Nh8XOMdJctU2uYPDl/HGH4cA1JGPizTMMcOFcieBqiC9x33TV49FH5YJwxHgtoMTg8PC69iG7Ah198UU2BNk0jNnEQi4/xysAHaPrF4P33gyuv1Ma55+p3DbymLW9tuHtbrBPOni3V0qVL/l2v9BC8Zgm5664CCUPUCZrskkuC884LW3+O1KsXzlyhG1MdJiOSIDW4BCzj4YeHeygBKwo3oENYgBhyjB4te0TvWrgwTFHSMznDzz7TdmqPAqsgIEC58EI1A36Uq6OugWvce++8t/8FM0Q/R/Qkj4aQxTCNH68whUNtt124fyWCikJwczlFqqPyAF34hRdUjK7zFgPsJY2NLokSTa391ZiZM5Wy5S+KRdJbbRW89lq4p3SxtCtkkv654/ITMTAI2KKPPpIKoXmYvcXs16yZ93aEDTeUbXQQJmEusAM0CeKlk05SeElURqyCyzvxRLWW++6LKyTsA+bUsPRDKpg1LtzFQv/8I9+Bs/jpp3BPjmC48BQ4KbuXkHiPs8KqoHWAgBNXEgUBgYkbNEhlhRSz0AjfTWngN22wPgtJ+2bkJDUwr3SqHLM6b70VVKumOYaUphs+NzgItWJQHygjWi01VMIey4/+8EOw8845HWfx4nz3hqPlVLNDBePAohMdAFO7777awOXQ2oCXxXvmFYGvaQ4CbhTlEUfILREi4BQRrdtvnzKgOGKExApNPHbva44gyWP5PUh6TXQ3Xc55TSDQpwsZVC4qZJNN1LBowRQIXhBT/uabytw49t9fIzuPPx6+dCDyEOBWhqngle+8M9ymq/CSihgyRHXXqFHY260WqHoa26JFyuZxWLwIxoKwe86cAkYhE1z4778rkkjlnnvU+C1Liebjhzp0yE+0NG2qPcQNa68d7nnqKX0lxoABilpMncC11+orQEWjRBETw4bp5fXX6zQ++EAlg76hyWH7+Bcj6HAWKhU6At2KDkUjJ/Kw5kFQQpmkdv6iQlEgyNz4NNWBHezeXclL/o15oPIGYpGCNSjY1L4zYYKqD6sVbfZRUOTO23HJNkC5hvDNN4qzaUg4vCg4Vwuvhw4Nk7ilCF2jfftwG3CQO+wQTlo3aJMYNMtWJqGJ4mXcFDSXXU5CteJNDbwv1iyTLnEQ0txwQ7jtsBvrCM8QRrGMLHbbtcBUcCUueeDgrM46S10buxrTBIAxIRCKpl74MCoBq1IolSopWjDjE8V5NwPBZFHlxhvHbzKAU0+V4cI22rkh5XfaKe+NBIVLDYwdLQw4A2JZ6rV3b1l/lwfm5zHWOEWgam+9VbH4668rLE7a+jvu0NlQOm7SAAKKSDQVHAZuY8ECXU801oxh9j06qzEGfgh3SFCL76RW+vYN99MaMPpIBE4Ab0HLoLyIL7t2ldjE9UZ1SQysDLaGMiHIA75LgeAOMfHJaj7+eE044BKi+Q+OHyt7DoWZowXQKEsov7LDeUbHsyg9F+hnh8ZAz2/QIBwXAy6B3u58LdAY8I744BYtVOA0GEoGx++ghbjGk4Vvvw0rNJbenD1bJoNOm8kfGAQl+Hi6B5/McnVIe3cvTBQ3kbZq1QIjQUloQnR4I/spGZhFbAoBIn7anpMWg2bZqZMKGS0SA9NGgRNepKY3bMSXpouswQFcfrnGpGwwFQ9Bw8bOOheLlKQvINCJnHJpbCiMc88Ntx38nJmYM87QLGY6NZdW1KZL38SNNW8eRpPFAytEI8l0BHMAjmgOj8rt1y+49FIFl05JI/SR+zFivQbLEFWBqz14FMJIiJYevYyIGUMNu+2m6YG5Q0vGnaMbiKaIntu102Fjdj61Q0UF9403Kk07cGDK8A0iw0IIehzHQTdgsS1/iZnFvKAssWO9eoXpxiiEoPRQGlW9ekoDYO3xQTGIQJJ5cYoCcWDRYxQcGX/0IKfUk3BdeDFig3XXVeFYCpnehNN0FgYoZ7ob3Zmejn2LqjEiVT6MseXkCfOi8joLW22lOI3GbDMOiaaimE9PZa219MUqVXS2X30lVZDlCRzpUgOhgPPANwPWDc8HNpw/erSmGQJXggvHkLGTcBapS1d0mSICdMvAU+44G5sfkInhwxWN0WiOO66AkEQruedK0RyffFKSNgpfpIE6MsV8mD+LKfk81iQ2HAUUWZMmKjUHhp5PctrRuT9cEVrBKTvOdto0tVcKBMtOKeEUOX9qmnZMG0V/1KghK28JodgkGmQKF8ifw55jcdBB4ahTmUIVI7kQkTmOIpUEHB4dAAhKMNalHvoUCq2LLhSFiuCsiG5TwSWjhjN1MDjssPxHsgL2EU9JA4j10rIjmYVC8BU6omHhGtBzsUoGZhpjkR03oJYJbMWbb2oD8YRlyB1nTwiGcN6UZC4T2WLQu4lYEAdmLqZMkfnaNm9SFGB2Tzop3DZQSE4rp1p/yhYLjtSrUEEKxno9YSVuIEqm7MhKh/AJo7/HHuHLUgHd7waCKeeKFTWETx+J3nWPVUm6/CiIFSQLpYq9ddkRgk+8DE4EiMixunh3wj9qIVVquNiDoA5dDigDNxbsQATT4GNwTJRldBIVXiOWfY/Ch9HQgHBHnUfJ1NQRrzaZD29F3EWojEknnKNh4xqwgQgsgk92IvRpq3RG3DlOivaPPKKI2LAhVxxWDK6IKC7a6uibmHHkVJ8+KTPPnNNx9zOiTqi76CiM+a8scM6oENhsM6l2ug+SiAbGj8amo2UhLjUwWJyxRQDUKC+dLOL88L5XXBG+NFKTKkAT5M8G8PgFCg6hR+hQKNHeixe09mcgnzkmDpJDcZLoxxNPDN8yOG30KTYUcU2xcqqEv0S0VGQMKt4MXBb4Fk1w+nS1ToqVZo0oZuOqq8IPGOyh+nNxn0gxWiHSDy9FwZriRpzFRl5S83KrOr/8oqaSyxhcGYEjpMFQiaZ66e1YgZjkx0BYfGOatWHDAjNYHVQQZrdx4/ClgVlxvRfHFlWQBm2V42dKvNHSLD2WCnE/cXYsH2tgmr/5RiaGpkX7zM4uu+gCJ07U5A+nejH92P1M0HnvvLOACufCsW7JvKuBwsbDnXee6hrHg8/AngIhGs6Azli1qnTSvvuq4xDLxhJOBx+sse0coRIxF9g7BDodCtjYfvv8aiWOJB7FJVg4HgVpQqhA18OmJbNHwHEIJDh5rEpyzN6gMEtl8hmmBrmD+Sbcoty6dpXNKR40BqrMPAdmhMvPdJ9UkVi8WDWLBcsOyoBmTF1TpC++KAFqgg9rjE2uXl2GN0cQjoTyFu726FEgrCf8I7KfNStfLwKNIWZeYu7DoExic7misjsGkYMLUbiibt10gTQJXDvihsaWatAof2QEoJY4h2XL4vKLPXwxF5HKVUeVHEIcRVIk6GJ33aUAj5ZA9bkTHjNGje3KK+VVoznjVNw8AUKs3r3zdhWduNSgKTz1VLiN8sJYACKDv+Q9MIVC66SVOFCvGPqzzlIXxVqZHImBTrzuOvljwkqb9oi4szuFgJisGKeRBNODaU6KWTwE5U5bnD9fZ2JzlalsetpXX+lyzATMnp0/BEB7wmwVG5odrYEjO7B9yTuFPKUC9Xh13txkm35BF6LLIUHYwETi/IiECN9xQoD3ogWipNHyWH/8FrRoIcVMM8CK0etoFZY9djRtKjGK+qTl03RpTjitSpXCdwmMXGM2aIRYTKQq0uellwr0ZNfakT5Tp6akcKO4gR6c9+jRebv+hYPTmwxMRnI82I0XIMWIvTCCXBdyBFXx/PMF3ANFMXSoNii3LGKdfk0XQyGtvbZmnwCexoYbCIUpbXoNJcnBk5aLI2dJbNjEPcqTGkkNXVBOqZKLY2Jw//tfTTPMBO/iXZBiUWmVxKVsOSYW0lVuMcAr401toBkzYulMoin8Geo8S1riwQdVp+3a6WM//ijJ1by55KNFn1GIGKlW2nahk2mQKRxn9911+USJc+eqv9CMOT4VavdQIB1mJG5G48MmyrfZRv3LZnGChZrOkhePrbeWFOPciPjx7pxhbG6mo1YttVX6JpXi7pBHwHEOfB14i9aFNo3hMlu4Ui6Eg+OYad7FFnwUIM2MoitJ2wB6h2VrCJuR7ysLLCGaiVZEq0sdus2FAlIjdcIg0AfmzMl/XiTmBk1HXIJpM7sTBduKTjSiiUrDhBUil3ZTu3Z+ZiZK5cpy+fYUKeKwAQOUgzJ5m4SfwDEMHJhNL9PHmjXTgIWBuKbJOnD2dFdiKbStZRqIupx6oPMkzxDwQDgVLCmnV6gqLJQRI8JMBrFv+/YlGrT2lCI0V2SlS8UnQWdglRxUHCID4wj0z9R6JJLeeOOwzSSTYVhqPDRNFOmDpaPR0ibN5WBrUACFQlvq3z8MGHDGZ54pN8PRXPt3ELG5ObzuliIiNq4IvwVEY9FJNnR2TpujGZwYvTgVztzZlTp598sVCSw1wQbY7cE4KitJN/peDDBE2Aq6LUrFTRSLYhE5ICKzjCrWqKHMP57MwjB4I8Mt04WCnUR6JlOYWEhEDBEINhC316ePZFl0KAEBanY1NVqLgUnHPaNdsFTUy6BBytagd6MROZEVggD9PXNmuCcVrCIakSZx993heBlgNmm0CGVLpVBTlmHKBPoVrYkgJqTG8JoKOfRQ7YmOLzuid1q6uXEOroLu6RKKXCZew6ZdA16DlzBpkpp6w4bp86MpZDodEoRzSAqRlQgetls3FY7Ne1uJUKf8ub5fDApIDY6FjyfEiUITp63feadyEgZN1u6TQQCiGdEctAbcM0bBplU2aqTtHXZQ1JK9gOhO/Bx6GZuImnZ6ghiI0BBZzfEt58yvU+gxaEb2FYIDzhANbknm6IOhaDr0WCwpsQ6KhLdor5xkdhDIllaNTvqLgeEj/iu5zvCs0tBrbJIEZg4nVML2gHbB6uFQU5sowdlZZ4Xbqdh9QzhL7D5OEQFtHZDGTJOOgQXPPR+LPLI5W47x45WSwVVUrRo6CUR/6ihPdipWVL7BuS4gmMEJOSzVxCU8+WTK3UxGzOmi1Ti9KIgDm7HBca6/vkDiB79O1NigQTjW4BLgQG26wAnQYTZ+innBv7rxtU/yno6DNYs9Ri8LuFtET8T6pnDddeEkJyBKpqAAr5l9ZD0T1BS21Ob2IiUtu4ZtRLjghjOpxijR2QkffKDWRZmbL8ACZ3rKQhRaERWdmi2gKJDI2HDaJFLPqQcMu5snlJxXQZvEfWR63kZyVMWzskifFupitdq1lfakZVCdNsRFS7VHEWSBQHDBAg3TFhXEhBM0QHSIBncy000C5TM0IEwJpi3WalHchFB0KoJLtDw9AZNdDC3WqVMY8GVP53o8QEQ4bJgEd7XC7p0uOfQsGzLHBRLPEZDx6y4Kt1kmgNuj40THg3Gl5r+RRIT1vMSF07ttekp28AGVK2d7HAVWxHria68Ft9yStytn7r1XkTe+KjZvI0cIadq312z86CTuV19VDsbuNUPHILMoomhpDBmiUyVAgu2319BVFGdqKM+FC5Vcoeio3FhM7O4DdPTuXcDj8i3ESqoBQS64RzChYKLTz1NBl6y9toYkcnx47qhRsmB3Z30QRXSCUaFQwtQU55AJBIEb1+CSK1XKT4kR4NHYkBHoklzUGJLIYsV33ilwtz+ynstflvegI9owsb67jcBG1qIQNtNoPeWEdKkBuHNs2XnnpSvQssM1MhortiOaNly+XGmSnXYqfKZ9ycFSf/WVjEvuYYrHs7Kwp33gCbJ0DZsmgjpxgyaGPYIpE6h5nKK7uTEXPv88Jcps00YBwIABGhS/8UbNf6pXT8nLgw7Kj1nxDe6OsyzcdJNSNd27Sye59AP8+adkE4Ww117SRpgLAqQKFbLdEzFwoIwMf/jRGO+9p1SojeNkYsKEcKQpiqk95CCOkIvdZx/NwHDx0siRKh/eRdygrozXX5cSsrwCpfHjj5pBXOgkX0erVhrXwF7h6blY0512GoRbuUzGj9Gjh4ZFiNZsshEtxMYEs+PSLcSijRtLfXKxCA50XhaBksoXX+hHaTNZyp/6jc2sjOZ7ttiiOAk2T9mRUWqsLKZPl/7dcUdpDlukw+PxlAq4HyJ4IuMoGIDff1d0u956+dmRO+6Qd8SRFy+lN2KEPMF++ynfcPTRGlHN3dlEo4sH8p40E8NlblIhQFprrSJECDZ7rNign+b9O+XWsAlqt9yirIlBgRMjEYvjQdtGHv9vYO44CBG5TUK3q0venh2lWTMlVNAQqJNbE0+pGTVKc4BcAgYdQ3iGjHMJ4xr/PjYwlehjM4rK8OFK82C6i6otSguuixKm6d55Zynf6+spIeVOang8npXF7NmKRI88Mqcotowgku7fX0O3l12moHbIEGUF7r5bswree08T8nO5sXyFQST93HOaVfbhh+GeTCC5YpNdCMo/+vfJLt9/rzny6Co3/nLRRRq4oQS4/OikeITRmDHK6/z5p/5sAkehuNtAttlGaS1c8oABBebHdO+ubIrdDOXxlDpeang8nnLE33/L7+6224oeui05LRPLITVtqnxGFrJkaJYskbo67jhNko2OSe2/f/pDZgvln390TDdteflyTXFF7lx+uSbnRZNJHk+p46WGx+PxlAJz50oZRPn4Y81edPdeOmrXVoamWtozLrNgaiCXifkeT3kjhyeWeTwej6cwtthCk0vsodRw0klKzOyyS4G5jQgF9EeXLppp4W5kzZEGDTQHpWnT8KXHswrhsxoej8dTmkybpmkWDRuGsyPHjtVcywULNB8iy+PgCgVT/eefJXqMksezsvBSw+PxeDweTxniB1A8Ho/H4/GUIV5qeDwej8fjKUO81PB4PB6Px1OGeKnh8Xg8Ho+nDPFSw+PxeDyejEyenL9gTZRFi3T38p13avvFF/W0+O+/z3ujWNgyiuUKLjy6xnJJKFup8fffWgro/PPT68nj8Xg8nvLJsmVay+bAA7U20NVX62Zjx9KleoTrmWdqRb1nn9WKvl27av2X6DPZ3nlH69HAkiVagOb33/P2ZgC9csghWkEQp8lfeeCnn3ThbgW7ElKGUmP5cj2j5rPP9Lx9Ct0xdaqWUpw4MXyZHWp04cICdewpa2joqHWPx+NZncCbdO+uVX4I1pERWDnkQhbnMmhQ/pp5H36oNWIcHOeCC4KZM8OXTmHg1/78Uxs//6yF3665RhtdugTdumkp48GD039u0iTpFXjmGS3OzN8ll2jN/VQQLplC93/+KY6v5Cs42SiooiuvDK64Qttz54ZXVEIKf64G73//fbDddjk9OmbBApXv8ccHp52mUjZNB7vtpqXhjztOi0RfeKH0x847B/fco3VcDzgg48qKs2frOLSPYj/2PxXqqU8ftYCbbsp1saKiwjlz7UccseKet4M+GDs2OPjg/OWqaS4VKoTbuUB74itz5iglCJ076+mEHo/HkwUcNsa5UaOgSpVwT6lD1AqxJeMN/PEff+g5ran8+qu8L36Uj+29t8Y4unYN33LUrCkvU7du+DJKs2YFBkROOUUuw8iyZMy22yqRjyDo2TPcE4UjnHiilAdyB/Hx+OPyQbbMTYwWLbTioINCeOQRnc9bb4V7HFwah9pqq+Dmm+VMn3tOi+pxybghiC6dyI/2768LiZ4/pv6ll+SODz9ctdmkieRFlAED9NDbLOA7+N3//lfbCIbU1YvSpQZnSb3iJqkndFavXnr56KP5CxPDrFnB6NFaBJJi4hi//aaFfO64Q9UJuD2kWZL99pPOiEK533JLuB3jxhvz1x6klPfdN9w2KDX8K41s3XX1serVCzwAOBOUPg0LEQMXX5y/iFFJQKuiammXbrEDO/PGjYPmzYPKlcOdOUKTmjBB7ZWCzQ61g1bjX3Qbzcu17DPOCDXybbfpkYW5gKyOJcq2317tz+PxeLJg/rhSpRQXmAqugTAvyxL5UbDw+OAePWS3778/xZYS/X/xhdwn0WwMDCMWeMaM8OXdd+uR8LizVM45R4vPReEX69QJVc6eeypd4UziJ5/Idxgc86CDtIG/4+euuy5vb1Yw7JkmQHAVG2wQyg4+NnRovtseMyZ+hplAu+CLLePCxhtv6Hn2MGWKKotigXbtpB722aeA5ceTIheQbjE6dYov7hNl3jwNJCFoUAiE8cisE07QD9mjch0pUgOF0rSpRArenUNwIAN/9uSTKnHOZtNNpc6+/FJisEsXbb/9dvgx48orNXwFxx8fvP563q7MXHRR8OCD2thyy+C++4KddtK2W/XYQYMjat9wQ0mcDz8MvamDinn11fyYPhOvvZavbGgctIzttgv18nffaQkDhCRXGuWdd/SYYa7IVFsMvuVWPbBEDs0l2qC5tAMOkDLbZJOckhy0ZmQmEvX55zV0R+Wdd56607BhEq2cLaAF6QYOBA3lP3Vq+NIRO5NM0J0oCutUUbgWWuqCBeoYuci4ovLjj1qxukipF4/Hs1IgPMMCWw7AMX9+cMwx4baZi1SIiDDa2HOMCUEzHHaYrMrll+uABpoA277xxuFLo3v3YODAcJsw9aGHCkTMX30l2wi4IZubGWX4cDlUB26FeJgTNnCNeDrOx0AqERy+8orCZmQQHmH8eOUVcCsYXqw3ITFwevhjpJKBicZZ4K0RBzhNzo2PWRxrcGI2eQCTTuFk1wovvBD6PlTO4Ydrg98idKdY2rSJh+hFAu+A4EiuuXPqqWFqIBO4IS6WyjJvHgPfhAYYMkR/BqoL7bXDDqq12GBFitTAi1veplYtKako++8ffPppuO3Ag7oKi1Glilyda0wOyg7lRe1SSUlo0PXqqdY7dpSc5OvIJQMtQnW6mo5x771ymVwQLZvrdBKY4uCYOGmkAGICX077+OGH8F3kS7duOp8jjgjnKPAuMhl1CWhw+gMgUBBrKL5od4r2tFygEXfoEG4jF1Aesawgl+byEPycq0KDUxo8WM2d5nvtteFOoEVWrapcSAyO/9xzKo1DDlG5vfyyLq169fBdBw3RHa1+ffWZG2+U1ENB0uKRm7/+qhyadYMkaJTYVWTHZDWVgsSkvlIbscfjKScsW6Y+27p1uOQ9Lp84B9OHJya84V+DwJfwF/eDmSWi3XZbxZl77KFg2tQJERcxW4wLLtARLrxQugHTSqiJo3I2NjlOgXsyH4adx3O//37e3rxhCw7ijOdPPynHkATjiUlEQGAPOQIuBmWAdwSC+6ee0gYWCeeK48cvmJfl8jGhMZBBRx0VbjuIPPEdqBPglAYN0oI4yBoLMvv00YgJuPwBLpKSxMDCRx/lG9Krr9bav0Bp7LOPomiDk+QyzTdNniwngnknBDW2315e7Mknw5epcEWu0FI5+mgNVqDS8MItW4Y5j9NPVwN44gkpsFNOkYTCV557rso5CY6Dz8SISw2aAg4gBs6JisE3FBWCcholxU2tUMrIWHzkSSdJsljRX3JJWM0xaEOcCUK4VavgrLP0L1WYyjnnKFHhtCqKAY9op7rNNjptGiuqxWjQQFNGCKa7dlUjW7Ik3A+oMJPbBi4Q4YLOxekaO+6obB7S2y6KYqMHNm+uAxYJ1BtyAekD1jmjIGsQN9mpUUM18vTT2kZOualJsMUW4TDbI4/oAqPt4OKLJbOAAqdYolC8SGYaNN3edKHtQQtaHwDUp7MpBiVAj+IDFBRNHBsRi0hSQbA3a6Yjs2Fqr0uXosk1j8dTdmCdsNXEG4Sa668vX0iHJaynw8bAaREWt20bvgSCli++kE8yEBz4KjM7RQVfhRfA28WweBJwqL165e2K8NZbsi1ZxhowU8SWMWyyQhSM8G23KRPA+eOkIOmqRozIaPFMIWHMcRAxPv9cp4c73333MEjjilAnWHUXUYPLozgIJgk+cVKxzP2ff0qXIJ723VdV9v334bXzdSTOww/nfehf8BcoLaosei24xVtvle5p1EiJA04jel3OJVWrptttjF12KTCLBX+EBHHguJP5+7jUQK3EhmoefFCFwr+xAQugCRLsRkHGUhbmk3B7r78e92oxLEmVBdrTnnuqSiiL6EAMjQwtgvuk3FEAKNDUOTiZ4FDIiLvvDl+m8uKLupbksAKgPygQp28oaGoUsYnEoe+hK0eOlGLbfHPlBtjmMikZm9BLQ0e9OvgiUYLBbyW7ARANTJigJuWgDyN0EGE0MjdLg9rFTPCjxp13plQZuDSdgV6mUwFiy03soo+57IuDI6Ma0eN9+6pjAOFLFDTfVluF2waKB0OD5rv//nDoh56WnB8zfLiG5DyeVQV6X2woupyA9cYOxHLXUdD3CxbIpGQilkiIJoAzQec1Y4iVnjRJFikLxFd//SWD1ru3PEgW0Bk2Lk/0jKxx0yNwfphQs6JnnKGBGxyzUb++XOyVV4YvMXS33KKp7phWjDZXjTlKuqTYeHSUhx5SYAzEpQT6FC8uH693ww0FBpJivP9+8MEHOo1cGgn+a+hQzYNMpo2POioM9tBPWNek/07C0XAHHOr00/UyKlmGDJH1RkwYaAV8Fkd+/PFwFJty4AOxxkNTRxVQZalwcAx748YqKDfUZdmvGAWkBs6M0ozemMqldu+ujehEGPzHxIlyPJQOqo064BjUMQ3CCotmRKjNnuw6w0FTxkVxhbQGyxoZe+0luecOQoyOt8Zv3XNPvNB/+005nyxEHTzaxVJMs2fr5FEtqDADWYcSxC/G4BwKSrJ8qK1WrcIP0M3w1pkaxM03p09bQeFyabxLNSNu/vvf4N131bUMl1WbPDlsPQ4aKLWwcKGKhdLr1EnZBQdtNJnfg+ggDu2yYUNlmzhnftSl76jBpB6H229X7q5NG21T11Om5O2NwJEpARMiNJJzzsnbm2dfOFVaCOecHFXt2FFNmZPhd23MiOZL1ceCBsQfl+lSc1gQhGYuqRSPp7TASCLxafn9+ikRWK5Ax+PecBgVK8r6E+3EXB093W4rw+M6SYHhev55WcLatZUAtnRpKlgqrAcRbY8eoQgwsCEYfJtMgAmaNk0bsdF2whI+g/Vo2TL/rJxbOfxw6RWXfo5Ss6ayLJAapZi/4Jip2eVoBpfLzOKPkiM1sOGGSpOkTtFbMeCPrDBRb8WeLff77xofR2bhp2IsXSqLWqgecrMIACflgt7115daMK+BIqGsbrpJrva++/LeLkjKXI1Fi1TE1C5N9rrr8t3Pjz9q8CmWvclef0Xln38kAu69V9u4KzyQhcK5Q9l99ZVMAIXrVMtLL6kDEJHjtnGEJ50kveLgMrlYU2RmPpB7Tm5TcN26SUOMHCl/iVZw82ioPDre8ceHLwtl3jxl4ezmbPoG6jKaidltN6kWOmS1ahoSGzFCwpmfsAmzBpaC67LhoYMOSpFEMThtxDWatGnTcI/R+d8bWZECCAKIJQMRYSecoA1qAblqGUug3FwAkQU6BnaBcovBjw4fnlG0xdhoI8Urxssvq8shPoDIiXNDGJnisZlZwGEt0QXoFSRjJhBtWGGuPVVOlU/oGvTEUuxrnmJA33d3S1pOceWCMZk6VSEpURnRwjHH5KdaDXQ51h+PjukjsrceBG7odvp0jXckYwZ3F1uUaEKULzrRT1iMWcBeGfhm7An9l89jWm+5JVscSL/eYgud/BdfyCoC1iMaU+GDnPkiFn3z33sSoXr14LHHwm0uzRyHg5AG05cj2JO2bRXvUZgE+jgLzgcvQC2vRJBK1A4FGxtMWfGceabEHG4U/2jRYO/eGrKxWSMOPoPLju00UqTGyoXodtgwjUGU8MYElBcawiWLskMnpMkSVePszZoTvg8erMiAKCE6DxQd1q6d8mP4YHRJUU3/jBlKyZx2WjjJCH1jSSOgfaM6ER90S5sqjLdGGLE/ytChsh2QOvUmC0jOHXfM78M0YryXaYgddlDXikKBoIr4FzWD4cA345jRrTEwbRgCzhOdhIBLhQLEBHCoKHRpSzB++KGKOgvnn69CpqijjB4dztA2OEmEFx0AFeKwOOCHH9TuY7KD3mt5LMxT9P7tHPn1VxUOViw5q6kswGq3b6/Kql8/5akAKx3CGoQgJU8kXf7JHhphfAYMUFvaY49wTxS+a7c1GnZvQunCr9MmaV24FjtPOtdrr0nTxMw3hgj3fNRR+ePdmab7JZ8vYNDv6L+pI7abby4748QEBnDTTYPrr0+ZGknohfWgE0UnTkbj2uwFHoVP9u2rn8ZG1awZWpurrsrPjALSys2ow/lRLNGD0wjNCxqpaXxP8aB2MER77im/TOiOVI2NlRdKuZMa5YSlSxXZJwfPjN9/V/fLsQtl55dflDawTEnDhjIrdCGL1zPRubMyN3wrqoFyBMfgpnERCXEceOYZaYXsxLKXBxygBGnU1773XnqQRziFConeAAbOCtD6iJ+QMg48Fio+epdakkInURsuPHJTySA6NnTxvw9WQVa++qoUHv4DXnlF2RcsF4YvyQMPaAwRMtkymsfXX8vglkoLiaZ2x45dmencJAj6WrW0QdyJKFywQCPZ5RaUfY8e8oKp2XKaIvGG+Uh7nFEUPDo+Lzbf/oknlHwuySUTDiH66Ym0NJeoA3SA3ervTtUGUidNUm+1cdjYlPBSxM2dfP55Oe+77w77RXbcaMgtt5Q0CicCQXbceKN8WwwMEd4u0xOlEItnn60AA6sSna/qWel4qVEuOPnk/EfNlLyjZieWhHTTcQqFkOvOOxVLXXppfNaIQWRD/IQnxhwAcqRBA2WGmhV86J7dS+b4+28ZKWSBZRqqVJFLIFCO3ZuDocccx2byRidFJ+Er7r4vLBdRF6cXHbDcZJOwKJxBv/lmaR033fW22+SBUPHY/UaNNK6JKnKPUbn8cqkK9JYbVeQlkqVfP2U+CBm56g4dFPPhIRCvU6ZoEK1ly0IkCP6bA9pn+PVoJM1vJQdciwfFPn++7h4vKtQyl2nDbZQMwheOOCIc7UK0FXXQc4URc9sx6AVuXhvwGRoPTc7un7RbH1Ox/BlOzoZu3ZHtgLG43LF8uZo9XQnQK0jnaEUDJ0BrceOzNniBniv0TkDEaKVKEspvvFFgctgGG0hwE8nQiqjEVLhedHmxpwXg42fNUu8uFZFdPGjYH3ygwsRSecoPXmqUCwjiCaON5H0cpQs+z0VsWASsYabkTbFx469G9H4WPCV/SUOPgcCX46G5fBs7Q3uhwIzLLlPcvOGGBUZk69TRHKWobMK+IIYQajZtO8YNNyhc++238KWBMth00zA0L5T27UPPGsXG7PEcXAKeAFURharESdSuHb6EO+6QQ0K14K3pfE8/rRjagrDZszVATiiJ57axktj8XC75rrvC7STjxmlYDZ1k04FxfqedpsAXf8aJxeBHn3pK8gsRljtcI/KR4rXAt8+/zwkg6v0l7wGInHb9+trIkTlzVAV8ZYcdwj3FgGJ86y3lBqJzsKKMHKlbvdwN8088IZFqvPOOUghIzFhOjmK0qVTJxwtde61URdSLc/7WDimHoXlPeFy4UJMoDct+UbmtW+sONRsCsMlYWcBho1bdmCBCh1ZRt27+pDxH9erq1IjgqlUlc5cs0Xw9/twkUL4YnRa2aJH0blT9IxMRKOj7mjVLVBEeTya81CgX4JsvvFCPxCAAynRHeCmCu8VQbrSRYqak1y8L8MR4UFxsMiPqwDISbEXjbAwoLm233cI5qgZKxcaecZaYRcw3hp7Q05lIYkGi7eh02iScjM0169QpXJux2CAannlGqZqYQ8oCIgNvhIs99ljZfePDD9UGvvgifIkc/OknuQp8JF4Hv871RkfBk1AI9nS7xo1VYogAdzcZ1R27W8eF+Nmn0Mawu5eN2M30BkIq+71gMXr0CG+YTz64JRdoMJ9/riF8PDEROW4eiK3XXjv/biws3EknFZjOTBOyyH7x4pQnN2THZsx89FGYkEhiOubii/PH12rUUK0hN83W7rqrFHOvXgWSKA60AroHnU3HbNYsvWWee660IwICorKpSNjcJuQ7dVqeh708qwdeapQXcDkffyx7VK4G48shv/+u1AXmG4eaiWXLlNtAc2ywgSa1nHdegYwxLg3HxkGw4wR/RIExGjVSQHlJ3qN7Utkk8xNyywLiYBrGlVdKdeFaiI+5rubNldTBT6y3njYgdQpClPffl+Dgej/9NF/RUgJvv61WN3q0joxG4YCIUVRL1AMNGyaRgSbODsrPLangQGj+9Vd6Qjt6zjmKHlw46uTaa6VK8dbR4b/33lNFmw+Go48OEx5JkEQohmQltmmj9EDqXZeGPX6bw7ZsmT6W0aWLskpUWXRiB/Jr5MhwOztjx0qGRidg0hRdytOwJ2baeFyhle7xlAe81PCsnhDFzpkjRYLhxkGiHgwMN84AYhnsxx5TKHnTTTLimHKUn/NYffuGj+o3nnpKt9d27qwsFM5maeIpivjCpANAKEDvYj2Fne8edFD6kL/ByXPOLt+QiVq1pCRu/PcBuKngJon4LeVzxhkKrNdeWzcjsDMTRMbR5/49/rgCd771/PPKfOCbkUcogJ4984vUcPc3OlBU2R+sB1a29epp6Cr5oAUqN8uc4n32yc8bJbFpUtHbOGNwRXZnNVDvf/+df0WbbaY2Y6MbuStRCurii3WQ+vX1lUr/LlqGCEYKG1wORermcoHLl3g8qwpeanjWCCz8xZSjG+xWxuhoumXU6Qqvvip1YpNXiPWffFJ389rn8UC4Ivx91F/26pU/89Swu11wgZ9/rkNZ4MsR+Bii57nIAryOmjU1kc3BL9rdzg5OftNNwxkYhbLttgXc0jPPaCZg6XLbbSoK4/bblQ6xkYtC6dFDp9evnwp8l13iEyENin3SJE2LadEifwaugci7555wu6hUrChpQlHw6/3/fbxEDHPhNIPoibHdoIEuk9aSnBlKhb7+uoaukD5duxZ4AuG660oipE6gdjjR8PXXOviFF4bzqKJzdGhRKCREqg24ICsRcB7PqoWXGp41BRtDWSvy2N1LL9WgO3Eq0Wrx+OsvuS7+4OWXNa5hj3L5/Xd5HUJVgvso4/5dY+iww/SZJk2UaUAAzZ6tpP1xx8kT/+c/ygQQNA8frhsgwRxSLqnyDh00l9bd0HT11fKvsRuVHbxbaAohiXv+m4OCTT5xITtc5vbbh2srZD8NPlatmkoSuRadshMDQfBxZFkHHD9Sxu5JNtxDq4CCjWU+Nt5YCS0nIqlKfP+11+oMcfMVKmhIDqWYfXBzXsHFqKmvBx5QroKTNzifN99UndrEEQ4YPecoyyNrFLg7nDn+zz9r9qvHs8rhpYZnzWXhQoWkhx6anxUvHtOmaQJEoc8mAXpbnz66oTeX+5mnT1f0T2R/7rl6+fDD4VzXZs10nyq+kCAY7UIE/MO/q1SYKHEzGGxiAURTOMauuypJgMZyt7QQN9soTyayPNUDqYQ2GjkyfdbqaafpNpxMoPa4Fs7c3VtUJPDot98urdCxY/5dIbhzRN6nn+pOqKFDpS0ouuiNXd9+q8GO1q11Nw0l07WrHH/JcXIQLcXl2NRUt5MrtVnYnNh11+nXs4inpk3DanWZD49n1cVLDY9n1eDvv3Un8H77xW9HHDxYvhbwtfYYBpzoPfcosneRMSA7rrlGLhAVsskm+X53/Hh9/eqrJbn4YuPG4W0ssNZaun20Th0NE/BuLhNNFi3Sk2ejn7Sn3+LRUweALO9i5JK2icG53XlnqBL++UcTNV5+ObxJJBcmT1bptcxbJaBUQHJNmqQLiT5ej2t87z2NOtkjOnIEndGpkxJvqcNMHs+qhZcaHs8qz5dfajim0KeDzJyp6D/2iOtcwINWqKDpnzmyeLEyPUiitdeWXkEKYGaaNElZa2N0ZL3p777Ln5yBSPoosgCyA1W07776Vo8eEhmxZ3qWT377TTOUi/1cLI9nNcBLDY/HsyJYtkx/CJ3PPtPtP3Xq6EkYySdMT5+uaSunny6xgqRo3lwPm7rtNq0rBm+/HT7h7c8/w1t8PR5P+cdLDY/HU95ZulSyA3USW1na4/GsEnip4fF4PB6PpwxZIU+l9ng8Ho/Hs6bipYbH4/F4PJ4yxEsNj8fj8Xg8ZYiXGp6QX37RMwaWLQtfejwej8dTKnipsfqwfHn+xk8/6SGDRdIN3bqFCz1MmBDu8Xg8Hs+axv/+pxu+5swJX5YKXmqUO2bM0IOoo8s3zJ+fsnxojLFj9dSjSy/VStxXXKFnPl58sdbazhG+9fbb2vjjDz3JoEEDPd7R+OUXrfTh8Xg8njICG/vmm1rfoDyAL2jdWs/Tu+cePaG4VPA3u5Y77DHG8NBDSkvY8uXVqmkl7hi//64lJ2ij7dppbXQnDhz16umhioWyeLGSGTE9ccIJwa23ai2JNm2CypW1MOnaa4cPmvzmGz3Wet486aF999V3K1b0DzzweDye4vD333rwPzRqpOUYN900XCtnZdGhQ/DGG+E2fPxxEVYIQlCkfngNzWpce60WPii7eQkc+cMP1YCy8PPP6bmKhQvDDaSl6Qz4+mstrHDddapI4Iu8REkMHKhFH557LkVnAEcYM0bLSL7wQraT+fbbUGcMGZK/LBZyZ8IE6QyYOVPK48gj9WDp777TohXIi9NP1zMfe/bUapaHHRacdJLWvyiU5cvVjnv1Cl96PB5PueWdd/TU/1QwZdhhF6oPGqTVg93Ch0Vi+PBw46WXZE5T1yxMgjW+4458f2FkSR3w1qefBs8+qyftZgJn0aBBAZ0Bv/wSbnz0kebzxRg1SqsijxunbQrk3HN1FW4037EmZjXQaJdcog0LyksIhXvjjVp+4rTT9HLBAgkC4v7Fi4MWLfK1QozPP5d65VtuXU0DgZLpKwYKCcG7zz7B5ZeHe1Jp2jS+MPpBB2mN7MqV1UARCttsE+4HHP+TTwa1a4dreU+fHpxySt4bCc47L3j88XA7yT33FL4mxeTJ0iiADJo7Vwtv2nOmPR6Pp1xhKxSuu67c51FHFVjF5oMPNE5t2PJ+tlggprVdO616s912ig//+EOP1Sd+++ef4JZbtIJ0xYp538mD2OyTT4KqVZXAjo1TZFrOl+N07x5suWWw1175JwD8XLduwQUXyB9xMpxSkqFDpQlg/fV1aWutJQuMWNl+ey2JTOA6b560SDJqPf98ecwvvtDxoX//YO+9tYF2QFo1a6Zt4Np33z3o2zfYemtdslvbyChzqYFPReDsv3/4cqUzf77GGowbbgj1gfHzz8Fjjyk6r1Yt3AMzZmjk4uyzw/WgYyxZIg9tICw22khLhEfZcUctVUUFXHml6hVnv/ba2t+okZZ4gFde0QpYiB4UMW3ukEPUmGJUr67lN6OceGLw6qvaaNxYutupTi4NgbzttpLYtEj+TYWzevFFbVA1aJ3nntN2ly75JXPnnRK/Btf+1FPhdnauv15LahkIZw7+44/qWnSDiRM1cYT2ipbq2DH8jDFkiJqmg/ZIydBX99gj45LlHo/HU9YQNI4cGW5D1P3HViG++eYCZg0v3q+fgslY/oD92NJddtGH8esIETPsOAiiU1wJptIZ3ttvV4YjyuDBymHHfEESYlF+BfOL6cah4JLwMrb4cxSkQKVK+cs4p+JcDyID5fT++3l7g+CttzR8nykivfbafP3hKFupQQBNeP1//yeft846csxu/WvEV4cOWhH7zDPDPUk4NULzWbPkhqmMJH/9pYOb884Obp5KwjFT/fg/A3/fvn24DThahAjghnHGxllnqRHA2LG6rQOFu9VW+S6wZUtpvdyxPEc0dUHz2mCDYNgwLT2FeqhZM9zvME88YYJma8ag6Nq00YwKPgN3362joVRo0EasP0T56CO1SJPtBr/uUh0LFoS6mKb28MNqZ8nbUurWlY5OnjDNt04dLY7lEo9VqoRljnBmI7m8J4qehgsIu7Zt83YFQY0a6q65jxEWCawGlVjynJbH41ldIaLD+zjM3hpZTKuBeUkdsyb0xwk++mj4Mgr6gPiqd+/8aXmEZ7Ye4YgRclXJKLSMwC8MHapxcy7Z5M6mm0oYOeWEcHnoITnEVLg6rHeMMpQa06dLZ9gkAEpw0iS5wMcfl6fBNW62WZgyQnCcfLI2YsyZExx/fLjNdbrRLAfljg6YPDno1EnZJH7usMO0nwvq0UO/guu1tR/5JOIO8MQ249Jx+OGSZrjGr76SDnCgHy0WP+eccE/VqpqmABzEBho+/TS48EJtFAlaD6dNK0RhUHPR1kMNnX9+qADw4q+/rp1OSnNF0RwMH0OgbLKJVBTChbOK5tMMSpiGa7M7Bw4Mdxr0Ikr+4IPDl1tsoQ9zTAdNjfZ9442qKZQH795zT/gWPPig/DQViohEECBjnWTJgk0mTXYYTn7cOA05xXCZOiQIl7/ttmoGRxwR7LZb3tt581ro0httFL4ETAN7uByDM+e7G2+s2nQgsy69VB9D7G+5Zbgzd2hgVCInZue2YkCeUno77RS+9HjKCUS9F1+sGxZcRrO8MXu2Rmk33FA99/PPlagg0MVeEaPiNSpXlilIgm1BFkTZeedwVBq7XatW3q7cwMsQelkaOwuYfUwZ5vGMM/LnfJjaSCob3AeGl8itXbtwDxx0kDzdvfeGL5MQtfIuAiJ2EwBBIJGhZcf79g3dpRF1goDRi4ad2E+sKNbpqqvCPfD2v8svR4lLDY5Lo+EniVYp2aef1k4b2qdKsPV9+gQNG+ri99tPEec66+jfXr10G+5992kQCIeEn8ZtUyvooBjOYUfBXXFwXGZ0AgHOjHja8f77+fc48ElaCVE+DSWKqUI89M036yUOGP9EHScjct6iQLNAu8SrUQGxKjG4OhxYUv0Acodyp7kgqrjSAw6Q2+M8qY9nngk/Y9BEuJDoNbKnSxdVM+dG96AzoC2iSSp8/w03hNtUf7R2C2X+fLXOtm11egbC0xIP1atrDC+5nHeMb77RFSGSaNC0hBhuEkahUNfrrZfr/KnNN5c6iUFvoSE1aBC+RKpy/liQ668P99C3aYcuNwOWxYFly3SetiJ5bAQtR9yQZ6bx1FKBukZK0pLptK5sy/QXPZ5i4LxgLo3z++8V8+DqiJGw4bHh/CTPPSfLuXy5gkZMZTFuc8OQYkKxV088IVUUneKGmySgPfdcjW4nGTs2ZT5czBzh6VAkLt9Mn0W1YPkfeyzcgz3/7LOgVSupE6K+N98M96fiChCfTJiNdwDCMNwNIajjxRdlxCg9l3qHX39V2RL+8S0ifGwdIVmlSgXGvt94I4zB8MuUJwG5DaMTo1II+PGff5YeSsoaDCz+zuAnkGsGjgCnb4ln3P0dd+TtzdAS4lIDGZF98CYGrv2RR/InA1Kj7pyKAbrYvIWTCw5K7aSTlLS3mSmpoA/wl5kmDEfB3RKIE+vHIExPxtxZsDwNseZbb2nWD1C19J8lS4I998z7RATOf+bMcJsWScUTbSPsxowJdyI56Rg0lOuuC/ck+eILNdlLLik8g5cKyunbbwuMxZx9ts6hVEBRDRmi9mPzSAw04lln5Q9aAR2YE0AFcjIIoGR/RkJReoRKJSQ6Nxabteuu0km0VZfY3H57TZZOgkbBBqWO2QGd325/L5Ljx1BipBA3OQ4JWf3SI1q2zB+ypbHttVe47fGsSN57T7ebEUph5KtVkwIgBF26ND/4wTenpgeiuDlqsMMOmhNWpYq2MZuffioFv+mmeolTwg5ztKiVw5MdeWS47SCEIATCwkQzsg56HAGhTb3HW+Ohn3wy740IW22ls6pTR7lSLAOBBKIEv4Yjv/9+hTQbbSS3mJzr4MbfiQlHjSrQN/FTuPOKFQtM9Vi8WDMY3IgMsSI/feqpunBCX8La6IMJUAx3362Tx5tQyI7jjlMWPzt8nqKzuuCKKFU0EMTsFYVM0WED8ZvZccEVUEE2zQBD2rWrkgsOE2cUAkWRpIDUoHajmZPSgtLBrVKyrprRDb//rvaBzHQSySDKpAU7N/PMM2rKmcaEDJrpRRelZFCi0CycU7FK5brx6G/nPbfKuPRSNceXX47XJcenlaNgKG66md29AlxF9+75ncEKMosjQSWgATnP885TxsiyCLyk06Ie3J230emZZcTo0aG8oH/SGaIDEKUCRcEfVoDuus020vI33hi+BbEbVWL3cBNqIDTpLdHPlArUL1X522/hS2PYMI0QTZoke4Hkp+0RdblsGTv5CpXFOZstc7cvQZ8+MknEZzE4eYQUlot2u912kl/obwt03OBrdgjjbGwLm05nthvJwDJemeC0aWC0rkwiqSzAWmFn6Ti5TJlaDaBqMNzEdjTU8snUqbKZhNF4x+gM9xyh9RKN8EVco90ugbsifkgd5o5iaj4GMcZDDym5yAaR+oknhvsdxBWEWGYfcL30JhowJpGr4IAogChnnqlTorHhPjDdeGKMjEEv4+tR8xvtqlCjhiLDzz4LXyYh6HrhhXy/zg9hK668UhF/qmf84IOwzVPUKIPoEC2dAtfWuHFcAGHkeQs/wm9F86kUDsYnZof5US6fgxsXXqhzI0izSskdwlfq7tBDS/SIASwk50xRgE0lseGeKNj8r75S4J3qUOJZDaxVq1Zh6saghvij2WW6nSE7NBfcM7Veq5YUHMdH8SFmOaA9D4r6yKIkPvxQahoDzRFi0ED33lttFJc/eHAB1dm2rX7CcdttkqWAX8eNHXFEmEcyj8iR8S7oStPXQAtz8tmSTgsXynnYLEKnLRDLsZ5QbDhDywSsu658v00xKVOwJsg44v5iGKNiQHVTKQQ0VFnHjgUSodjuRx9V/0EvU92oxs031362qRQHRgqdTj2+806B0ARJbioT5frDDzI3NIZCefZZDYgCgQsVetBBeXsLg6gO8REjess0HQcTyQkQB9is8hh0Li7Q4MKff17fpborVNBVo3s4H/QrTfqEE8KPRXGjxalgCL7+Wv0cKwCEdDRsLnPjjfPeLgNwQvboIcKJffaRPWrXLj2+XA3A6HNpmEGLPtGO1avnvVHOoFO70Umbhw7UlIW5tMn+/bUz6hodfCz6pGCMKi9x8MlR7yR0vddekzcl1kcB0J33319NuthPwDzqKGWLc4d4mkqhjrgKzHWm8Vz0BNdOEVWuLA3kYrxU6I9mHMxEc3C6LTanX78UXVXqRG87wE/lmBBNQoVyztYAig3SB62G3MG8HHZYkRVPXGoYs2ZJB+GSu3ULDUd0JCY7mJ6xY8PtWEqNl2PGqPiito+dxPGURTItgWXnHIyuXTWwxMFpuLfcorRPtNxpLnyApoPgRSjYwASxIPrLCYgiYXoi1bJbSoCgk/iy2HUfA09MJ+HI+MtUH7NmgsnAX9q8VASfK20zptddpw3gY+BaGl/BHEycqOgTaUIfi074NT75JHwq68UXS0ciiEsCDRXxhGKmtWTPwIGb64qK7dAhb1cCWrIbazMoBJu0hUB0s2IdfBgN/cAD4UvaLSGIu/sulps1KEBELe0tmgItKhhfTHCU3r3D2dnlEEzd/PlyganddtEiBUJ77BG+jIGBIihyPtjAoXKo0jICqSBeacnEaVj5JMjxL7+UReUcbMSBC4zlRAm6kICoc2I8hLLNXqJfRCsOdctxLr88ZWp5kRgyRDGMu00jFRr/ww+rz/bpk003R6E9O/EUIzb5j16w5Zb5kVsSIis6oFPD+O/x4zM+MouOhgcpoYcuCc7t0pfdTRKrKOlSIwkiEaOMEcdz0y6xp0SiNCmqeZttJCcvvFBZoCuvVIfE2VPTtGmaSO5wIk89lZ/kITziUA7eRYvknuonBEGUFDueu+ceTYl98MFy9EQQjwP7i0nNfZjghhvC0UpArd54ozJtxCWELEn23VeJCnp4JjtIF6D9Y9mLDaaNDhIdNioUjLjToEhSm09Hj0MobL21pnSwnYV33omPyLqvxOKBQvn5Z0k0/n3pJaW7Y79LcBKbt58dStK6+fDh4Th9WYD1IPB4+eWwzIlr3b08GIqvvlJi6bzz9DI2/d7g6/in5NDVLrtIfCD+OHOiHYzhjjsWKGccakkc1V9/aZoO5jQadAG/xWGRF9GpDDQDhGM0m5sFnKjNUufgRHqud2SHNsNPbL65jH+dOpKVn34avmVcdJFUbyY3zyXQhqMXEs1cItZT5+ADgQHGnApKCg7e4lucjMUbNWtqdmR0nbAddlCOEPdkKgoXk1STb72VP6OcqsSv0zzQnaiiQieulikYGYQmcmoF5LnLmlylRqHQZGfMSJkLWVTcCiAlyReVHBouRoRQ0rMasHSp3MCECQoNMZfWrnAw5l0MhAXKmI6NdEahLl+upjhmjBwqRjz6+BB8M0cYNUrNY8CAQmaVQ716GmGdNSt/Al2OcLYmaOyGcOdX0FjEbXgIIlFcDmceFeWZsKFATPMtt8iwutAzebc5EcXgwdpp44wGQh+zu3ixLicLPXoU8oEotsKOgaZ/6KFwu6gsXKhZ5A0ahOOkSe66K/SsDjdFrnPnAlODcUuDBunfKOiMLDcQAr+OF8SNAX7Lvo54Il467bQi1DuNxGYznJn3CIdv8iY8Gk4Rup233qq/TPDr2ad8oZxoXak3XwBXhAWOqeFYbE0XsPFElNCLL2ruQgx0sBs9yTQFjR70xBNKqNDF+Dl0A1LGptgb0fZJI6xbN9xu2lTD3NYpcD2xNmxwZBsgxsuh7ytWLHDfZhQ+gH3gA9HbOjylSKlJjdLi228VdCJ1k5ONPZ5SBDvr4ldzw1l4553w2WLRgBgWLSoQpRkPPJA/r5ltnKglbPEWydttHNWr65Ro9htsIN9Wo4YstQWI5maIy908jywcd5x8gJl4xNCpp+a78EsvTc8Vozy+/lrJZ04AC87F2m1o5o+j88/dOE4mnDfiYwgsvAvRJLoNtWdzsxxYdvwcIYrjo39vSM4dTtumqhmIhu22k1cz9cAJEEbjApOxPjqyVi2FsKl2plcvvYuCmTtXTpRKj7Jt3p3emW61s7wOl+weWoNui02MwOia3sV3UuY27B1tkEAb+Omn/BvxHn5YzxegOT0SWfM5E1WqaJoO3tedJJoADZRlUqSja1edP6fHSdJgEByOWOYJWXDttcoCtmgheeruk6pdW9e+ySYqWxoVCh5/X6TsjlPVH34YHzn6/XepRmRltBtCNMFj5DgF27NiKHdSw+NZYVx1lfIWO+xQzCnPBk6U6By3tNtu0gQ4V2wrLvDxx6VOYvcp4DAefDDcNnDexOKx4NJc0Zdfau4RztIFrzjmLBIco4xpBheFoxLWXbcIaYYYhx2W/yji3OHnbrtNkwO4WECK2TRVWCfvMTyHH66CSs7Ngk6dJJVyZPHiUpuXnWTECLnq1JNEgUXlV5L775dHjN6yzlcQH5TD3ntrhIXYes89NWMXMQQ0EjRoz54FhBfYvXsOvjJxYridCQQrWoef2GgjKRWkCfoA2dqvnw7+9tsSXlnmWh56aIH8zbJlKoHzzpNkoeFln65nY46VKknnFXXOYAyaR+/eKuHcJ60jB7lwB02XI3jKD15qeNZcpk1ThIQl3TqyCEuZ4u77fewx5VEK/V2CxY03LhARuskNMXAtRM82OenPP+Uw6tYNQz28BaIqdlc5oG+KZ465hGHD5CDxuLvuqqxJFgFUKBwkutbDa6/pXgZcLCqHqiF4jV4+10KtcXXjx6frgCxsu61GUvC4F1+sFEISHBsaMTt2d/SsWRoZcTciFgoXWKtWxlnAMVAGqMzsNI08MwbpgLhEaHJWXFpstSakMAUYLcNr8p4D4UCFVK6sJAQ78dCx5BNwWN465ZTCZxAjEaivFdabYixapDZz8MHqCCedVIZTfzzFwEsNj2fFgTU89VS55yyPxygUuixh8aRJ4ZMMCKDRGZaQz8SSyLqABvpgv/0K3OU7cqQmCmTx34SqvItnsjtoovzwg2YkZLpNIAtoIK7lzDM1cuqIZVNeeUW+EDp10tTOXLBn/EeJPmGJwrfHnESxm/DnzJELx3OnYjc4GFQlrtcNeVSoICdtA0+p5HjrJvWy//4FYvQWLeJni0Y891xJtCef1LSG5B1J2aH9LF+uU0WuHXNMIS3H4ykVvNTweFYof/2lELOokxJi4PIJqYsUt+Ea+Wm+goOpVClc+PCRR5RjJ9zv3DkUEMTT33yju8xiHHecnpewcGHGmNUWytl554wzDZMQgtvDf3/5RbmKLA8C3njjcNpgEg6ChsDdci0D/13o55NPJBr4fKNGejl3boFhewL96APiUAytW0sKWE4oOf/m9NOl6tzZRmHP55/rBocmTRT9RyeOQPQ51pzA99+H2zEGDJCIsWcs2u1F1FStWtIEgDBCebiHDdJy3HOrPJ5VBS81PB5PATAJeFYc5/TpUgANGyrrsPbauYa/fJ2I/J9/JE1mz5aPvOsupffRAfj+J54Ixx222SZ+V2RyZl+hnHdegUdB8HPjxslJm2jIAnJqzBidA0oLXRW7AbJu3oOlDUshZALVgphwsz6nRNZE5Eo57N9/S+5kynacfbZmOO65p+5341fsfAxXGvZUSkp1/nzdWly9+upw66NnTcNLDY/HU4ZgYIjm3ZQLJAhe/PnnNX0hdl/Gt99K0+QCvpbQH4lQDHWSCxMnSmbVr1/SB2MYPXvGnxG3/fbScNWqSY44+C0EmdNzfIUvnnFGeOuTx7NK46WGx+MpRwwcqIegXHmlsgW4ZERJ9FbVo4+WS77pJo0BrUKTDDhnhNTOO0tAII/YePpppYtsDkoqGOYvvtDY0BqyuIxn9cZLDY/HU64xp3vBBRqbuP76VUlheDwew0sNj8fj8Xg8ZUjJ5sF7PB6Px+PxZMVLDY/H4/F4PGWIlxoej8fj8XjKEC81PB6Px+PxlCFeang8Ho/H4ykzguD/ATI1/SwjpFt/AAAAAElFTkSuQmCC;" vertex="1" parent="1">
          <mxGeometry x="56" y="81" width="718" height="248" as="geometry" />
        </mxCell>
        <mxCell id="2kaiVSncZ8-85bc54Xyd-8" value="" style="endArrow=none;dashed=1;html=1;strokeColor=#FF8000;strokeWidth=3;" edge="1" parent="1">
          <mxGeometry width="50" height="50" relative="1" as="geometry">
            <mxPoint x="60" y="342" as="sourcePoint" />
            <mxPoint x="60" y="62" as="targetPoint" />
            <Array as="points" />
          </mxGeometry>
        </mxCell>
        <mxCell id="2kaiVSncZ8-85bc54Xyd-14" value="" style="endArrow=none;dashed=1;html=1;strokeColor=#009900;strokeWidth=3;" edge="1" parent="1">
          <mxGeometry width="50" height="50" relative="1" as="geometry">
            <mxPoint x="60" y="636" as="sourcePoint" />
            <mxPoint x="60" y="356" as="targetPoint" />
            <Array as="points" />
          </mxGeometry>
        </mxCell>
        <mxCell id="2kaiVSncZ8-85bc54Xyd-15" value="" style="endArrow=none;dashed=1;html=1;strokeColor=#FF8000;strokeWidth=3;" edge="1" parent="1">
          <mxGeometry width="50" height="50" relative="1" as="geometry">
            <mxPoint x="160" y="342" as="sourcePoint" />
            <mxPoint x="160" y="62" as="targetPoint" />
            <Array as="points" />
          </mxGeometry>
        </mxCell>
        <mxCell id="2kaiVSncZ8-85bc54Xyd-16" value="" style="endArrow=none;dashed=1;html=1;strokeColor=#009900;strokeWidth=3;" edge="1" parent="1">
          <mxGeometry width="50" height="50" relative="1" as="geometry">
            <mxPoint x="210" y="636" as="sourcePoint" />
            <mxPoint x="210" y="356" as="targetPoint" />
            <Array as="points" />
          </mxGeometry>
        </mxCell>
        <mxCell id="2kaiVSncZ8-85bc54Xyd-17" value="&lt;font style=&quot;font-size: 18px&quot;&gt;&lt;b&gt;2s&lt;/b&gt;&lt;/font&gt;" style="text;html=1;strokeColor=none;fillColor=none;align=center;verticalAlign=middle;whiteSpace=wrap;rounded=0;" vertex="1" parent="1">
          <mxGeometry x="90" y="50" width="40" height="20" as="geometry" />
        </mxCell>
        <mxCell id="2kaiVSncZ8-85bc54Xyd-18" value="&lt;font style=&quot;font-size: 18px&quot;&gt;&lt;b&gt;3s&lt;/b&gt;&lt;/font&gt;" style="text;html=1;strokeColor=none;fillColor=none;align=center;verticalAlign=middle;whiteSpace=wrap;rounded=0;" vertex="1" parent="1">
          <mxGeometry x="121" y="346" width="40" height="20" as="geometry" />
        </mxCell>
        <mxCell id="2kaiVSncZ8-85bc54Xyd-19" value="" style="endArrow=none;dashed=1;html=1;strokeColor=#FF8000;strokeWidth=3;" edge="1" parent="1">
          <mxGeometry width="50" height="50" relative="1" as="geometry">
            <mxPoint x="260" y="342" as="sourcePoint" />
            <mxPoint x="260" y="61.999999999999886" as="targetPoint" />
            <Array as="points" />
          </mxGeometry>
        </mxCell>
        <mxCell id="2kaiVSncZ8-85bc54Xyd-20" value="&lt;font style=&quot;font-size: 18px&quot;&gt;&lt;b&gt;2s&lt;/b&gt;&lt;/font&gt;" style="text;html=1;strokeColor=none;fillColor=none;align=center;verticalAlign=middle;whiteSpace=wrap;rounded=0;" vertex="1" parent="1">
          <mxGeometry x="192" y="50" width="40" height="20" as="geometry" />
        </mxCell>
        <mxCell id="2kaiVSncZ8-85bc54Xyd-21" value="" style="endArrow=none;dashed=1;html=1;strokeColor=#009900;strokeWidth=3;" edge="1" parent="1">
          <mxGeometry width="50" height="50" relative="1" as="geometry">
            <mxPoint x="370" y="636" as="sourcePoint" />
            <mxPoint x="370" y="356" as="targetPoint" />
            <Array as="points" />
          </mxGeometry>
        </mxCell>
        <mxCell id="2kaiVSncZ8-85bc54Xyd-23" value="&lt;font style=&quot;font-size: 18px&quot;&gt;&lt;b&gt;3s&lt;/b&gt;&lt;/font&gt;" style="text;html=1;strokeColor=none;fillColor=none;align=center;verticalAlign=middle;whiteSpace=wrap;rounded=0;" vertex="1" parent="1">
          <mxGeometry x="273" y="346" width="40" height="20" as="geometry" />
        </mxCell>
      </root>
    </mxGraphModel>
  </diagram>
</mxfile>
